<?xml version="1.0" standalone="no"?>
<!DOCTYPE svg PUBLIC "-//W3C//DTD SVG 1.1//EN" "http://www.w3.org/Graphics/SVG/1.1/DTD/svg11.dtd" >
<svg>
<metadata>
Created by FontForge 20090622 at Sat Jul  2 21:03:24 2016
 By deploy user
Copyright (c) 2013 by Fontfabric LLC. All rights reserved.
</metadata>
<defs>
<font id="NexaSlab-Regular" horiz-adv-x="700" >
  <font-face 
    font-family="Nexa Slab Regular"
    font-weight="400"
    font-stretch="normal"
    units-per-em="1000"
    panose-1="2 0 5 0 0 0 0 0 0 0"
    ascent="700"
    descent="-300"
    x-height="495"
    cap-height="700"
    bbox="-164 -296 1134 944"
    underline-thickness="50"
    underline-position="-50"
    unicode-range="U+000D-U+FB02"
  />
<missing-glyph horiz-adv-x="639" 
d="M37 700h538v-700h-538v700zM187 446l1 -1q0 46 34 68t81 22q124 0 125 -91q0 -20 -5.5 -34t-20.5 -24.5t-22 -13.5l-29 -12q-49 -19 -69.5 -49.5t-20.5 -99.5h60q0 48 10 66.5t45 31.5q4 2 22 10t26 12.5t23 16t22 23t13 31t6 43.5q0 76 -53.5 111t-131.5 35
q-75 0 -125.5 -36t-50.5 -109h60zM251 129q0 -25 19.5 -36t39 -0.5t19.5 35.5t-19.5 36t-39 0.5t-19.5 -35.5z" />
    <glyph glyph-name=".notdef" horiz-adv-x="639" 
d="M37 700h538v-700h-538v700zM187 446l1 -1q0 46 34 68t81 22q124 0 125 -91q0 -20 -5.5 -34t-20.5 -24.5t-22 -13.5l-29 -12q-49 -19 -69.5 -49.5t-20.5 -99.5h60q0 48 10 66.5t45 31.5q4 2 22 10t26 12.5t23 16t22 23t13 31t6 43.5q0 76 -53.5 111t-131.5 35
q-75 0 -125.5 -36t-50.5 -109h60zM251 129q0 -25 19.5 -36t39 -0.5t19.5 35.5t-19.5 36t-39 0.5t-19.5 -35.5z" />
    <glyph glyph-name=".null" horiz-adv-x="0" 
 />
    <glyph glyph-name="nonmarkingreturn" horiz-adv-x="333" 
 />
    <glyph glyph-name="CR" unicode="&#xd;" horiz-adv-x="268" 
 />
    <glyph glyph-name="space" unicode=" " horiz-adv-x="250" 
 />
    <glyph glyph-name="exclam" unicode="!" horiz-adv-x="280" 
d="M183 700v-540h-87v540h87zM83 52q0 36 29 50.5t58 0t29 -50.5t-29 -50.5t-58 0t-29 50.5z" />
    <glyph glyph-name="quotedbl" unicode="&#x22;" horiz-adv-x="373" 
d="M145 701v-261h-74v261h74zM302 701v-261h-74v261h74z" />
    <glyph glyph-name="numbersign" unicode="#" horiz-adv-x="659" 
d="M331 700l-39 -160h167l40 160h82l-40 -160h82v-73h-100l-61 -237h88v-75h-105l-38 -155h-82l38 155h-168l-38 -155h-81l38 155h-79v75h97l61 237h-84v73h101l39 160h82zM275 471l-63 -245h168l62 245h-167z" />
    <glyph glyph-name="dollar" unicode="$" horiz-adv-x="641" 
d="M368 -104h-80v91q-138 6 -236 94v139h79l4 -98q76 -54 182 -54q36 0 68.5 5.5t64 18.5t50.5 39.5t19 63.5q0 23 -9 41.5t-29 31.5t-37 21.5t-46.5 15.5t-44 9.5t-41.5 6.5q-46 7 -79 15t-69.5 23t-59 35t-37.5 52t-15 74q-1 92 68 139.5t168 53.5v93h81v-95
q113 -10 196 -77q0 -26 -0.5 -70t-0.5 -69h-77l-4 101q-66 41 -166 41q-73 0 -126 -30t-53 -89q0 -37 27 -61.5t62.5 -35t94.5 -20.5q53 -8 85.5 -15t74.5 -22t66 -35.5t41 -54.5t17 -79q-1 -95 -69 -145.5t-169 -60.5v-93z" />
    <glyph glyph-name="percent" unicode="%" horiz-adv-x="740" 
d="M191 709q60 0 101 -31.5t50.5 -76t0 -89t-50.5 -76t-101 -31.5q-43 0 -77 17t-51 43.5t-25.5 59t0 65t25.5 59t51 43.5t77 17zM548 702h92l-452 -702h-93zM191 644h-1q-55 0 -77.5 -43t0.5 -86.5t79 -43.5q33 0 55.5 18t27.5 43.5t0 50.5t-28 43t-56 18zM549 297h-1
q60 0 101 -31.5t50.5 -76t0 -89t-50.5 -76t-101 -31.5t-100.5 31.5t-50 76t0 89t50.5 76t101 31.5zM548 233q-55 0 -77.5 -43.5t0 -87.5t77.5 -44q33 0 56 18t28 44t-0.5 51.5t-28 43.5t-55.5 18z" />
    <glyph glyph-name="ampersand" unicode="&#x26;" horiz-adv-x="694" 
d="M482 523v2q0 109 -159 109q-84 0 -127 -35.5t-42 -86.5q1 -61 54 -89.5t117 -28.5h311v-71h-62v-130q0 -51 17.5 -83.5t58.5 -31.5v-79q-99 -7 -124 87q-59 -95 -203 -95q-126 0 -196.5 51t-70.5 156q0 54 36.5 98t89.5 62q-50 16 -81.5 58.5t-31.5 93.5q0 92 72 144.5
t184 52.5q48 0 87.5 -8.5t75 -28t56 -57t20.5 -90.5h-82zM495 324h-176q-83 0 -130 -38t-47 -86q0 -62 48 -96.5t131 -34.5q62 0 118 31t56 95v129z" />
    <glyph glyph-name="quotesingle" unicode="'" horiz-adv-x="217" 
d="M146 702v-262h-75v262h75z" />
    <glyph glyph-name="parenleft" unicode="(" horiz-adv-x="339" 
d="M314 677q-88 -65 -135 -166.5t-48 -216.5q-1 -118 45.5 -219t137.5 -169l-44 -62q-109 71 -167 191t-58 255q0 133 58.5 252.5t168.5 192.5z" />
    <glyph glyph-name="parenright" unicode=")" horiz-adv-x="339" 
d="M67 737q110 -72 168.5 -191.5t58.5 -252.5q0 -134 -58 -254.5t-167 -192.5l-43 61q91 68 137 169.5t45 219.5q-1 115 -48 216.5t-135 166.5z" />
    <glyph glyph-name="asterisk" unicode="*" horiz-adv-x="369" 
d="M239 456l-56 79l-55 -79l-53 38l61 74l-85 21l18 62l85 -30l-3 87h65l-5 -88l90 30l18 -61l-90 -21l62 -74z" />
    <glyph glyph-name="plus" unicode="+" horiz-adv-x="492" 
d="M43 383h162v161h80v-161h164v-77h-164v-165h-80v165h-162v77z" />
    <glyph glyph-name="comma" unicode="," horiz-adv-x="229" 
d="M95 -3l1 2q-35 9 -35 44q0 33 26.5 46t53.5 -1t27 -47q0 -4 -6 -22.5l-17.5 -52.5l-19.5 -59h-55z" />
    <glyph glyph-name="hyphen" unicode="-" horiz-adv-x="492" 
d="M67 326h358v-78h-358v78z" />
    <glyph glyph-name="period" unicode="." horiz-adv-x="230" 
d="M61 45q0 34 27 47.5t54 -0.5t27 -48t-27 -47.5t-54 0.5t-27 48z" />
    <glyph glyph-name="slash" unicode="/" horiz-adv-x="485" 
d="M377 762h86l-356 -844h-85z" />
    <glyph glyph-name="zero" unicode="0" horiz-adv-x="686" 
d="M60 420q0 70 24.5 127t64 91.5t90.5 53.5t104 19t104 -19t90.5 -54t64 -91.5t24.5 -126.5v-140q0 -70 -24.5 -126.5t-64 -91.5t-90.5 -54t-104 -19t-104 19t-90.5 53.5t-64 91.5t-24.5 127v140zM147 280q0 -57 21.5 -102t56 -68.5t76.5 -34t84 0.5t76.5 34t56 68.5
t21.5 102.5v140q0 57 -21.5 101.5t-56 67.5t-76.5 34t-84 0.5t-76.5 -34t-56 -68.5t-21.5 -102v-140z" />
    <glyph glyph-name="one" unicode="1" horiz-adv-x="415" 
d="M48 73h130v518l-123 -33v80l210 62v-627h127v-73h-344v73z" />
    <glyph glyph-name="two" unicode="2" horiz-adv-x="663" 
d="M601 0h-545v169q0 56 24 97t65 63t87.5 32t100.5 10q31 0 60 6t57.5 19.5t45.5 39.5t17 62q0 71 -49.5 102.5t-125.5 31.5q-189 0 -190 -126h-87q8 203 277 203q110 0 185.5 -51t75.5 -159q0 -57 -22 -99t-60.5 -65.5t-83.5 -34.5t-99 -11q-34 0 -64.5 -5t-60.5 -17.5
t-47.5 -37.5t-17.5 -60v-88h374l4 101h79v-182z" />
    <glyph glyph-name="three" unicode="3" horiz-adv-x="647" 
d="M275 355l-12 24l180 242l-285 -1l-3 -102h-80v182h499v-37l-189 -241q99 -10 156 -62t57 -151q0 -101 -76.5 -159.5t-197.5 -58.5q-51 0 -96.5 10t-87.5 31.5t-66.5 62t-24.5 96.5h87q1 -120 190 -120q84 0 134.5 37t50.5 98q0 42 -14 72t-37.5 45t-54 23.5t-63.5 8.5
h-67z" />
    <glyph glyph-name="four" unicode="4" horiz-adv-x="661" 
d="M436 147h-409l-6 65l396 488h107v-472h99v-81h-99v-147h-88v147zM436 228v369l-307 -369h307z" />
    <glyph glyph-name="five" unicode="5" horiz-adv-x="653" 
d="M343 439q126 0 196 -58.5t70 -160.5t-74.5 -164t-197.5 -62q-55 0 -102 10.5t-87.5 33t-64 64.5t-23.5 99h87q0 -48 31.5 -77.5t70.5 -38.5t86 -9q84 0 135.5 38.5t51.5 104.5q0 63 -46.5 100.5t-132.5 37.5h-270v343h496v-80h-411v-181h185z" />
    <glyph glyph-name="six" unicode="6" horiz-adv-x="689" 
d="M160 350q62 85 199 85q42 0 81.5 -7.5t76 -24.5t63.5 -42t43 -63.5t16 -85.5q0 -57 -24.5 -101t-65.5 -70t-89.5 -39t-101.5 -13q-73 0 -135.5 22.5t-105.5 75.5t-43 128v286q0 101 81.5 155.5t194.5 54.5q116 0 194 -48.5t82 -141.5h-87q-2 55 -56.5 85.5t-131.5 30.5
t-134 -37t-57 -100v-150zM358 69q50 1 92 14t72 46t30 83q0 73 -56 109t-136 36q-79 0 -138.5 -38t-59.5 -107q0 -72 58.5 -107.5t137.5 -35.5z" />
    <glyph glyph-name="seven" unicode="7" horiz-adv-x="563" 
d="M38 700h512l7 -54l-341 -646h-98l331 620h-330l-3 -102h-78v182z" />
    <glyph glyph-name="eight" unicode="8" horiz-adv-x="698" 
d="M54 198q0 57 38 102t97 62q-120 47 -120 152q0 52 24 91.5t65 62.5t89 34.5t101 11.5q72 0 133 -19t105 -65.5t44 -115.5q0 -51 -34 -91.5t-90 -59.5q58 -17 97 -64t40 -103q0 -59 -25.5 -102t-69.5 -66t-93.5 -33t-106.5 -10t-105.5 10t-93 33t-70 66.5t-25.5 103.5z
M542 516q0 41 -31 70.5t-74 42t-90 12.5q-48 0 -90.5 -13t-71.5 -42.5t-29 -69.5q1 -59 60.5 -89t131.5 -30q45 0 87 11t74.5 39.5t32.5 68.5zM348 328q-47 1 -92 -10.5t-80 -42.5t-35 -76q0 -67 62.5 -100.5t143.5 -33.5q51 0 96 12.5t79 43.5t34 77q0 44 -35.5 75
t-80.5 43t-92 12z" />
    <glyph glyph-name="nine" unicode="9" horiz-adv-x="685" 
d="M530 202v153q-60 -88 -199 -88q-42 0 -81.5 7.5t-76 24.5t-63.5 42t-43 63.5t-16 85.5q0 57 24.5 101t65.5 70t89.5 39t101.5 13q73 0 135.5 -22.5t105.5 -75.5t43 -128v-286q0 -101 -81.5 -155.5t-194.5 -54.5q-117 0 -195 48.5t-82 141.5h87q2 -53 57 -83t132 -30
q76 0 133.5 36t57.5 98zM332 634q-49 -1 -90.5 -14t-72 -46.5t-30.5 -83.5q0 -72 56.5 -108.5t135.5 -36.5t138 38t59 107q0 72 -58 108t-138 36z" />
    <glyph glyph-name="colon" unicode=":" horiz-adv-x="241" 
d="M67 341q0 25 16.5 39.5t37 14.5t37 -14.5t16.5 -39.5t-16.5 -39.5t-37 -14.5t-37 14.5t-16.5 39.5zM67 46q0 25 16.5 39.5t37 14.5t37 -14.5t16.5 -39.5t-16.5 -39.5t-37 -14.5t-37 14.5t-16.5 39.5z" />
    <glyph glyph-name="semicolon" unicode=";" horiz-adv-x="244" 
d="M176 341q0 -33 -27 -47t-53.5 -0.5t-26.5 46.5q0 34 26.5 47.5t53.5 0t27 -46.5zM102 -2h1q-35 9 -35 45q0 33 27 46t53.5 -1t26.5 -47q0 -4 -6 -22l-18 -53l-20 -59h-54z" />
    <glyph glyph-name="less" unicode="&#x3c;" horiz-adv-x="368" 
d="M261 535l52 -56l-176 -163l179 -162l-55 -57l-219 205v28z" />
    <glyph glyph-name="equal" unicode="=" horiz-adv-x="556" 
d="M71 458h414v-77h-414v77zM71 247h414v-77h-414v77z" />
    <glyph glyph-name="greater" unicode="&#x3e;" horiz-adv-x="368" 
d="M326 330v-28l-220 -205l-54 54l179 165l-177 165l52 54z" />
    <glyph glyph-name="question" unicode="?" horiz-adv-x="603" 
d="M117 500h-84q0 54 22.5 95.5t61 65t84.5 35.5t98 12q53 0 99 -11t85 -34t61.5 -64.5t22.5 -97.5q0 -34 -9 -61.5t-19 -44t-33 -33.5t-33 -22.5t-39 -18t-32 -13.5q-52 -20 -68 -46t-16 -93h-87q0 96 31 138.5t104 68.5q28 11 42 18t34 22t29 36.5t9 50.5q0 38 -17 65
t-46 39.5t-58.5 18t-63.5 5.5q-43 0 -81.5 -12t-67.5 -42.5t-29 -76.5zM221 54q0 36 28.5 50.5t57.5 0t29 -50.5t-29 -50.5t-57.5 0t-28.5 50.5z" />
    <glyph glyph-name="at" unicode="@" horiz-adv-x="914" 
d="M454 606q-140 0 -234.5 -91t-94.5 -237q0 -149 92.5 -232.5t233.5 -83.5q79 0 149 39l34 -59q-82 -50 -184 -50q-175 0 -288 104t-113 282q0 175 115 285t290 110q182 0 292.5 -102.5t110.5 -287.5q0 -151 -79 -215q-30 -24 -65 -27t-60 18.5t-24 62.5
q-25 -45 -77.5 -70.5t-103.5 -25.5q-106 0 -179.5 71.5t-73.5 176.5q0 115 72 182.5t181 67.5q52 0 101 -26t72 -69l4 70l66 -6v-359q0 -16 9.5 -23.5t22 -4t20.5 14.5q44 45 44 163q0 162 -87 242t-246 80zM449 451q-79 0 -127 -47t-48 -129q0 -81 48 -128t126 -47
q83 0 128.5 51.5t45.5 125.5q0 73 -45 123.5t-128 50.5z" />
    <glyph glyph-name="A" unicode="A" horiz-adv-x="810" 
d="M802 80v-80h-248v80h87l-29.5 67l-24.5 57h-359l-55 -124h85v-80h-247v80h68l172 381l74 160h-81v79h216l274 -620h68zM262 282h290l-141 333z" />
    <glyph glyph-name="B" unicode="B" horiz-adv-x="736" 
d="M138 621h-85v79h375q104 0 169 -48t65 -148q0 -49 -27 -87t-77 -58q61 -15 94 -63.5t33 -102.5q0 -193 -257 -193h-377v80h87v541zM224 621v-222h208q64 0 104.5 28t40.5 76q0 118 -149 118h-204zM224 320v-240h204q169 0 169 116q0 61 -50.5 92.5t-114.5 31.5h-208z" />
    <glyph glyph-name="C" unicode="C" horiz-adv-x="702" 
d="M673 94q-105 -104 -259 -104q-90 0 -161 29t-114.5 79.5t-66.5 113.5t-23 134q-1 95 38 176.5t124 135t203 53.5q127 0 228 -81q0 -50 -2 -148h-78l-3 108q-61 38 -145 38q-134 0 -206.5 -82t-71.5 -199q2 -115 73 -194.5t205 -79.5q53 0 106 21t91 59z" />
    <glyph glyph-name="D" unicode="D" horiz-adv-x="784" 
d="M138 622h-85v79h328q170 0 261 -97.5t91 -246.5q0 -72 -21 -135t-62.5 -113.5t-110.5 -79.5t-158 -29h-330v80h87v542zM381 80q130 0 197.5 82t67.5 196q0 109 -69 186t-196 77h-155v-541h155z" />
    <glyph glyph-name="E" unicode="E" horiz-adv-x="689" 
d="M638 0h-587v80h87v541h-85v79h570v-186h-78l-3 106h-318v-223h319v-81h-319v-234h333l3 107h78v-189z" />
    <glyph glyph-name="F" unicode="F" horiz-adv-x="636" 
d="M140 621h-86v79h548v-186h-78l-3 108h-294v-228h300v-81h-300v-233h95v-80h-269v80h87v541z" />
    <glyph glyph-name="G" unicode="G" horiz-adv-x="734" 
d="M413 711q145 0 246 -83q0 -44 -2 -146h-78l-2 106q-70 42 -164 42q-129 0 -203 -82.5t-74 -202.5q0 -115 72 -195t207 -80q107 0 181 71v145h-218v75h295v-254q-97 -119 -259 -119q-177 0 -270.5 102.5t-93.5 254.5q-1 160 97.5 263t265.5 103z" />
    <glyph glyph-name="H" unicode="H" horiz-adv-x="836" 
d="M784 0h-256v80h83v239h-386v-239h83v-80h-256v80h87v540h-87v80h256v-80h-83v-223h386v223h-83v80h256v-80h-86v-540h86v-80z" />
    <glyph glyph-name="I" unicode="I" horiz-adv-x="368" 
d="M317 0h-266v80h89v540h-87v80h262v-80h-88v-540h90v-80z" />
    <glyph glyph-name="J" unicode="J" horiz-adv-x="679" 
d="M585 280q2 -132 -76 -212t-209 -80q-126 0 -200.5 78t-74.5 210h87q0 -97 48 -151.5t140 -54.5q93 0 146 56.5t53 153.5v340h-233v80h319v-420z" />
    <glyph glyph-name="K" unicode="K" horiz-adv-x="721" 
d="M319 0h-267v79h87v541h-87v80h248v-80h-75v-267l284 267h-79v80h258v-80h-69l-247 -239l225 -302h109v-79h-212v74l-185 251l-84 -78v-168h94v-79z" />
    <glyph glyph-name="L" unicode="L" horiz-adv-x="635" 
d="M225 80h300l3 108h78v-188h-551v79h83v541h-87v80h257v-80h-83v-540z" />
    <glyph glyph-name="M" unicode="M" horiz-adv-x="978" 
d="M753 574l-254 -354h-19l-253 356v-497h83v-79h-259v79h89v541h-88v80h192l247 -360l244 360h191v-80h-87v-541h87v-79h-257v79h84v495z" />
    <glyph glyph-name="N" unicode="N" horiz-adv-x="843" 
d="M224 534v-455h87v-79h-258v79h84v541h-87v80h149l429 -537v457h-87v80h257v-80h-84v-620h-60z" />
    <glyph glyph-name="O" unicode="O" horiz-adv-x="809" 
d="M406 712q168 -1 261.5 -108t92.5 -256q0 -70 -22.5 -134t-65 -115.5t-111.5 -82t-156 -30.5t-156.5 30.5t-112 82t-65 115t-22.5 134.5q0 156 97.5 260t259.5 104zM673 348q1 74 -27 136.5t-90.5 104.5t-149.5 43q-128 0 -199 -81.5t-71 -202.5q0 -116 70 -198t200 -82
q129 0 198 83t69 197z" />
    <glyph glyph-name="P" unicode="P" horiz-adv-x="718" 
d="M223 242v-163h88v-79h-258v79h84v541h-87v80h397q66 0 118 -25t79 -65.5t39.5 -89.5t0 -97.5t-39.5 -89t-79 -66t-118 -25.5h-224zM447 319q59 0 99 31t49.5 75.5t0 88.5t-49.5 75t-99 31h-224v-301h224z" />
    <glyph glyph-name="Q" unicode="Q" horiz-adv-x="813" 
d="M626 59v1q-87 -68 -220 -68q-172 0 -264.5 105.5t-92.5 257.5q1 96 39 175.5t120.5 131.5t197.5 52q87 0 156.5 -29.5t112 -80.5t65 -114.5t22.5 -134.5q0 -136 -75 -235l87 -84l-61 -61zM406 632q-84 -1 -146.5 -40.5t-93.5 -102t-30 -137.5q0 -115 70.5 -197t198.5 -82
t199 83.5t69 199.5t-69.5 196t-197.5 80z" />
    <glyph glyph-name="R" unicode="R" horiz-adv-x="750" 
d="M227 268v-187h99v-81h-272v81h86v539h-87v80h394q106 0 171 -55t66 -157q0 -99 -59.5 -156t-160.5 -62l154 -189h95v-81h-194v74l-153 194h-139zM227 343h219q75 0 112.5 38t38.5 104q0 63 -41 99t-109 36h-220v-277z" />
    <glyph glyph-name="S" unicode="S" horiz-adv-x="656" 
d="M323 714q153 0 250 -80q0 -26 -0.5 -70t-0.5 -69h-77l-4 101q-66 41 -166 41q-73 0 -126 -30t-53 -89q0 -37 27 -61.5t62.5 -35t94.5 -20.5q51 -8 85 -15t75.5 -22.5t65.5 -36t41 -54.5t17 -78q0 -58 -26 -101t-70 -65.5t-92 -32.5t-102 -10q-158 0 -264 95v139h79l4 -98
q77 -55 182 -55q36 0 68.5 5.5t64 19t50.5 40t19 63.5q0 23 -9 41.5t-29 31.5t-37 21.5t-46.5 15.5t-44 9.5t-41.5 6.5q-46 7 -79 15t-69.5 23t-59 35t-37.5 52t-15 74q-1 68 41 114t99 63t123 17z" />
    <glyph glyph-name="T" unicode="T" horiz-adv-x="642" 
d="M278 622h-166l-3 -108h-77v186h578v-186h-77l-4 108h-165v-542h90v-80h-267v80h91v542z" />
    <glyph glyph-name="U" unicode="U" horiz-adv-x="811" 
d="M607 620h-91v80h259v-80h-83v-341q0 -139 -81.5 -216t-202.5 -77q-77 0 -141 31.5t-105.5 99.5t-41.5 162v341h-82v80h259v-80h-91v-341q0 -100 58 -156t144 -56q85 0 142 56.5t57 156.5v340z" />
    <glyph glyph-name="V" unicode="V" horiz-adv-x="781" 
d="M86 620h-73v80h252v-80h-83l208 -518l209 518h-83v80h253v-80h-75l-256 -622h-95z" />
    <glyph glyph-name="W" unicode="W" horiz-adv-x="1148" 
d="M88 620h-74v80h254v-80h-82l167 -500l194 566h56l196 -566l164 500h-83v80h254v-80h-73l-219 -621h-85l-183 507l-180 -507h-89z" />
    <glyph glyph-name="X" unicode="X" horiz-adv-x="693" 
d="M487 620h-92v80h266v-80h-76l-188 -258l183 -283h97v-79h-194v78l-136 215l-160 -214h96v-79h-268v79h74l211 285l-167 256h-101v80h199v-83l119 -185z" />
    <glyph glyph-name="Y" unicode="Y" horiz-adv-x="711" 
d="M274 620h-80l68 -105l93 -148l98 151l67 102h-80v80h255v-80h-71l-225 -336v-205h90v-79h-268v79h90v205l-221 336h-71v80h255v-80z" />
    <glyph glyph-name="Z" unicode="Z" horiz-adv-x="616" 
d="M146 619l-2 -102h-81v183h490v-38l-392 -579h326l3 114h79v-197h-532v46l387 573h-278z" />
    <glyph glyph-name="bracketleft" unicode="[" horiz-adv-x="337" 
d="M93 712h208v-75h-124v-733h124v-76h-208v884z" />
    <glyph glyph-name="backslash" unicode="\" horiz-adv-x="485" 
d="M377 -82l-355 844h86l355 -844h-86z" />
    <glyph glyph-name="bracketright" unicode="]" horiz-adv-x="338" 
d="M245 -171h-208v76h124v733h-124v75h208v-884z" />
    <glyph glyph-name="asciicircum" unicode="^" horiz-adv-x="599" 
d="M45 359l-1 5l223 337h62l226 -337l-1 -5h-89l-167 256l-167 -256h-86z" />
    <glyph glyph-name="underscore" unicode="_" horiz-adv-x="604" 
d="M67 -16h470v-73h-470v73z" />
    <glyph glyph-name="grave" unicode="`" horiz-adv-x="235" 
d="M113 568l-100 129v3h100l75 -127v-5h-75z" />
    <glyph glyph-name="a" unicode="a" horiz-adv-x="682" 
d="M562 73h82v-73h-155l-9 80q-53 -92 -182 -92q-110 0 -182 70t-72 189q0 117 72.5 186.5t182.5 69.5q58 0 107.5 -25t75.5 -71l1 88h159v-75h-80v-347zM302 63q82 0 131.5 51.5t51.5 124.5q2 78 -46.5 131.5t-137.5 53.5q-75 0 -125.5 -50t-50.5 -130q0 -81 50.5 -131
t126.5 -50z" />
    <glyph glyph-name="b" unicode="b" horiz-adv-x="669" 
d="M190 700v-295q24 47 76 72.5t108 25.5q110 0 180.5 -67.5t70.5 -188.5q0 -119 -71 -187t-181 -68q-58 0 -107 23.5t-76 70.5l-5 -86h-160v74h83v554h-82v72h164zM368 427q-74 0 -124 -50.5t-50 -128.5q0 -79 49.5 -129t124.5 -50t124.5 48t49.5 130q0 85 -49.5 132.5
t-124.5 47.5z" />
    <glyph glyph-name="c" unicode="c" horiz-adv-x="527" 
d="M443 123l53 -55q-75 -76 -187 -76q-111 0 -188 68.5t-77 186.5q0 126 74.5 191t186.5 65q89 0 173 -46l-4 -127h-73v82q-35 17 -95 17q-80 -1 -130 -51t-50 -131q0 -82 54 -129.5t130 -47.5q84 0 133 53z" />
    <glyph glyph-name="d" unicode="d" horiz-adv-x="666" 
d="M397 700h163v-626h82v-74h-153l-10 91q-29 -49 -78 -74t-107 -25q-108 0 -179 68t-71 187q0 121 70.5 188.5t178.5 67.5q57 0 108.5 -25t76.5 -73v223h-81v72zM300 428h1q-75 0 -125 -47.5t-50 -132.5q0 -82 50 -130t125 -48q74 0 124 50t50 129q0 78 -50.5 128.5
t-124.5 50.5z" />
    <glyph glyph-name="e" unicode="e" horiz-adv-x="585" 
d="M517 79h-1q-36 -43 -94 -65.5t-119 -22.5q-116 0 -188 70.5t-72 187.5q0 112 72 184t184 72q120 0 190.5 -74.5t56.5 -215.5h-420q7 -67 57 -107.5t122 -40.5q44 0 88.5 16.5t68.5 45.5zM468 284v-1q-3 71 -48 109.5t-119 38.5q-67 0 -116 -39t-59 -108h342z" />
    <glyph glyph-name="f" unicode="f" horiz-adv-x="366" 
d="M305 1h-259v72h81v347h-97v69h97v39q0 85 44 131.5t124 46.5q48 0 93 -25l-26 -66q-35 20 -66 20q-41 0 -64.5 -27t-23.5 -80v-39h134v-69h-134v-347h97v-72z" />
    <glyph glyph-name="g" unicode="g" horiz-adv-x="612" 
d="M130 -83q0 -67 50.5 -101t124.5 -35q72 0 123 28.5t51 88.5q0 57 -49.5 88t-123.5 31q-118 0 -189.5 65t-71.5 179q0 115 78.5 180t182.5 65q87 0 140 -37l53 64l58 -46l-56 -66q64 -72 64 -160q0 -68 -35.5 -123.5t-103.5 -77.5q136 -40 136 -161q0 -91 -76 -142
t-182 -51q-114 0 -184.5 56.5t-68.5 154.5h79zM126 261q1 -82 52 -127t129 -45t128 49.5t50 121.5q0 81 -52.5 126t-126.5 45q-72 0 -126 -44.5t-54 -125.5z" />
    <glyph glyph-name="h" unicode="h" horiz-adv-x="662" 
d="M190 701v-289q58 88 171 88q101 0 154 -61.5t53 -166.5v-200h82v-72h-230v72h67v198q0 74 -36 113.5t-103 39.5q-68 0 -112.5 -46t-44.5 -115v-190h79v-72h-245v72h84v557h-81v72h162z" />
    <glyph glyph-name="i" unicode="i" horiz-adv-x="311" 
d="M108 645q0 34 27 47.5t54 -0.5t27 -48t-27 -47.5t-54 0.5t-27 48zM40 496h162v-422h80v-74h-244v74h82v349h-80v73z" />
    <glyph glyph-name="j" unicode="j" horiz-adv-x="272" 
d="M99 648q0 34 27 47.5t54 -0.5t27 -48t-27 -47.5t-54 0.5t-27 48zM23 494h170v-557q0 -89 -33.5 -135t-112.5 -46q-53 0 -98 27l27 66q34 -17 67 -17q42 1 55.5 26.5t13.5 78.5v484h-89v73z" />
    <glyph glyph-name="k" unicode="k" horiz-adv-x="570" 
d="M189 193v-119h71v-74h-233v74h81v552h-80v74h161v-424l104 93l70 57l-64 2v67h232v-69h-61l-165 -138l158 -214h84v-74h-166v49l-137 189z" />
    <glyph glyph-name="l" unicode="l" horiz-adv-x="302" 
d="M192 700v-626h80v-74h-245v74h84v553h-81v73h162z" />
    <glyph glyph-name="m" unicode="m" horiz-adv-x="991" 
d="M121 421h-81v73h159l5 -73q21 41 60.5 61.5t84.5 20.5q132 0 166 -109q26 55 72 82t102 27q101 0 154.5 -58.5t53.5 -161.5v-209h82v-74h-239v74h76v209q0 65 -32.5 103.5t-96.5 38.5q-60 0 -97.5 -41.5t-37.5 -102.5v-207h78v-74h-238v74h79v207q0 64 -35 104t-99 40
q-60 0 -96.5 -41.5t-36.5 -102.5v-207h79v-74h-245v74h83v347z" />
    <glyph glyph-name="n" unicode="n" horiz-adv-x="678" 
d="M283 0h-245v74h84v348h-82v73h156l5 -78q63 86 165 86q107 0 161.5 -59.5t54.5 -170.5v-199h84v-74h-238v74h72v198q0 80 -33 117t-108 37q-68 0 -112 -44t-44 -116v-192h80v-74z" />
    <glyph glyph-name="o" unicode="o" horiz-adv-x="599" 
d="M43 246q0 114 72.5 186.5t183.5 72.5q113 0 185 -72t72 -187q0 -112 -72.5 -183.5t-184.5 -71.5q-111 0 -183.5 71.5t-72.5 183.5zM475 246q0 81 -50 132.5t-125 51.5q-76 0 -125.5 -51t-49.5 -133q0 -78 49 -128t125 -50t125.5 50t50.5 128z" />
    <glyph glyph-name="p" unicode="p" horiz-adv-x="668" 
d="M106 -161v583h-81v73h160l3 -98q30 49 80 76.5t109 27.5q110 -2 178.5 -70t68.5 -185q0 -116 -69.5 -186.5t-181.5 -70.5q-56 0 -107 24.5t-80 73.5v-248h84v-74h-236v74h72zM368 64q75 0 124.5 49t49.5 131q0 85 -48 131t-126 46q-76 0 -124 -50.5t-48 -127.5t48 -127.5
t124 -51.5z" />
    <glyph glyph-name="q" unicode="q" horiz-adv-x="640" 
d="M561 495v-656h72v-74h-234v74h83v248q-28 -49 -79.5 -73.5t-107.5 -24.5q-112 0 -181.5 70.5t-69.5 188.5q0 114 69 183.5t178 70.5q60 0 110.5 -26.5t78.5 -75.5l3 95h78zM302 66l1 2q75 0 123.5 51t48.5 127q0 77 -48.5 128t-124.5 51q-77 0 -126 -48.5t-49 -130.5
t49.5 -131t125.5 -49z" />
    <glyph glyph-name="r" unicode="r" horiz-adv-x="479" 
d="M40 495h152l9 -67q45 76 154 76q62 0 117 -37l-37 -70q-43 27 -86 27q-71 -2 -108.5 -40t-37.5 -108v-204h80v-72h-245v72h83v350h-81v73z" />
    <glyph glyph-name="s" unicode="s" horiz-adv-x="511" 
d="M255 509q105 0 188 -44l-2 -121h-70l-4 74q-39 21 -111 21q-54 1 -89 -20t-34 -59q1 -34 34 -49t90 -21q37 -5 58.5 -8.5t55 -14.5t52 -26t33 -41.5t13.5 -62.5q-1 -73 -61 -111t-150 -38q-107 0 -208 59l2 123h72l3 -74q62 -32 133 -32q22 0 41.5 3t40.5 10.5t33.5 23.5
t13.5 39q1 38 -34.5 55t-102.5 24q-34 5 -58 9.5t-52.5 15.5t-46.5 25t-30 37.5t-12 53.5q0 50 31.5 85.5t75.5 50t95 13.5z" />
    <glyph glyph-name="t" unicode="t" horiz-adv-x="381" 
d="M191 638v-145h153v-70h-154v-261q0 -95 78 -95q33 0 69 18l24 -68q-50 -23 -96 -24q-156 -3 -156 169v261h-99v70h99v136z" />
    <glyph glyph-name="u" unicode="u" horiz-adv-x="666" 
d="M640 0h-148l-14 79q-63 -84 -172 -86q-107 0 -161.5 60.5t-54.5 168.5v201h-78v72h160v-272q0 -153 150 -153q68 1 110.5 46.5t42.5 113.5v193h-83v72h165v-421h83v-74z" />
    <glyph glyph-name="v" unicode="v" horiz-adv-x="633" 
d="M16 423v72h222v-72h-64l84 -186l59 -153l57 153l84 186h-64v72h222v-72h-71l-184 -426h-90l-183 426h-72z" />
    <glyph glyph-name="w" unicode="w" horiz-adv-x="906" 
d="M18 423v72h227v-72h-65l109 -338l132 410h66l132 -410l108 338h-71v72h231v-72h-72l-148 -425h-93l-68 187l-52 179l-54 -179l-67 -187h-93l-148 425h-74z" />
    <glyph glyph-name="x" unicode="x" horiz-adv-x="549" 
d="M365 0v64l-95 135l-94 -126h67v-73h-217v73h60l136 181l-115 169h-68v72h154v-63l83 -125l87 117h-65v71h218v-71h-63l-128 -172l128 -179h68v-73h-156z" />
    <glyph glyph-name="y" unicode="y" horiz-adv-x="610" 
d="M16 422v73h225v-72h-64l81 -186l53 -142l51 140l74 187h-77v73h232v-73h-65l-231 -559q-33 -79 -99 -94.5t-138 28.5l31 68q93 -52 128 22l46 119l-177 416h-70z" />
    <glyph glyph-name="z" unicode="z" horiz-adv-x="493" 
d="M53 495h382v-45l-272 -373h207l4 88h73v-165h-409v31l281 389h-191l-2 -73h-73v148z" />
    <glyph glyph-name="braceleft" unicode="{" horiz-adv-x="333" 
d="M296 -136l-1 -1q-99 -16 -140 20.5t-41 128.5v144q0 102 -75 102v63q75 0 75 102v138q0 92 42.5 129.5t138.5 19.5v-61q-57 11 -78 -9t-21 -82v-135q0 -29 -1 -43.5t-7 -36t-21.5 -34t-40.5 -19.5q26 -7 41.5 -20t21.5 -34.5t7 -35.5t1 -43v-141q0 -61 19.5 -79t79.5 -10
v-63z" />
    <glyph glyph-name="bar" unicode="|" horiz-adv-x="269" 
d="M175 726v-829h-81v829h81z" />
    <glyph glyph-name="braceright" unicode="}" horiz-adv-x="329" 
d="M37 -77v-2q60 -9 80 9t20 79v141q0 29 1 43.5t7 36t21.5 34.5t40.5 20q-21 6 -35 17t-21 21.5t-10.5 30t-4 30.5t-0.5 35v134q0 62 -21 82t-78 9v62q96 18 138.5 -20t42.5 -130v-137q0 -102 75 -102v-62q-75 0 -75 -102v-144q0 -92 -41 -128.5t-140 -20.5v64z" />
    <glyph glyph-name="asciitilde" unicode="~" horiz-adv-x="624" 
d="M500 361l62 -24q-25 -71 -74 -97t-121 3l-129 63q-23 7 -43 9t-39.5 -14.5t-33.5 -52.5l-57 24q23 68 78.5 98t117.5 0l127 -62q75 -38 112 53z" />
    <glyph glyph-name="exclamdown" unicode="&#xa1;" horiz-adv-x="261" 
d="M187 432q0 -36 -29 -50.5t-58 0.5t-29 51t29 50.5t58 -0.5t29 -51zM175 -215v539h-88v-539h88z" />
    <glyph glyph-name="cent" unicode="&#xa2;" horiz-adv-x="527" 
d="M260 -16h-1q-96 14 -156.5 81.5t-60.5 170.5q0 99 60.5 168t157.5 84v65h77v-65q84 -12 146 -73l-51 -52q-55 53 -131 53q-75 0 -126 -49t-51 -131q0 -83 50.5 -131.5t126.5 -48.5q71 0 130 57l52 -59q-62 -60 -146 -71v-71h-77v72z" />
    <glyph glyph-name="sterling" unicode="&#xa3;" horiz-adv-x="656" 
d="M56 0v81l2 -1q109 83 91 217h-92v70h76q-23 90 -23 126q0 103 68 159t178 56q103 0 166.5 -46.5t65.5 -147.5h-78q-4 118 -154 118q-76 0 -119.5 -37t-43.5 -100q0 -30 20 -126h240v-70h-224q21 -147 -74 -222h362l3 108h78v-185h-542z" />
    <glyph glyph-name="currency" unicode="&#xa4;" horiz-adv-x="574" 
d="M286 183q63 0 99.5 41t36.5 97q0 57 -36.5 98.5t-99.5 41.5t-100 -41.5t-37 -98.5q0 -56 37 -97t100 -41zM174 146l-59 -59l-60 60l59 58q-35 53 -34.5 116t35.5 115l-60 59l60 61l59 -60q49 30 113 30q62 0 111 -30l60 60l60 -61l-58 -58q34 -52 33.5 -116.5
t-34.5 -115.5l59 -58l-60 -60l-60 59q-47 -29 -112 -29q-62 0 -112 29z" />
    <glyph glyph-name="yen" unicode="&#xa5;" horiz-adv-x="738" 
d="M286 620h-82l163 -257l168 257h-83v80h255v-80h-71l-172 -257h102v-67h-147l-8 -12v-45h158v-66h-158v-94h90v-79h-268v79h90v94h-155v66h155v45l-8 12h-147v67h103l-169 257h-71v80h255v-80z" />
    <glyph glyph-name="brokenbar" unicode="&#xa6;" horiz-adv-x="276" 
d="M95 342v366h86v-366h-86zM181 276v-365h-86v365h86z" />
    <glyph glyph-name="section" unicode="&#xa7;" horiz-adv-x="571" 
d="M443 595h-2q-57 46 -150 46q-58 1 -99 -18.5t-40 -53.5q0 -59 137 -73q35 -3 63 -7t61 -14.5t54.5 -25.5t35 -40.5t11.5 -58.5q-2 -40 -28 -67.5t-67 -37.5q45 -13 70.5 -43t23.5 -71q-1 -41 -24 -71.5t-59 -46.5t-72.5 -23.5t-73.5 -7.5q-72 0 -134 24.5t-97 72.5l55 55
q64 -78 178 -76q54 0 97 19t45 57q1 35 -37 50t-107 21q-43 3 -80 11.5t-70 24.5t-51.5 43.5t-18.5 63.5q0 33 24.5 64.5t66.5 45.5q-43 12 -66 41t-22 69q1 52 38 86.5t85.5 47.5t103.5 12q133 0 202 -72zM429 350v-1q0 28 -29 48.5t-70.5 26t-83.5 2t-71 -24.5t-29 -53
q0 -28 29 -47t70.5 -24t83.5 -0.5t71 24t29 49.5z" />
    <glyph glyph-name="dieresis" unicode="&#xa8;" horiz-adv-x="480" 
d="M57 667q0 33 26.5 47t53.5 0.5t27 -46.5t-27 -46.5t-53.5 -0.5t-26.5 46zM287 667q0 25 16.5 39.5t37 14.5t37 -14.5t16.5 -39.5q0 -33 -27 -46.5t-53.5 0t-26.5 46.5z" />
    <glyph glyph-name="copyright" unicode="&#xa9;" horiz-adv-x="828" 
d="M416 716v-1q167 0 264 -104.5t97 -259.5t-97 -260t-264 -105q-168 0 -266.5 105t-98.5 260t98.5 260t266.5 105zM127 350q0 -128 78 -213t211 -85q132 0 208.5 84.5t76.5 213.5t-76.5 213.5t-208.5 84.5q-133 0 -211 -85t-78 -213zM570 486l-3 4q-59 59 -140 59
q-85 0 -142 -54.5t-57 -141.5q0 -86 57 -140t143 -54q82 0 141 59l-48 48q-40 -40 -92 -40q-54 0 -91.5 35t-37.5 90q0 56 37.5 91.5t92.5 35.5q53 0 91 -38z" />
    <glyph glyph-name="ordfeminine" unicode="&#xaa;" horiz-adv-x="498" 
d="M351 377l-1 -1l-1 56q-18 -30 -50 -46t-67 -17q-72 0 -119 45.5t-47 124.5q0 78 47.5 123t120.5 45q35 0 67 -16t50 -44v54h65v-324h-65zM238 642l2 -1q-44 0 -73 -28.5t-29 -74.5t29 -75t72 -29q38 0 64.5 21.5t32.5 52t0 61t-32.5 52t-65.5 21.5zM80 315h343v-65h-343
v65z" />
    <glyph glyph-name="guillemotleft" unicode="&#xab;" horiz-adv-x="443" 
d="M180 517h88l-137 -220l137 -221h-88l-138 221zM173 297l138 220h88l-137 -220l137 -221h-88z" />
    <glyph glyph-name="logicalnot" unicode="&#xac;" horiz-adv-x="515" 
d="M439 164h-75v132h-293v75h368v-207z" />
    <glyph glyph-name="uni00AD" unicode="&#xad;" horiz-adv-x="492" 
d="M67 326h358v-78h-358v78z" />
    <glyph glyph-name="registered" unicode="&#xae;" horiz-adv-x="824" 
d="M412 714q168 0 264.5 -104.5t96.5 -260.5q0 -155 -96.5 -260t-264.5 -105q-167 0 -264 105t-97 260q0 156 97 260.5t264 104.5zM127 349v2q0 -129 76.5 -213.5t208.5 -84.5t209 84.5t77 212.5q0 129 -76.5 213.5t-209.5 84.5t-209 -84.5t-76 -214.5zM481 306v-1
q51 9 77 47.5t21.5 80.5t-40 75.5t-93.5 33.5h-172v-375h69v130h65l104 -130h76v14zM343 477h103q24 0 40.5 -12.5t20 -30.5t-0.5 -35.5t-20.5 -30t-41.5 -12.5h-101v121z" />
    <glyph glyph-name="macron" unicode="&#xaf;" horiz-adv-x="524" 
d="M95 702h334v-71h-334v71z" />
    <glyph glyph-name="degree" unicode="&#xb0;" horiz-adv-x="325" 
d="M163 670q-37 0 -53 -29t-1 -58.5t54 -29.5q37 0 52 29.5t-0.5 58.5t-51.5 29zM164 721q42 0 71 -22.5t36 -54.5t0.5 -64t-35.5 -54.5t-71 -22.5q-45 0 -75 22.5t-36.5 54.5t1 64t37 54.5t72.5 22.5z" />
    <glyph glyph-name="plusminus" unicode="&#xb1;" horiz-adv-x="523" 
d="M67 410h154v157h80v-157h154v-76h-154v-158h-80v158h-154v76zM71 110h381v-76h-381v76z" />
    <glyph glyph-name="twosuperior" unicode="&#xb2;" horiz-adv-x="361" 
d="M260 525h61v-112h-284v87q0 57 36.5 85t92.5 33q31 3 46.5 5.5t29 14t13.5 31.5q0 54 -77 54q-73 0 -74 -52h-64q0 57 40 83t98 26q62 0 102 -26.5t40 -85.5q0 -27 -10 -46t-22 -29t-34.5 -17t-34.5 -8.5t-36 -3.5q-17 -2 -27 -4t-24 -8t-21 -19.5t-7 -33.5v-25h154z" />
    <glyph glyph-name="threesuperior" unicode="&#xb3;" horiz-adv-x="358" 
d="M139 585l-6 16l83 120h-114l-2 -40h-57v97h271v-19l-91 -125q100 -7 100 -107q0 -64 -43.5 -92t-104.5 -28q-58 0 -99.5 27.5t-42.5 84.5h66q5 -50 77 -50q79 0 79 58t-76 58h-40z" />
    <glyph glyph-name="acute" unicode="&#xb4;" horiz-adv-x="231" 
d="M20 568v5l74 127h101v-3l-100 -129h-75z" />
    <glyph glyph-name="_181" unicode="&#xb5;" horiz-adv-x="613" 
d="M525 0h-72l-7 61q-21 -40 -66.5 -62t-91.5 -20q-50 0 -93 19t-60 62v-282h-76v716h81v-291q0 -69 46 -110t106 -42q61 0 106.5 42.5t45.5 122.5v278h81v-494z" />
    <glyph glyph-name="paragraph" unicode="&#xb6;" horiz-adv-x="807" 
d="M353 621v-837h-82v401q-115 5 -178.5 80.5t-62.5 175.5q1 67 29 124.5t88 95.5t141 38h485v-78h-100v-836h-80v836h-240z" />
    <glyph glyph-name="periodcentered" unicode="&#xb7;" horiz-adv-x="246" 
d="M67 283q0 35 28 49.5t56 0t28 -49.5t-28 -49.5t-56 0t-28 49.5z" />
    <glyph glyph-name="cedilla" unicode="&#xb8;" horiz-adv-x="335" 
d="M89 -68l-3 -1l26 91h61l-14 -55q60 1 84 -32t15 -75q-9 -40 -43 -61t-76 -20q-79 2 -113 59l39 35q26 -37 74 -35q46 0 56 34q9 29 -19.5 45.5t-69.5 1.5z" />
    <glyph glyph-name="onesuperior" unicode="&#xb9;" horiz-adv-x="245" 
d="M32 470h63v230l-54 -14v58l120 29v-303h64v-57h-193v57z" />
    <glyph glyph-name="ordmasculine" unicode="&#xba;" horiz-adv-x="417" 
d="M208 368q-74 0 -122.5 45.5t-48.5 124.5t48 123.5t122 44.5t122 -44.5t48 -122.5q0 -79 -48.5 -125t-120.5 -46zM208 434q45 0 73 28.5t28 75.5t-29.5 76.5t-72.5 29.5t-71.5 -29.5t-28.5 -75.5q0 -47 27.5 -76t73.5 -29zM47 308h325v-65h-325v65z" />
    <glyph glyph-name="guillemotright" unicode="&#xbb;" horiz-adv-x="444" 
d="M132 78h-87l136 220l-136 220h87l138 -220zM401 298l-138 -220h-87l136 220l-136 220h87z" />
    <glyph glyph-name="onequarter" unicode="&#xbc;" horiz-adv-x="743" 
d="M137 -2l377 707h78l-379 -707h-76zM46 399h63v229l-54 -13v58l120 29v-303h64v-57h-193v57zM667 361v-229h43v-59h-43v-72h-64v72h-192l-4 54l173 234h87zM603 132v166l-124 -166h124z" />
    <glyph glyph-name="onehalf" unicode="&#xbd;" horiz-adv-x="797" 
d="M135 -2l378 707h78l-379 -707h-77zM46 399h62v230l-54 -13v58l121 29v-304h64v-57h-193v57zM693 111h61v-112h-284v87q0 57 36.5 85t92.5 33q31 3 46.5 5.5t29 14t13.5 31.5q0 54 -77 54q-73 0 -74 -52h-64q0 57 40 83t98 26q62 0 102 -26.5t40 -85.5q0 -27 -10 -46
t-22 -29t-34.5 -17t-34.5 -8.5t-36 -3.5q-17 -2 -27 -4t-24 -8t-21 -19.5t-7 -33.5v-25h154z" />
    <glyph glyph-name="threequarters" unicode="&#xbe;" horiz-adv-x="781" 
d="M180 -2l378 708h78l-380 -708h-76zM698 369v-236h50v-59h-50v-75h-64v75h-192l-4 54l173 241h87zM634 133v172l-124 -172h124zM142 521l-5 15l81 117h-112l-2 -39h-55v95h264v-18l-90 -122q99 -7 99 -105q0 -63 -42 -90t-102 -27q-58 0 -98 26.5t-41 82.5h64
q5 -49 76 -49q78 0 78 57q0 25 -18.5 41t-57.5 16h-39z" />
    <glyph glyph-name="questiondown" unicode="&#xbf;" horiz-adv-x="598" 
d="M381 450q0 -36 -28.5 -50.5t-57 0t-28.5 50.5t28.5 50.5t57 0t28.5 -50.5zM570 4l-1 -1q0 -71 -40 -120t-98 -69t-129 -19q-54 0 -100 10.5t-85 33.5t-61.5 64.5t-22.5 97.5q0 19 3.5 36.5t7.5 30.5t13.5 26.5l15.5 22t20 19.5l20 15.5t23 13.5l21 11t22 10t19 9
q52 19 67.5 45.5t15.5 95.5h87q0 -98 -30.5 -142t-104.5 -70q-26 -11 -41 -18.5t-33.5 -22t-27 -34.5t-8.5 -48q0 -127 180 -127q43 0 81 11.5t67 42t30 76.5h89z" />
    <glyph glyph-name="Agrave" unicode="&#xc0;" horiz-adv-x="810" 
d="M802 80v-80h-248v80h87l-29.5 67l-24.5 57h-359l-55 -124h85v-80h-247v80h68l172 381l74 160h-81v79h216l274 -620h68zM262 282h290l-141 333zM366 749l-100 129v3h100l75 -127v-5h-75z" />
    <glyph glyph-name="Aacute" unicode="&#xc1;" horiz-adv-x="810" 
d="M802 80v-80h-248v80h87l-29.5 67l-24.5 57h-359l-55 -124h85v-80h-247v80h68l172 381l74 160h-81v79h216l274 -620h68zM262 282h290l-141 333zM356 747v5l74 127h101v-3l-100 -129h-75z" />
    <glyph glyph-name="Acircumflex" unicode="&#xc2;" horiz-adv-x="810" 
d="M802 80v-80h-248v80h87l-29.5 67l-24.5 57h-359l-55 -124h85v-80h-247v80h68l172 381l74 160h-81v79h216l274 -620h68zM262 282h290l-141 333zM371 879h53l144 -129v-7h-85l-86 76l-84 -76h-85v7z" />
    <glyph glyph-name="Atilde" unicode="&#xc3;" horiz-adv-x="810" 
d="M802 80v-80h-248v80h87l-29.5 67l-24.5 57h-359l-55 -124h85v-80h-247v80h68l172 381l74 160h-81v79h216l274 -620h68zM262 282h290l-141 333zM243 781l-2 3q11 45 44.5 65.5t75.5 5.5q6 -2 29 -14t28 -13q40 -15 54 27l55 -23q-11 -49 -45.5 -67.5t-71.5 -3.5
q-6 2 -28.5 13.5t-27.5 12.5q-42 15 -58 -30z" />
    <glyph glyph-name="Adieresis" unicode="&#xc4;" horiz-adv-x="810" 
d="M802 80v-80h-248v80h87l-29.5 67l-24.5 57h-359l-55 -124h85v-80h-247v80h68l172 381l74 160h-81v79h216l274 -620h68zM262 282h290l-141 333zM234 796q0 34 27 47.5t53.5 0t26.5 -46.5t-26.5 -46.5t-53.5 -0.5t-27 46zM464 796q0 25 16.5 39.5t37 14.5t37 -14.5
t16.5 -39.5q0 -33 -26.5 -46.5t-53.5 0t-27 46.5z" />
    <glyph glyph-name="Aring" unicode="&#xc5;" horiz-adv-x="809" 
d="M293 757h1q0 50 34.5 79t82.5 29q47 0 82.5 -28.5t35.5 -78.5q0 -64 -55 -94l259 -584h68v-80h-248v80h87l-29.5 67l-24.5 57h-359l-55 -124h85v-80h-247v80h68l172 381l94 204q-51 28 -51 92zM261 282h290l-72 172q-9 22 -31.5 82.5t-36.5 92.5l-73 -175zM411 812
q-37 0 -52 -27.5t0 -55t52 -27.5q38 0 53.5 27.5t-0.5 55t-53 27.5z" />
    <glyph glyph-name="AE" unicode="&#xc6;" horiz-adv-x="967" 
d="M7 80h75l344 541h-81v79h557v-186h-78l-3 106h-237v-223h239v-81h-239v-234h252l3 107h78v-189h-499v80h83v129h-240l-81 -129h77v-80h-250v80zM501 279v255l1 70l-198 -325h197z" />
    <glyph glyph-name="Ccedilla" unicode="&#xc7;" horiz-adv-x="702" 
d="M673 94q-101 -99 -246 -104l-18 -55q60 1 84 -32t15 -75q-9 -40 -42.5 -61.5t-75.5 -21.5q-35 0 -67 15.5t-49 44.5l40 35q26 -38 74 -36q45 2 55 34q9 29 -20 45.5t-71 1.5l-16 13l32 95q-154 14 -236 114t-83 239q-1 95 38 176.5t124 135t203 53.5q127 0 228 -81
q0 -50 -2 -148h-78l-3 108q-61 38 -145 38q-134 0 -206.5 -82t-71.5 -199q2 -115 73 -194.5t205 -79.5q53 0 106 21t91 59z" />
    <glyph glyph-name="Egrave" unicode="&#xc8;" horiz-adv-x="689" 
d="M638 0h-587v80h87v541h-85v79h570v-186h-78l-3 106h-318v-223h319v-81h-319v-234h333l3 107h78v-189zM338 751l-100 129v3h100l75 -127v-5h-75z" />
    <glyph glyph-name="Eacute" unicode="&#xc9;" horiz-adv-x="689" 
d="M638 0h-587v80h87v541h-85v79h570v-186h-78l-3 106h-318v-223h319v-81h-319v-234h333l3 107h78v-189zM326 749v5l74 127h101v-3l-100 -129h-75z" />
    <glyph glyph-name="Ecircumflex" unicode="&#xca;" horiz-adv-x="689" 
d="M638 0h-587v80h87v541h-85v79h570v-186h-78l-3 106h-318v-223h319v-81h-319v-234h333l3 107h78v-189zM331 893h53l144 -134v-7h-85l-86 79l-85 -79h-85v7z" />
    <glyph glyph-name="Edieresis" unicode="&#xcb;" horiz-adv-x="689" 
d="M638 0h-587v80h87v541h-85v79h570v-186h-78l-3 106h-318v-223h319v-81h-319v-234h333l3 107h78v-189zM190 805q0 33 26.5 47t53.5 0.5t27 -46.5t-27 -46.5t-53.5 -0.5t-26.5 46zM420 805q0 25 16.5 39.5t37 14.5t37 -14.5t16.5 -39.5q0 -33 -26.5 -46.5t-53.5 0t-27 46.5
z" />
    <glyph glyph-name="Igrave" unicode="&#xcc;" horiz-adv-x="368" 
d="M317 0h-266v80h89v540h-87v80h262v-80h-88v-540h90v-80zM151 750l-100 129v3h100l75 -127v-5h-75z" />
    <glyph glyph-name="Iacute" unicode="&#xcd;" horiz-adv-x="368" 
d="M317 0h-266v80h89v540h-87v80h262v-80h-88v-540h90v-80zM143 750v5l74 127h101v-3l-100 -129h-75z" />
    <glyph glyph-name="Icircumflex" unicode="&#xce;" horiz-adv-x="368" 
d="M317 0h-266v80h89v540h-87v80h262v-80h-88v-540h90v-80zM158 893h49l133 -138v-7h-79l-79 81l-79 -81h-78v7z" />
    <glyph glyph-name="Idieresis" unicode="&#xcf;" horiz-adv-x="368" 
d="M35 794q0 34 26.5 47.5t53.5 0t27 -46.5t-27 -46.5t-53.5 -0.5t-26.5 46zM230 794q0 25 16.5 39.5t37 14.5t37 -14.5t16.5 -39.5q0 -33 -26.5 -46.5t-53.5 0t-27 46.5zM317 0h-266v80h89v540h-87v80h262v-80h-88v-540h90v-80z" />
    <glyph glyph-name="Eth" unicode="&#xd0;" horiz-adv-x="784" 
d="M138 622h-85v79h328q170 0 261 -97.5t91 -246.5q0 -72 -21 -135t-62.5 -113.5t-110.5 -79.5t-158 -29h-330v80h87v228h-77v76h77v238zM381 80q130 0 197.5 82t67.5 196q0 109 -69 186t-196 77h-155v-237h149v-76h-149v-228h155z" />
    <glyph glyph-name="Ntilde" unicode="&#xd1;" horiz-adv-x="843" 
d="M224 79v455l430 -534h60v620h84v80h-257v-80h87v-457l-429 537h-149v-80h87v-541h-84v-79h258v79h-87zM262 796l-2 3q12 48 49 69t82 5q7 -2 31.5 -14.5t30.5 -13.5q17 -8 34.5 -1.5t24.5 29.5l61 -24q-13 -52 -50 -71t-78 -3q-7 2 -32 14t-30 13q-45 15 -63 -31z" />
    <glyph glyph-name="Ograve" unicode="&#xd2;" horiz-adv-x="809" 
d="M281 911v3h101l74 -127v-5h-75zM406 712q168 -1 261.5 -108t92.5 -256q0 -70 -22.5 -134t-65 -115.5t-111.5 -82t-156 -30.5t-156.5 30.5t-112 82t-65 115t-22.5 134.5q0 156 97.5 260t259.5 104zM673 347l1 1q1 74 -27 136.5t-90.5 104.5t-149.5 43q-128 0 -200 -82
t-70 -202q2 -115 71 -197t198 -82t198 82t69 196z" />
    <glyph glyph-name="Oacute" unicode="&#xd3;" horiz-adv-x="809" 
d="M364 784l74 128h101v-3l-100 -130h-75v5zM406 712q-162 0 -259.5 -104t-97.5 -260q0 -71 22.5 -135t65 -115.5t112 -82t156.5 -30.5t156 30.5t111.5 82t65 115.5t23.5 134q1 150 -92.5 257t-262.5 108zM137 347l-1 -1q-2 120 70 202t200 82q129 -1 198.5 -84t68.5 -199
q-1 -115 -70 -197t-198 -82t-198 82t-70 197z" />
    <glyph glyph-name="Ocircumflex" unicode="&#xd4;" horiz-adv-x="809" 
d="M388 919h52l145 -135v-6h-85l-86 79l-86 -79h-85v6zM49 348q0 156 97.5 260t259.5 104q168 -1 261.5 -108t92.5 -256q0 -70 -22.5 -134t-65 -115.5t-111.5 -82t-156 -30.5t-156.5 30.5t-112 82t-65 115t-22.5 134.5zM673 347l1 1q1 74 -27 136.5t-90.5 104.5t-149.5 43
q-128 0 -200 -82t-70 -202q2 -115 71 -197t198 -82t198 82t69 196z" />
    <glyph glyph-name="Otilde" unicode="&#xd5;" horiz-adv-x="809" 
d="M268 812h-2q11 45 44.5 65.5t75.5 5.5q5 -1 27.5 -12.5t27.5 -12.5q42 -15 57 28l55 -24q-11 -49 -45.5 -67.5t-71.5 -3.5q-6 1 -28.5 13.5t-28.5 13.5q-42 15 -58 -30zM49 348q0 156 97.5 260t259.5 104q168 -1 261.5 -108t92.5 -256q0 -70 -22.5 -134t-65 -115.5
t-111.5 -82t-156 -30.5t-156.5 30.5t-112 82t-65 115t-22.5 134.5zM673 347l1 1q1 74 -27 136.5t-90.5 104.5t-149.5 43q-128 0 -200 -82t-70 -202q2 -115 71 -197t198 -82t198 82t69 196z" />
    <glyph glyph-name="Odieresis" unicode="&#xd6;" horiz-adv-x="810" 
d="M247 829q0 25 16.5 39.5t37 14.5t37 -14.5t16.5 -39.5q0 -33 -27 -46.5t-53.5 0t-26.5 46.5zM475 828q0 34 26.5 47.5t53.5 0t27 -46.5t-27 -46.5t-53.5 -0.5t-26.5 46zM406 711q-162 0 -259.5 -104t-97.5 -260q0 -71 22.5 -135t65 -115.5t112 -82t156.5 -30.5t156 30.5
t111.5 82t65 115.5t23.5 134q1 150 -92.5 257t-262.5 108zM137 346l-1 -1q-2 120 70 202t200 82q129 -1 198.5 -84t68.5 -199q-1 -115 -70 -197t-198 -82t-198 82t-70 197z" />
    <glyph glyph-name="multiply" unicode="&#xd7;" horiz-adv-x="459" 
d="M119 484l110 -111l111 111l53 -52l-113 -114l115 -114l-52 -50l-113 114l-113 -114l-54 53l114 114l-112 111z" />
    <glyph glyph-name="Oslash" unicode="&#xd8;" horiz-adv-x="809" 
d="M192 49v1q-70 49 -106.5 128.5t-36.5 170.5q0 71 22.5 135.5t65.5 116t112 82t156 30.5q85 0 155 -32l47 82h88l-71 -119q66 -50 101 -128.5t35 -167.5q0 -70 -22.5 -134t-65 -115.5t-111.5 -82t-156 -30.5q-81 0 -148 27l-52 -89h-86zM517 610q-50 22 -111 22
q-131 0 -201 -83.5t-68 -200.5q0 -66 25.5 -125t73.5 -97zM300 87q48 -17 106 -17q129 0 198 82t69 196q0 142 -92 222z" />
    <glyph glyph-name="Ugrave" unicode="&#xd9;" horiz-adv-x="811" 
d="M607 620h-91v80h259v-80h-83v-341q0 -139 -81.5 -216t-202.5 -77q-77 0 -141 31.5t-105.5 99.5t-41.5 162v341h-82v80h259v-80h-91v-341q0 -100 58 -156t144 -56q85 0 142 56.5t57 156.5v340zM376 748l-100 129v3h100l75 -127v-5h-75z" />
    <glyph glyph-name="Uacute" unicode="&#xda;" horiz-adv-x="811" 
d="M607 620h-91v80h259v-80h-83v-341q0 -139 -81.5 -216t-202.5 -77q-77 0 -141 31.5t-105.5 99.5t-41.5 162v341h-82v80h259v-80h-91v-341q0 -100 58 -156t144 -56q85 0 142 56.5t57 156.5v340zM359 746v5l77 124h105v-3l-104 -126h-78z" />
    <glyph glyph-name="Ucircumflex" unicode="&#xdb;" horiz-adv-x="811" 
d="M607 620h-91v80h259v-80h-83v-341q0 -139 -81.5 -216t-202.5 -77q-77 0 -141 31.5t-105.5 99.5t-41.5 162v341h-82v80h259v-80h-91v-341q0 -100 58 -156t144 -56q85 0 142 56.5t57 156.5v340zM375 900h53l144 -134v-7h-85l-86 79l-85 -79h-85v7z" />
    <glyph glyph-name="Udieresis" unicode="&#xdc;" horiz-adv-x="811" 
d="M193 812q0 34 26.5 47.5t53.5 0t27 -46.5t-27 -46.5t-53.5 -0.5t-26.5 46zM506 812q0 25 16.5 39.5t37 14.5t37 -14.5t16.5 -39.5q0 -33 -26.5 -46.5t-53.5 0t-27 46.5zM607 620h-91v80h259v-80h-83v-341q0 -139 -81.5 -216t-202.5 -77q-77 0 -141 31.5t-105.5 99.5
t-41.5 162v341h-82v80h259v-80h-91v-341q0 -100 58 -156t144 -56q85 0 142 56.5t57 156.5v340z" />
    <glyph glyph-name="Yacute" unicode="&#xdd;" horiz-adv-x="711" 
d="M274 620h-80l68 -105l93 -148l98 151l67 102h-80v80h255v-80h-71l-225 -336v-205h90v-79h-268v79h90v205l-221 336h-71v80h255v-80zM320 754v5l74 127h101v-3l-100 -129h-75z" />
    <glyph glyph-name="Thorn" unicode="&#xde;" horiz-adv-x="703" 
d="M139 624h-87v77h267v-77h-94v-68h217q49 0 90.5 -14t68 -38t45.5 -54.5t23 -64.5t-0.5 -68t-23 -64.5t-45.5 -54.5t-68 -38t-91 -14h-216v-68h94v-78h-267v78h87v546zM442 224q40 0 71.5 14t47.5 36.5t23.5 50t0 55t-23.5 50t-47.5 36.5t-71.5 14h-216v-256h216z" />
    <glyph glyph-name="germandbls" unicode="&#xdf;" horiz-adv-x="644" 
d="M27 0v72h81v445q0 94 64.5 144.5t156.5 50.5q100 0 162 -47t62 -140q0 -46 -26.5 -82.5t-71.5 -50.5q-15 -4 -39 -5q27 0 39 -3q74 -20 110 -70t36 -115q0 -104 -62.5 -157t-158.5 -53q-59 0 -121 20v75q57 -22 108 -22q67 0 108.5 36.5t41.5 96.5q0 80 -54.5 116
t-133.5 36h-68v76h64q56 0 99.5 23t44.5 78q0 32 -12 55t-33.5 34.5t-44 16.5t-48.5 5q-67 0 -101.5 -31.5t-36.5 -87.5l1 -516h-167z" />
    <glyph glyph-name="agrave" unicode="&#xe0;" horiz-adv-x="682" 
d="M286 578l-86 120v2h96l62 -117v-5h-72zM562 73h82v-73h-155l-9 80q-53 -92 -182 -92q-110 0 -182 70t-72 189q0 117 72.5 186.5t182.5 69.5q58 0 107.5 -25t75.5 -71l1 88h159v-75h-80v-347zM302 63q82 0 131.5 51.5t51.5 124.5q2 78 -46.5 131.5t-137.5 53.5
q-75 0 -125.5 -50t-50.5 -130q0 -81 50.5 -131t126.5 -50z" />
    <glyph glyph-name="aacute" unicode="&#xe1;" horiz-adv-x="682" 
d="M413 698l-85 -120h-73v5l62 117h96v-2zM562 73h82v-73h-155l-9 80q-53 -92 -182 -92q-110 0 -182 70t-72 189q0 117 72.5 186.5t182.5 69.5q58 0 107.5 -25t75.5 -71l1 88h159v-75h-80v-347zM302 63q82 0 131.5 51.5t51.5 124.5q2 78 -46.5 131.5t-137.5 53.5
q-75 0 -125.5 -50t-50.5 -130q0 -81 50.5 -131t126.5 -50z" />
    <glyph glyph-name="acircumflex" unicode="&#xe2;" horiz-adv-x="682" 
d="M562 73h82v-73h-155l-9 80q-53 -92 -182 -92q-110 0 -182 70t-72 189q0 117 72.5 186.5t182.5 69.5q58 0 107.5 -25t75.5 -71l1 88h159v-75h-80v-347zM302 63q82 0 131.5 51.5t51.5 124.5q2 78 -46.5 131.5t-137.5 53.5q-75 0 -125.5 -50t-50.5 -130q0 -81 50.5 -131
t126.5 -50zM298 707h50l138 -134v-7h-81l-82 79l-81 -79h-81v7z" />
    <glyph glyph-name="atilde" unicode="&#xe3;" horiz-adv-x="682" 
d="M562 73h82v-73h-155l-9 80q-53 -92 -182 -92q-110 0 -182 70t-72 189q0 117 72.5 186.5t182.5 69.5q58 0 107.5 -25t75.5 -71l1 88h159v-75h-80v-347zM302 63q82 0 131.5 51.5t51.5 124.5q2 78 -46.5 131.5t-137.5 53.5q-75 0 -125.5 -50t-50.5 -130q0 -81 50.5 -131
t126.5 -50zM183 619l-2 3q11 45 45.5 64.5t76.5 4.5q7 -1 30 -13t28 -13q41 -15 55 26l57 -22q-12 -48 -47 -66t-73 -3q-6 1 -29 12.5t-28 12.5q-43 15 -59 -29z" />
    <glyph glyph-name="adieresis" unicode="&#xe4;" horiz-adv-x="682" 
d="M562 73h82v-73h-155l-9 80q-53 -92 -182 -92q-110 0 -182 70t-72 189q0 117 72.5 186.5t182.5 69.5q58 0 107.5 -25t75.5 -71l1 88h159v-75h-80v-347zM302 63q82 0 131.5 51.5t51.5 124.5q2 78 -46.5 131.5t-137.5 53.5q-75 0 -125.5 -50t-50.5 -130q0 -81 50.5 -131
t126.5 -50zM156 644q0 34 27 47.5t53.5 0t26.5 -46.5t-26.5 -46.5t-53.5 -0.5t-27 46zM386 644q0 25 16.5 39.5t37 14.5t37 -14.5t16.5 -39.5q0 -33 -26.5 -46.5t-53.5 0t-27 46.5z" />
    <glyph glyph-name="aring" unicode="&#xe5;" horiz-adv-x="682" 
d="M212 647h1q0 45 33 71t78 26t79 -25.5t34 -70.5t-33 -69.5t-81 -24.5t-79.5 24t-31.5 69zM324 696q-35 0 -49.5 -23t0 -46t49.5 -23q37 0 51.5 23t-0.5 46t-51 23zM562 73h82v-73h-155l-9 80q-53 -92 -182 -92q-110 0 -182 70t-72 189q0 117 72.5 186.5t182.5 69.5
q58 0 107.5 -25t75.5 -71l1 88h159v-75h-80v-347zM302 63q82 0 131.5 51.5t51.5 124.5q2 78 -46.5 131.5t-137.5 53.5q-75 0 -125.5 -50t-50.5 -130q0 -81 50.5 -131t126.5 -50z" />
    <glyph glyph-name="ae" unicode="&#xe6;" horiz-adv-x="1012" 
d="M479 0l1 -3v90q-28 -49 -78.5 -74.5t-105.5 -25.5q-109 0 -181 70.5t-72 188.5q0 117 72.5 186.5t180.5 68.5q58 0 108.5 -25.5t76.5 -72.5l1 90h64v-85q65 97 188 95q52 0 99 -19t82 -54.5t51 -91.5t6 -124h-419q7 -67 56.5 -107.5t121.5 -40.5q44 0 88.5 16.5
t68.5 45.5l54 -50q-36 -43 -94 -65.5t-119 -22.5q-127 0 -185 94l-2 -84h-63zM895 281l-1 -1q-3 71 -48 109.5t-118 38.5q-67 0 -115.5 -39t-58.5 -108h341zM301 423v-1q-75 0 -126 -49.5t-51 -130.5t51 -131t126 -50q50 0 89 20t59 52t29.5 70.5t0 77t-29.5 70.5t-59 52
t-89 20z" />
    <glyph glyph-name="ccedilla" unicode="&#xe7;" horiz-adv-x="527" 
d="M443 123l53 -55q-71 -73 -181 -76l-12 -45q60 1 84 -31t14 -75q-12 -49 -58 -68t-96.5 -4.5t-77.5 52.5l39 35q21 -27 67.5 -34t60.5 29q8 27 -20 44t-69 3l-17 13l25 86q-95 16 -153 79.5t-58 170.5q0 126 74.5 191t186.5 65q89 0 173 -46l-4 -127h-73v82q-35 17 -95 17
q-80 -1 -130 -51t-50 -131q0 -85 53.5 -131t130.5 -46q84 0 133 53z" />
    <glyph glyph-name="egrave" unicode="&#xe8;" horiz-adv-x="585" 
d="M187 704v2h101l74 -127v-5h-75zM517 79h-1q-36 -43 -94 -65.5t-119 -22.5q-116 0 -188 70.5t-72 187.5q0 112 72 184t184 72q120 0 190.5 -74.5t56.5 -215.5h-418q7 -67 56 -107.5t121 -40.5q44 0 88.5 16.5t68.5 45.5zM468 284v-1q-3 71 -48 109.5t-119 38.5
q-67 0 -115 -39t-58 -108h340z" />
    <glyph glyph-name="eacute" unicode="&#xe9;" horiz-adv-x="584" 
d="M247 580l74 127h101v-2l-100 -130h-75v5zM545 215v-2q14 142 -56.5 216.5t-190.5 74.5q-111 0 -183 -72t-72 -184q0 -117 72 -187.5t188 -70.5q61 0 119 22.5t94 65.5l-55 50q-24 -29 -68.5 -45.5t-88.5 -16.5q-72 0 -121 40.5t-56 108.5h418zM128 282v1q10 69 58 108
t115 39q74 0 119 -38.5t48 -109.5h-340z" />
    <glyph glyph-name="ecircumflex" unicode="&#xea;" horiz-adv-x="585" 
d="M136 572l145 134h52l145 -134v-7h-85l-86 79l-86 -79h-85v7zM517 79h-1q-36 -43 -94 -65.5t-119 -22.5q-116 0 -188 70.5t-72 187.5q0 112 72 184t184 72q120 0 190.5 -74.5t56.5 -215.5h-418q7 -67 56 -107.5t121 -40.5q44 0 88.5 16.5t68.5 45.5zM468 284v-1
q-3 71 -48 109.5t-119 38.5q-67 0 -115 -39t-58 -108h340z" />
    <glyph glyph-name="edieresis" unicode="&#xeb;" horiz-adv-x="584" 
d="M147 651q0 33 26.5 47t53.5 0.5t27 -46.5t-27 -46.5t-53.5 -0.5t-26.5 46zM360 651q0 25 16.5 39.5t37 14.5t37 -14.5t16.5 -39.5q0 -33 -26.5 -46.5t-53.5 0t-27 46.5zM545 213v-2q14 142 -56.5 216.5t-190.5 74.5q-111 0 -183 -72t-72 -184q0 -117 72 -187.5t188 -70.5
q61 0 119 22.5t94 65.5l-55 51q-24 -29 -68.5 -45.5t-88.5 -16.5q-72 0 -121 40.5t-56 107.5h418zM128 281q10 69 58 108t115 39q74 0 119 -38.5t48 -108.5h-340z" />
    <glyph glyph-name="igrave" unicode="&#xec;" horiz-adv-x="311" 
d="M63 697v3h90l50 -129v-5h-70zM40 496h162v-422h80v-74h-244v74h82v349h-80v73z" />
    <glyph glyph-name="iacute" unicode="&#xed;" horiz-adv-x="311" 
d="M109 571l50 129h89v-3l-69 -131h-70v5zM40 496h162v-422h80v-74h-244v74h82v349h-80v73z" />
    <glyph glyph-name="icircumflex" unicode="&#xee;" horiz-adv-x="311" 
d="M280 574v-11h-70l-58 62l-59 -62h-70v12l108 125h43zM40 496h162v-422h80v-74h-244v74h82v349h-80v73z" />
    <glyph glyph-name="idieresis" unicode="&#xef;" horiz-adv-x="311" 
d="M179 630q0 33 27 46.5t54 0t27 -46.5q0 -34 -27 -47.5t-54 0t-27 47.5zM40 496h162v-422h80v-74h-244v74h82v349h-80v73zM21 630q0 33 27 46.5t54 0t27 -46.5q0 -34 -27 -47.5t-54 0t-27 47.5z" />
    <glyph glyph-name="eth" unicode="&#xf0;" horiz-adv-x="601" 
d="M299 64q81 0 128 52t47 123q0 70 -47 122t-128 52t-126 -51.5t-45 -122.5t45 -123t126 -52zM273 483q115 8 187 -70q-30 90 -142 157l-37 -48l-44 29l34 47q-36 20 -94 34l18 67q70 -16 123 -43l45 60l45 -31l-42 -56q185 -134 187 -377q1 -117 -68 -189.5t-186 -72.5
q-121 0 -188 73.5t-67 174.5q0 95 60 166.5t169 78.5z" />
    <glyph glyph-name="ntilde" unicode="&#xf1;" horiz-adv-x="678" 
d="M283 0h-245v74h84v348h-82v73h156l5 -78q63 86 165 86q107 0 161.5 -59.5t54.5 -170.5v-199h84v-74h-238v74h72v198q0 80 -33 117t-108 37q-68 0 -112 -44t-44 -116v-192h80v-74zM206 634l-2 3q11 45 44.5 65.5t75.5 5.5q6 -2 29 -14t28 -13q40 -15 54 27l55 -23
q-11 -49 -45.5 -67.5t-71.5 -3.5q-6 2 -28.5 13.5t-27.5 12.5q-42 15 -58 -30z" />
    <glyph glyph-name="ograve" unicode="&#xf2;" horiz-adv-x="594" 
d="M278 576l-100 127v3h101l74 -125v-5h-75zM44 246q0 112 71.5 184.5t181.5 72.5t182 -72.5t72 -184.5t-71 -183.5t-183 -71.5q-111 0 -182 71.5t-71 183.5zM469 246h1q0 78 -49 130t-123 52q-75 0 -123.5 -51.5t-48.5 -130.5q0 -78 47.5 -128t123.5 -50t124 50t48 128z
" />
    <glyph glyph-name="oacute" unicode="&#xf3;" horiz-adv-x="594" 
d="M251 572v5l73 123h100v-3l-99 -125h-74zM550 246h1q0 112 -72 184.5t-182 72.5t-181.5 -72.5t-71.5 -184.5t71 -183.5t182 -71.5t182 71.5t71 183.5zM126 246h1q0 79 48.5 130.5t123.5 51.5q73 0 122 -52t49 -130t-48 -128t-124 -50t-124 50t-48 128z" />
    <glyph glyph-name="ocircumflex" unicode="&#xf4;" horiz-adv-x="594" 
d="M274 707h52l145 -134v-7h-85l-86 79l-86 -79h-85v7zM550 246h1q0 112 -72 184.5t-182 72.5t-181.5 -72.5t-71.5 -184.5t71 -183.5t182 -71.5t182 71.5t71 183.5zM126 246h1q0 79 48.5 130.5t123.5 51.5q73 0 122 -52t49 -130t-48 -128t-124 -50t-124 50t-48 128z" />
    <glyph glyph-name="otilde" unicode="&#xf5;" horiz-adv-x="593" 
d="M158 627l-1 1q11 44 44.5 63.5t75.5 5.5q6 -1 29.5 -12.5t29.5 -12.5q40 -13 54 28l55 -23q-11 -49 -45.5 -67t-71.5 -3q-6 2 -28.5 13.5t-27.5 12.5q-44 15 -61 -30zM43 247q0 112 71.5 184.5t181.5 72.5t182 -72.5t72 -184.5t-71 -183.5t-183 -71.5q-111 0 -182 71.5
t-71 183.5zM468 247h1q0 78 -49 130t-123 52q-75 0 -123.5 -51.5t-48.5 -130.5q0 -78 47.5 -128t123.5 -50t124 50t48 128z" />
    <glyph glyph-name="odieresis" unicode="&#xf6;" horiz-adv-x="594" 
d="M141 645q0 25 16.5 39.5t37 14.5t37 -14.5t16.5 -39.5q0 -33 -27 -46.5t-53.5 0t-26.5 46.5zM351 644q0 34 26.5 47.5t53.5 0t27 -46.5t-27 -46.5t-53.5 -0.5t-26.5 46zM550 245h1q0 112 -72 184.5t-182 72.5t-181.5 -72.5t-71.5 -184.5t71 -183.5t182 -71.5t182 71.5
t71 183.5zM126 245h1q0 79 48.5 130.5t123.5 51.5q73 0 122 -52t49 -130t-48 -128t-124 -50t-124 50t-48 128z" />
    <glyph glyph-name="divide" unicode="&#xf7;" horiz-adv-x="542" 
d="M219 495q0 25 16.5 39.5t37 14.5t37 -14.5t16.5 -39.5q0 -33 -27 -46.5t-53.5 0t-26.5 46.5zM59 289h424v81h-424v-81zM219 159q0 25 16.5 39.5t37 14.5t37 -14.5t16.5 -39.5q0 -33 -27 -46.5t-53.5 0t-26.5 46.5z" />
    <glyph glyph-name="oslash" unicode="&#xf8;" horiz-adv-x="593" 
d="M138 42q-95 71 -95 204q0 112 71.5 184.5t181.5 72.5q56 0 102 -21l37 63h80l-57 -97q92 -73 92 -202q0 -112 -71 -183.5t-183 -71.5q-54 0 -99 18l-40 -68h-79zM359 415l2 1q-31 13 -64 13q-75 0 -123.5 -51.5t-48.5 -130.5q0 -84 55 -133zM241 79q24 -10 57 -10
q76 0 124 50t48 128t-52 130z" />
    <glyph glyph-name="ugrave" unicode="&#xf9;" horiz-adv-x="666" 
d="M640 0h-148l-14 79q-63 -84 -172 -86q-107 0 -161.5 60.5t-54.5 168.5v201h-78v72h160v-272q0 -153 150 -153q68 1 110.5 46.5t42.5 113.5v193h-83v72h165v-421h83v-74zM278 568l-100 129v3h100l75 -127v-5h-75z" />
    <glyph glyph-name="uacute" unicode="&#xfa;" horiz-adv-x="666" 
d="M640 0h-148l-14 79q-63 -84 -172 -86q-107 0 -161.5 60.5t-54.5 168.5v201h-78v72h160v-272q0 -153 150 -153q68 1 110.5 46.5t42.5 113.5v193h-83v72h165v-421h83v-74zM260 568v5l74 127h101v-3l-100 -129h-75z" />
    <glyph glyph-name="ucircumflex" unicode="&#xfb;" horiz-adv-x="666" 
d="M640 0h-148l-14 79q-63 -84 -172 -86q-107 0 -161.5 60.5t-54.5 168.5v201h-78v72h160v-272q0 -153 150 -153q68 1 110.5 46.5t42.5 113.5v193h-83v72h165v-421h83v-74zM277 707h53l144 -134v-7h-85l-86 79l-85 -79h-85v7z" />
    <glyph glyph-name="udieresis" unicode="&#xfc;" horiz-adv-x="666" 
d="M640 0h-148l-14 79q-63 -84 -172 -86q-107 0 -161.5 60.5t-54.5 168.5v201h-78v72h160v-272q0 -153 150 -153q68 1 110.5 46.5t42.5 113.5v193h-83v72h165v-421h83v-74zM139 638q0 34 26.5 47.5t53.5 0t27 -46.5t-27 -46.5t-53.5 -0.5t-26.5 46zM369 638q0 25 16.5 39.5
t37 14.5t37 -14.5t16.5 -39.5q0 -33 -27 -46.5t-53.5 0t-26.5 46.5z" />
    <glyph glyph-name="yacute" unicode="&#xfd;" horiz-adv-x="610" 
d="M16 495v-73h70l177 -416l-46 -119q-35 -74 -128 -22l-31 -68q72 -44 138 -28.5t99 94.5l231 559h65v73h-232v-73h77l-74 -187l-51 -140l-53 142l-81 186h64v72h-225zM258 568v5l74 127h101v-3l-100 -129h-75z" />
    <glyph glyph-name="thorn" unicode="&#xfe;" horiz-adv-x="640" 
d="M340 68q75 0 124.5 46.5t49.5 131.5q0 84 -49.5 130t-124.5 46q-74 0 -123.5 -50.5t-49.5 -126.5q0 -75 50 -126t123 -51zM161 93v-225h84v-74h-165l-1 -1v1h-72v74h72v757h-81v73h162v-300q27 48 79 76t111 28q108 -2 177 -69.5t69 -186.5q0 -122 -70 -189.5t-180 -67.5
q-56 0 -106 26.5t-79 77.5z" />
    <glyph glyph-name="ydieresis" unicode="&#xff;" horiz-adv-x="610" 
d="M16 495v-73h70l177 -416l-46 -119q-35 -74 -128 -22l-31 -68q72 -44 138 -28.5t99 94.5l231 559h65v73h-232v-73h77l-74 -187l-51 -140l-53 142l-81 186h64v72h-225zM142 635q0 33 27 47t53.5 0.5t26.5 -46.5t-26.5 -46.5t-53.5 -0.5t-27 46zM372 635q0 25 16.5 39.5
t37 14.5t37 -14.5t16.5 -39.5q0 -33 -26.5 -46.5t-53.5 0t-27 46.5z" />
    <glyph glyph-name="Amacron" unicode="&#x100;" horiz-adv-x="810" 
d="M248 842h294v-71h-294v71zM802 80v-80h-248v80h87l-29.5 67l-24.5 57h-359l-55 -124h85v-80h-247v80h68l172 381l74 160h-81v79h216l274 -620h68zM262 282h290l-141 333z" />
    <glyph glyph-name="amacron" unicode="&#x101;" horiz-adv-x="682" 
d="M179 687h274v-71h-274v71zM562 73h82v-73h-155l-9 80q-53 -92 -182 -92q-110 0 -182 70t-72 189q0 117 72.5 186.5t182.5 69.5q58 0 107.5 -25t75.5 -71l1 88h159v-75h-80v-347zM302 63q82 0 131.5 51.5t51.5 124.5q2 78 -46.5 131.5t-137.5 53.5q-75 0 -125.5 -50
t-50.5 -130q0 -81 50.5 -131t126.5 -50z" />
    <glyph glyph-name="Abreve" unicode="&#x102;" horiz-adv-x="810" 
d="M529 884h-3q3 -63 -34 -96t-102 -33t-102.5 33t-34.5 96h67q0 -65 72 -65q70 0 70 65h67zM802 80v-80h-248v80h87l-29.5 67l-24.5 57h-359l-55 -124h85v-80h-247v80h68l172 381l74 160h-81v79h216l274 -620h68zM262 282h290l-141 333z" />
    <glyph glyph-name="abreve" unicode="&#x103;" horiz-adv-x="682" 
d="M458 704h-2q3 -63 -36 -97t-101 -34q-63 0 -101.5 34.5t-35.5 96.5h67q0 -68 72 -68q70 0 70 68h67zM562 73h82v-73h-155l-9 80q-53 -92 -182 -92q-110 0 -182 70t-72 189q0 117 72.5 186.5t182.5 69.5q58 0 107.5 -25t75.5 -71l1 88h159v-75h-80v-347zM302 63
q82 0 131.5 51.5t51.5 124.5q2 78 -46.5 131.5t-137.5 53.5q-75 0 -125.5 -50t-50.5 -130q0 -81 50.5 -131t126.5 -50z" />
    <glyph glyph-name="Aogonek" unicode="&#x104;" horiz-adv-x="809" 
d="M801 80v-80q-77 -3 -107 -36t-18 -66q10 -25 49 -25.5t78 28.5l17 -60q-30 -24 -75.5 -33t-88 7t-55.5 57q-10 32 6.5 73t50.5 55h-105v80h87l-29.5 67l-24.5 57h-359l-55 -124h85v-80h-247v80h68l246 541h-81v79h216l274 -620h68zM261 282h290l-141 333z" />
    <glyph glyph-name="aogonek" unicode="&#x105;" horiz-adv-x="681" 
d="M562 73h82v-73q-76 3 -108.5 -31.5t-19.5 -69.5q9 -25 48.5 -22t77.5 32l18 -58q-36 -27 -80 -36.5t-82 6.5t-51 57q-9 33 6.5 69.5t48.5 52.5h-8l-14 80q-53 -92 -182 -92q-110 0 -182 70t-72 189q0 117 72.5 186.5t182.5 69.5q58 0 107.5 -25t75.5 -71l1 88h159v-75
h-80v-347zM302 63q82 0 131.5 51.5t51.5 124.5q2 78 -46.5 131.5t-137.5 53.5q-75 0 -125.5 -50t-50.5 -130q0 -81 50.5 -131t126.5 -50z" />
    <glyph glyph-name="Cacute" unicode="&#x106;" horiz-adv-x="702" 
d="M357 786l73 124h99v-3l-98 -126h-74v5zM673 94q-105 -104 -259 -104q-90 0 -161 29t-114.5 79.5t-66.5 113.5t-23 134q-1 95 38 176.5t124 135t203 53.5q127 0 228 -81q0 -50 -2 -148h-78l-3 108q-61 38 -145 38q-134 0 -206.5 -82t-71.5 -199q2 -115 73 -194.5
t205 -79.5q53 0 106 21t91 59z" />
    <glyph glyph-name="cacute" unicode="&#x107;" horiz-adv-x="527" 
d="M242 590l66 110h87v-2l-87 -113h-66v5zM443 123l53 -55q-75 -76 -187 -76q-111 0 -188 68.5t-77 186.5q0 126 74.5 191t186.5 65q89 0 173 -46l-4 -127h-73v82q-35 17 -95 17q-80 -1 -130 -51t-50 -131q0 -82 54 -129.5t130 -47.5q84 0 133 53z" />
    <glyph glyph-name="Ccircumflex" unicode="&#x108;" horiz-adv-x="702" 
d="M380 914h52l142 -132v-6h-84l-85 77l-83 -77h-84v6zM673 94q-105 -104 -259 -104q-90 0 -161 29t-114.5 79.5t-66.5 113.5t-23 134q-1 95 38 176.5t124 135t203 53.5q127 0 228 -81q0 -50 -2 -148h-78l-3 108q-61 38 -145 38q-134 0 -206.5 -82t-71.5 -199
q2 -115 73 -194.5t205 -79.5q53 0 106 21t91 59z" />
    <glyph glyph-name="ccircumflex" unicode="&#x109;" horiz-adv-x="527" 
d="M272 701h50l137 -128v-6h-83l-79 73l-77 -73h-85v6zM443 123l53 -55q-75 -76 -187 -76q-111 0 -188 68.5t-77 186.5q0 126 74.5 191t186.5 65q89 0 173 -46l-4 -127h-73v82q-35 17 -95 17q-80 -1 -130 -51t-50 -131q0 -82 54 -129.5t130 -47.5q84 0 133 53z" />
    <glyph glyph-name="Cdotaccent" unicode="&#x10a;" horiz-adv-x="702" 
d="M353 833q0 34 28.5 48.5t57 0.5t28.5 -48t-28.5 -48.5t-57 -0.5t-28.5 48zM673 94q-105 -104 -259 -104q-90 0 -161 29t-114.5 79.5t-66.5 113.5t-23 134q-1 95 38 176.5t124 135t203 53.5q127 0 228 -81q0 -50 -2 -148h-78l-3 108q-61 38 -145 38q-134 0 -206.5 -82
t-71.5 -199q2 -115 73 -194.5t205 -79.5q53 0 106 21t91 59z" />
    <glyph glyph-name="cdotaccent" unicode="&#x10b;" horiz-adv-x="527" 
d="M249 633q0 33 28 46.5t56 0t28 -46.5t-28 -46.5t-56 0t-28 46.5zM443 123l53 -55q-75 -76 -187 -76q-111 0 -188 68.5t-77 186.5q0 126 74.5 191t186.5 65q89 0 173 -46l-4 -127h-73v82q-35 17 -95 17q-80 -1 -130 -51t-50 -131q0 -82 54 -129.5t130 -47.5q84 0 133 53z
" />
    <glyph glyph-name="Ccaron" unicode="&#x10c;" horiz-adv-x="702" 
d="M241 902v7h83l82 -76l85 76h80v-7l-140 -125h-51zM673 94q-105 -104 -259 -104q-90 0 -161 29t-114.5 79.5t-66.5 113.5t-23 134q-1 95 38 176.5t124 135t203 53.5q127 0 228 -81q0 -50 -2 -148h-78l-3 108q-61 38 -145 38q-134 0 -206.5 -82t-71.5 -199
q2 -115 73 -194.5t205 -79.5q53 0 106 21t91 59z" />
    <glyph glyph-name="ccaron" unicode="&#x10d;" horiz-adv-x="527" 
d="M138 694v7h82l75 -69l75 69h79v-7l-132 -123h-49zM443 123l53 -55q-75 -76 -187 -76q-111 0 -188 68.5t-77 186.5q0 126 74.5 191t186.5 65q89 0 173 -46l-4 -127h-73v82q-35 17 -95 17q-80 -1 -130 -51t-50 -131q0 -82 54 -129.5t130 -47.5q84 0 133 53z" />
    <glyph glyph-name="Dcaron" unicode="&#x10e;" horiz-adv-x="784" 
d="M188 895v7h84l80 -75l84 75h81v-7l-140 -128h-50zM138 622h-85v79h328q170 0 261 -97.5t91 -246.5q0 -72 -21 -135t-62.5 -113.5t-110.5 -79.5t-158 -29h-330v80h87v542zM381 80q130 0 197.5 82t67.5 196q0 109 -69 186t-196 77h-155v-541h155z" />
    <glyph glyph-name="dcaron" unicode="&#x10f;" horiz-adv-x="665" 
d="M643 701h81l-49 -147h-62zM397 700h163v-626h82v-74h-153l-10 91q-29 -49 -78 -74t-107 -25q-108 0 -179 68t-71 187q0 121 70.5 188.5t178.5 67.5q57 0 108.5 -25t76.5 -73v223h-81v72zM300 428h1q-75 0 -125 -47.5t-50 -132.5q0 -82 50 -130t125 -48q74 0 124 50
t50 129q0 78 -50.5 128.5t-124.5 50.5z" />
    <glyph glyph-name="Dcroat" unicode="&#x110;" horiz-adv-x="784" 
d="M138 622h-85v79h328q170 0 261 -97.5t91 -246.5q0 -72 -21 -135t-62.5 -113.5t-110.5 -79.5t-158 -29h-330v80h87v228h-77v76h77v238zM381 80q130 0 197.5 82t67.5 196q0 109 -69 186t-196 77h-155v-237h149v-76h-149v-228h155z" />
    <glyph glyph-name="dcroat" unicode="&#x111;" horiz-adv-x="666" 
d="M401 704h159v-117h73v-60h-73v-453h82v-74h-153l-10 91q-29 -49 -78 -74t-107 -25q-108 0 -179 68t-71 187q0 121 70.5 188.5t178.5 67.5q57 0 108.5 -25t76.5 -73v122h-85v60h85v50h-77v67zM475 249q0 77 -50.5 127.5t-123.5 51.5q-75 0 -125 -47.5t-50 -132.5
q0 -82 50 -130t125 -48q74 0 124 50t50 129z" />
    <glyph glyph-name="Emacron" unicode="&#x112;" horiz-adv-x="689" 
d="M209 845h301v-69h-301v69zM638 0h-587v80h87v541h-85v79h570v-186h-78l-3 106h-318v-223h319v-81h-319v-234h333l3 107h78v-189z" />
    <glyph glyph-name="emacron" unicode="&#x113;" horiz-adv-x="585" 
d="M169 678h269v-67h-269v67zM517 79h-1q-36 -43 -94 -65.5t-119 -22.5q-116 0 -188 70.5t-72 187.5q0 112 72 184t184 72q120 0 190.5 -74.5t56.5 -215.5h-418q7 -67 56 -107.5t121 -40.5q44 0 88.5 16.5t68.5 45.5zM468 284v-1q-3 71 -48 109.5t-119 38.5q-67 0 -115 -39
t-58 -108h340z" />
    <glyph glyph-name="Ebreve" unicode="&#x114;" horiz-adv-x="689" 
d="M501 893h-1q3 -61 -36.5 -95.5t-101.5 -34.5q-63 0 -102 34.5t-36 95.5h68q0 -30 17.5 -49.5t53.5 -19.5q35 0 52.5 19.5t17.5 49.5h68zM638 0h-587v80h87v541h-85v79h570v-186h-78l-3 106h-318v-223h319v-81h-319v-234h333l3 107h78v-189z" />
    <glyph glyph-name="ebreve" unicode="&#x115;" horiz-adv-x="585" 
d="M438 697q3 -61 -36 -95.5t-101 -34.5q-63 0 -102 34.5t-37 95.5h67q0 -30 17.5 -49.5t53.5 -19.5q35 0 52.5 20t17.5 50zM517 78h-1q-36 -43 -94 -65.5t-119 -22.5q-116 0 -188 70.5t-72 188.5q0 112 72 184t184 72q120 0 190.5 -74.5t56.5 -216.5h-418q7 -67 56 -107.5
t121 -40.5q44 0 88.5 16.5t68.5 45.5zM468 283q-3 71 -48 109.5t-119 38.5q-67 0 -115 -39t-58 -109h340z" />
    <glyph glyph-name="Edotaccent" unicode="&#x116;" horiz-adv-x="689" 
d="M316 814q0 33 28 46.5t56 0t28 -46.5t-28 -46.5t-56 0t-28 46.5zM638 0h-587v80h87v541h-85v79h570v-186h-78l-3 106h-318v-223h319v-81h-319v-234h333l3 107h78v-189z" />
    <glyph glyph-name="edotaccent" unicode="&#x117;" horiz-adv-x="584" 
d="M257 632q0 24 17 37.5t37.5 13.5t37.5 -13.5t17 -37.5t-17 -37.5t-37.5 -13.5t-37.5 13.5t-17 37.5zM545 215v-2q14 142 -56.5 216.5t-190.5 74.5q-111 0 -183 -72t-72 -184q0 -117 72 -187.5t188 -70.5q61 0 119 22.5t94 65.5l-55 50q-24 -29 -68.5 -45.5t-88.5 -16.5
q-72 0 -121 40.5t-56 108.5h418zM128 282v1q10 69 58 108t115 39q74 0 119 -38.5t48 -109.5h-340z" />
    <glyph glyph-name="Eogonek" unicode="&#x118;" horiz-adv-x="689" 
d="M495 0h-444v80h87v541h-85v79h570v-186h-78l-3 106h-318v-223h319v-81h-319v-234h333l3 107h78v-189q-77 -3 -106 -37t-17 -67q10 -26 49.5 -25.5t78.5 30.5l17 -60q-37 -24 -81.5 -33t-83.5 5.5t-52 55.5q-10 33 4 75.5t48 55.5z" />
    <glyph glyph-name="eogonek" unicode="&#x119;" horiz-adv-x="586" 
d="M292 -117q-8 31 2 65t32 47q-12 -2 -25 -2q-115 3 -186 72.5t-71 183.5q0 112 72 184t184 72q120 0 190.5 -74.5t56.5 -215.5h-418q7 -67 56 -107.5t121 -40.5q44 0 88.5 16.5t68.5 45.5l55 -50q-40 -47 -107 -71q-33 -12 -47 -42.5t-4 -57.5q12 -28 46 -28.5t73 28.5
l16 -56q-27 -17 -57.5 -25.5t-59.5 -8t-52.5 17t-33.5 47.5zM468 286q-4 70 -49 108.5t-118 38.5q-67 0 -115 -39t-58 -108h340z" />
    <glyph glyph-name="Ecaron" unicode="&#x11a;" horiz-adv-x="689" 
d="M208 890v7h87l81 -71l84 71h85v-7l-144 -125h-51zM638 0h-587v80h87v541h-85v79h570v-186h-78l-3 106h-318v-223h319v-81h-319v-234h333l3 107h78v-189z" />
    <glyph glyph-name="ecaron" unicode="&#x11b;" horiz-adv-x="585" 
d="M132 694v7h85l84 -76l87 76h83v-7l-144 -127h-52zM517 79h-1q-36 -43 -94 -65.5t-119 -22.5q-116 0 -188 70.5t-72 187.5q0 112 72 184t184 72q120 0 190.5 -74.5t56.5 -215.5h-418q7 -67 56 -107.5t121 -40.5q44 0 88.5 16.5t68.5 45.5zM468 284v-1q-3 71 -48 109.5
t-119 38.5q-67 0 -115 -39t-58 -108h340z" />
    <glyph glyph-name="Gcircumflex" unicode="&#x11c;" horiz-adv-x="734" 
d="M386 917h51l141 -132v-6h-84l-83 77l-83 -77h-84v6zM413 711q145 0 246 -83q0 -44 -2 -146h-78l-2 106q-70 42 -164 42q-129 0 -203 -82.5t-74 -202.5q0 -115 72 -195t207 -80q107 0 181 71v145h-218v75h295v-254q-97 -119 -259 -119q-177 0 -270.5 102.5t-93.5 254.5
q-1 160 97.5 263t265.5 103z" />
    <glyph glyph-name="gcircumflex" unicode="&#x11d;" horiz-adv-x="611" 
d="M281 713h52l141 -128v-6h-84l-84 75l-82 -75h-85v6zM501 421v-1q64 -72 64 -160q0 -69 -36.5 -124t-105.5 -77q70 -20 104.5 -62.5t34.5 -98.5q0 -91 -76 -142t-182 -51q-114 0 -184.5 56.5t-68.5 154.5h81q-1 -62 49.5 -96.5t123.5 -35.5q71 0 122.5 29t51.5 85
q0 57 -49.5 88t-123.5 31q-118 0 -189.5 65t-71.5 179q0 115 78.5 180t182.5 65q87 0 140 -37l53 64l58 -46zM483 261l2 -1q0 80 -52 124.5t-127 44.5q-73 0 -126.5 -43.5t-53.5 -124.5t50.5 -125t128.5 -44t128 48.5t50 120.5z" />
    <glyph glyph-name="Gbreve" unicode="&#x11e;" horiz-adv-x="734" 
d="M547 901l-3 2q3 -60 -36.5 -94t-102.5 -34t-102.5 33.5t-36.5 93.5h68q0 -29 17.5 -48t54.5 -20q36 0 54 19t18 48h69zM413 711q145 0 246 -83q0 -44 -2 -146h-78l-2 106q-70 42 -164 42q-129 0 -203 -82.5t-74 -202.5q0 -115 72 -195t207 -80q107 0 181 71v145h-218v75
h295v-254q-97 -119 -259 -119q-177 0 -270.5 102.5t-93.5 254.5q-1 160 97.5 263t265.5 103z" />
    <glyph glyph-name="gbreve" unicode="&#x11f;" horiz-adv-x="611" 
d="M446 710h-1q3 -62 -36 -97.5t-100 -35.5q-62 0 -101 35t-37 98h67q0 -30 17.5 -50t53.5 -20q35 0 52.5 20t17.5 50h67zM501 421v-1q64 -72 64 -160q0 -69 -36.5 -124t-105.5 -77q70 -20 104.5 -62.5t34.5 -98.5q0 -91 -76 -142t-182 -51q-114 0 -184.5 56.5t-68.5 154.5
h81q-1 -62 49.5 -96.5t123.5 -35.5q71 0 122.5 29t51.5 85q0 57 -49.5 88t-123.5 31q-118 0 -189.5 65t-71.5 179q0 115 78.5 180t182.5 65q87 0 140 -37l53 64l58 -46zM126 261l2 -1q0 -81 50.5 -125t128.5 -44t128 48.5t50 120.5q0 80 -52 124.5t-127 44.5
q-73 0 -126.5 -43.5t-53.5 -124.5z" />
    <glyph glyph-name="Gdotaccent" unicode="&#x120;" horiz-adv-x="734" 
d="M350 827q0 34 29 48t58 0t29 -48q0 -33 -29 -46.5t-58 0t-29 46.5zM413 711q145 0 246 -83q0 -44 -2 -146h-78l-2 106q-70 42 -164 42q-129 0 -203 -82.5t-74 -202.5q0 -115 72 -195t207 -80q107 0 181 71v145h-218v75h295v-254q-97 -119 -259 -119q-177 0 -270.5 102.5
t-93.5 254.5q-1 160 97.5 263t265.5 103z" />
    <glyph glyph-name="gdotaccent" unicode="&#x121;" horiz-adv-x="612" 
d="M261 658q0 32 28 45.5t56 0t28 -45.5q0 -33 -28 -46t-56 0t-28 46zM449 470l-2 2q-53 37 -140 37q-105 0 -183.5 -65t-78.5 -180q0 -114 71.5 -179t189.5 -65q74 0 123.5 -31t49.5 -88q0 -56 -52 -87t-122 -31q-71 0 -123 36.5t-51 97.5h-79q-1 -97 69.5 -153.5
t185.5 -56.5q106 0 182 51t76 142q0 56 -34.5 98.5t-104.5 62.5q69 22 104 77.5t35 124.5q0 90 -61 159l56 65l-58 46zM306 433q74 0 126 -44.5t52 -124.5q0 -71 -50 -119.5t-128 -48.5q-79 0 -129.5 44t-50.5 124q0 81 53.5 125t126.5 44z" />
    <glyph glyph-name="Gcommaaccent" unicode="&#x122;" horiz-adv-x="734" 
d="M389 -173l1 1q-38 7 -38 44q0 33 27 46t53.5 -0.5t26.5 -46.5q0 -8 -16.5 -51.5t-27.5 -65.5h-55zM413 711q145 0 246 -83q0 -44 -2 -146h-78l-2 106q-70 42 -164 42q-129 0 -203 -82.5t-74 -202.5q0 -115 72 -195t207 -80q107 0 181 71v145h-218v75h295v-254
q-97 -119 -259 -119q-177 0 -270.5 102.5t-93.5 254.5q-1 160 97.5 263t265.5 103z" />
    <glyph glyph-name="gcommaaccent" unicode="&#x123;" horiz-adv-x="612" 
d="M334 674l-1 -1q38 -7 38 -44q0 -33 -26.5 -46t-53.5 1t-27 47q0 8 16.5 51.5t27.5 65.5h55zM557 486v-1l-56 -66q64 -72 64 -160q0 -69 -36.5 -124t-105.5 -77q70 -20 104.5 -62.5t34.5 -98.5q0 -91 -76 -142t-182 -51q-114 0 -184.5 56.5t-68.5 154.5h81
q-1 -62 49.5 -96.5t123.5 -35.5q71 0 122.5 29t51.5 85q0 57 -49.5 88t-123.5 31q-118 0 -189.5 65t-71.5 179q0 115 78.5 180t182.5 65q87 0 140 -37l53 64zM126 260l2 -1q0 -81 50.5 -125t128.5 -44t128 48.5t50 120.5q0 80 -52 124.5t-127 44.5q-73 0 -126.5 -43.5
t-53.5 -124.5z" />
    <glyph glyph-name="Hcircumflex" unicode="&#x124;" horiz-adv-x="836" 
d="M387 911h52l142 -133v-7h-84l-84 78l-84 -78h-84v7zM784 0h-256v80h83v239h-386v-239h83v-80h-256v80h87v540h-87v80h256v-80h-83v-223h386v223h-83v80h256v-80h-86v-540h86v-80z" />
    <glyph glyph-name="hcircumflex" unicode="&#x125;" horiz-adv-x="662" 
d="M231 902h50l140 -130v-6h-87l-79 73l-79 -73h-85v6zM190 701v-289q58 88 171 88q101 0 154 -61.5t53 -166.5v-200h82v-72h-230v72h67v198q0 74 -36 113.5t-103 39.5q-68 0 -112.5 -46t-44.5 -115v-190h79v-72h-245v72h84v557h-81v72h162z" />
    <glyph glyph-name="Hbar" unicode="&#x126;" horiz-adv-x="840" 
d="M785 0h-256v80h83v239h-386v-239h83v-80h-256v80h87v401h-81v60h81v79h-87v80h256v-80h-83v-79h386v79h-83v80h256v-80h-86v-79h79v-60h-79v-401h86v-80zM226 397h386v84h-386v-84z" />
    <glyph glyph-name="hbar" unicode="&#x127;" horiz-adv-x="662" 
d="M190 701v-119h94v-56h-94v-114q58 88 171 88q101 0 154 -61.5t53 -166.5v-200h82v-72h-230v72h67v198q0 74 -36 113.5t-103 39.5q-68 0 -112.5 -46t-44.5 -115v-190h79v-72h-245v72h84v453h-63v56h63v48h-81v72h162z" />
    <glyph glyph-name="Itilde" unicode="&#x128;" horiz-adv-x="368" 
d="M51 788l-2 2q11 44 43 64t72 5q5 -1 27 -12.5t27 -12.5q38 -15 52 26l52 -23q-11 -49 -43 -67t-69 -4q-6 2 -27 14t-25 13q-40 15 -57 -29zM317 0h-266v80h89v540h-87v80h262v-80h-88v-540h90v-80z" />
    <glyph glyph-name="itilde" unicode="&#x129;" horiz-adv-x="311" 
d="M79 607l-54 20q9 46 41 65.5t67 4.5q7 -3 21.5 -13.5t18.5 -11.5q38 -17 49 27l49 -24q-10 -51 -40 -68t-62 -1l-40 24q-37 21 -50 -23zM40 496h162v-422h80v-74h-244v74h82v349h-80v73z" />
    <glyph glyph-name="Imacron" unicode="&#x12a;" horiz-adv-x="368" 
d="M65 830h241v-69h-241v69zM317 0h-266v80h89v540h-87v80h262v-80h-88v-540h90v-80z" />
    <glyph glyph-name="imacron" unicode="&#x12b;" horiz-adv-x="311" 
d="M55 677h206v-69h-206v69zM40 496h162v-422h80v-74h-244v74h82v349h-80v73z" />
    <glyph glyph-name="Ibreve" unicode="&#x12c;" horiz-adv-x="368" 
d="M314 875h-1q4 -62 -30.5 -92.5t-99.5 -30.5q-61 0 -97.5 32.5t-32.5 91.5h65q0 -63 66 -63t66 62h64zM317 0h-266v80h89v540h-87v80h262v-80h-88v-540h90v-80z" />
    <glyph glyph-name="ibreve" unicode="&#x12d;" horiz-adv-x="311" 
d="M280 700h1q2 -59 -33 -93t-89 -34q-55 0 -89.5 34t-32.5 93h64q0 -61 58 -61q57 0 57 61h64zM40 496h162v-422h80v-74h-244v74h82v349h-80v73z" />
    <glyph glyph-name="Iogonek" unicode="&#x12e;" horiz-adv-x="368" 
d="M317 0q-57 -2 -91 -22t-41.5 -42t-0.5 -41q8 -25 48 -25t80 31l17 -61q-38 -24 -82.5 -33t-84 6.5t-52.5 57.5q-10 32 7.5 73.5t51.5 55.5h-118v80h89v540h-87v80h262v-80h-88v-540h90v-80z" />
    <glyph glyph-name="iogonek" unicode="&#x12f;" horiz-adv-x="312" 
d="M108 645q0 34 27 47.5t54 -0.5t27 -48t-27 -47.5t-54 0.5t-27 48zM126 0h-88v74h82v349h-80v73h162v-422h80v-74h-13q-77 -3 -106 -38.5t-17 -68.5q11 -27 49.5 -27.5t78.5 29.5l17 -60q-37 -24 -82 -32.5t-84.5 7t-52.5 56.5q-10 33 5 77t49 57z" />
    <glyph glyph-name="Idotaccent" unicode="&#x130;" horiz-adv-x="368" 
d="M125 814q0 34 29 48.5t58 0t29 -49.5q0 -21 -12 -35t-29 -17.5t-34 0t-29 18t-12 35.5zM317 0h-266v80h89v540h-87v80h262v-80h-88v-540h90v-80z" />
    <glyph glyph-name="dotlessi" unicode="&#x131;" horiz-adv-x="311" 
d="M40 496h162v-422h80v-74h-244v74h82v349h-80v73z" />
    <glyph glyph-name="IJ" unicode="&#x132;" horiz-adv-x="1041" 
d="M317 0h-266v80h89v540h-87v80h262v-80h-88v-540h90v-80zM947 280q2 -132 -76 -212t-209 -80q-126 0 -200.5 78t-74.5 210h87q0 -97 48 -151.5t140 -54.5q93 0 146 56.5t53 153.5v340h-233v80h319v-420z" />
    <glyph glyph-name="ij" unicode="&#x133;" horiz-adv-x="583" 
d="M108 645q0 34 27 47.5t54 -0.5t27 -48t-27 -47.5t-54 0.5t-27 48zM40 496h162v-422h80v-74h-244v74h82v349h-80v73zM410 648q0 34 27 47.5t54 -0.5t27 -48t-27 -47.5t-54 0.5t-27 48zM334 494h170v-557q0 -89 -33.5 -135t-112.5 -46q-53 0 -98 27l27 66q34 -17 67 -17
q42 1 55.5 26.5t13.5 78.5v484h-89v73z" />
    <glyph glyph-name="Jcircumflex" unicode="&#x134;" horiz-adv-x="697" 
d="M234 781l142 133h52l142 -133v-6h-84l-84 77l-84 -77h-84v6zM603 280l3 -1q0 -132 -80.5 -212t-211.5 -80q-128 0 -209 78.5t-81 210.5h86q0 -95 55 -150t148 -55q94 0 148 56.5t54 152.5v339h-243v81h331v-420z" />
    <glyph glyph-name="jcircumflex" unicode="&#x135;" horiz-adv-x="272" 
d="M-10 573l120 134h44l120 -134v-6h-77l-65 74l-65 -74h-77v6zM23 494h170v-557q0 -89 -33.5 -135t-112.5 -46q-53 0 -98 27l27 66q34 -17 67 -17q42 1 55.5 26.5t13.5 78.5v484h-89v73z" />
    <glyph glyph-name="Kcommaaccent" unicode="&#x136;" horiz-adv-x="721" 
d="M351 -232l32 75q-39 7 -39 47q0 34 28 48t56.5 -0.5t28.5 -48.5q0 -13 -16.5 -54.5t-31.5 -66.5h-58zM319 0h-267v79h87v541h-87v80h248v-80h-75v-267l284 267h-79v80h258v-80h-69l-247 -239l225 -302h109v-79h-212v74l-185 251l-84 -78v-168h94v-79z" />
    <glyph glyph-name="kcommaaccent" unicode="&#x137;" horiz-adv-x="570" 
d="M267 -222l30 72q-17 3 -27.5 15t-10.5 29q0 32 26.5 45t53.5 -0.5t27 -45.5q0 -14 -15 -52t-29 -63h-55zM189 193v-119h71v-74h-233v74h81v552h-80v74h161v-424l104 93l70 57l-64 2v67h232v-69h-61l-165 -138l158 -214h84v-74h-166v49l-137 189z" />
    <glyph glyph-name="kgreenlandic" unicode="&#x138;" horiz-adv-x="582" 
d="M201 193v-119h71v-74h-233v74h81v349h-80v74h161v-221l104 93l70 57l-64 2v67h232v-69h-61l-165 -138l158 -214h84v-74h-166v49l-137 189z" />
    <glyph glyph-name="Lacute" unicode="&#x139;" horiz-adv-x="635" 
d="M135 760l73 123h98v-3l-97 -125h-74v5zM225 80h300l3 108h78v-188h-551v79h83v541h-87v80h257v-80h-83v-540z" />
    <glyph glyph-name="lacute" unicode="&#x13a;" horiz-adv-x="302" 
d="M97 766l69 117h94v-3l-92 -119h-71v5zM192 700v-626h80v-74h-245v74h84v553h-81v73h162z" />
    <glyph glyph-name="Lcommaaccent" unicode="&#x13b;" horiz-adv-x="635" 
d="M318 -165l2 1q-38 7 -38 44q0 33 27 46t53.5 -0.5t26.5 -46.5q0 -8 -16.5 -52t-28.5 -65h-55zM225 80h300l3 108h78v-188h-551v79h83v541h-87v80h257v-80h-83v-540z" />
    <glyph glyph-name="lcommaaccent" unicode="&#x13c;" horiz-adv-x="302" 
d="M132 -155v-1q-36 7 -36 44q0 19 11 32t26 16t30.5 -0.5t26.5 -17t11 -32.5q0 -8 -16 -50t-28 -63h-53zM192 700v-626h80v-74h-245v74h84v553h-81v73h162z" />
    <glyph glyph-name="Lcaron" unicode="&#x13d;" horiz-adv-x="635" 
d="M447 699h89l-56 -155h-68zM225 80h300l3 108h78v-188h-551v79h83v541h-87v80h257v-80h-83v-540z" />
    <glyph glyph-name="lcaron" unicode="&#x13e;" horiz-adv-x="302" 
d="M261 701h81l-49 -147h-62zM192 700v-626h80v-74h-245v74h84v553h-81v73h162z" />
    <glyph glyph-name="Ldot" unicode="&#x13f;" horiz-adv-x="635" 
d="M337 336q0 35 28 49.5t56 0t28 -49.5t-28 -49.5t-56 0t-28 49.5zM225 80h300l3 108h78v-188h-551v79h83v541h-87v80h257v-80h-83v-540z" />
    <glyph glyph-name="ldot" unicode="&#x140;" horiz-adv-x="319" 
d="M246 333q0 35 28 49.5t56 0t28 -49.5t-28 -49.5t-56 0t-28 49.5zM192 700v-626h80v-74h-245v74h84v553h-81v73h162z" />
    <glyph glyph-name="Lslash" unicode="&#x141;" horiz-adv-x="637" 
d="M227 80h300l3 108h78v-188h-551v79h83v208l-75 -31v71l75 32v261h-87v80h257v-80h-83v-224l103 44v-73l-103 -43v-244z" />
    <glyph glyph-name="lslash" unicode="&#x142;" horiz-adv-x="304" 
d="M193 700v-315l80 35v-69l-80 -35v-242h80v-74h-245v74h84v208l-70 -30v67l70 30v278h-81v73h162z" />
    <glyph glyph-name="Nacute" unicode="&#x143;" horiz-adv-x="843" 
d="M368 774l67 123h102v-2l-93 -126h-76v5zM224 79v455l430 -534h60v620h84v80h-257v-80h87v-457l-429 537h-149v-80h87v-541h-84v-79h258v79h-87z" />
    <glyph glyph-name="nacute" unicode="&#x144;" horiz-adv-x="678" 
d="M323 580l70 120h95v-3l-95 -121h-70v4zM283 0h-245v74h84v348h-82v73h156l5 -78q63 86 165 86q107 0 161.5 -59.5t54.5 -170.5v-199h84v-74h-238v74h72v198q0 80 -33 117t-108 37q-68 0 -112 -44t-44 -116v-192h80v-74z" />
    <glyph glyph-name="Ncommaaccent" unicode="&#x145;" horiz-adv-x="843" 
d="M426 -154l2 1q-41 7 -41 46q0 34 29 48t58 -0.5t29 -48.5q0 -9 -18 -55t-31 -67h-59zM224 534v-455h87v-79h-258v79h84v541h-87v80h149l429 -537v457h-87v80h257v-80h-84v-620h-60z" />
    <glyph glyph-name="ncommaaccent" unicode="&#x146;" horiz-adv-x="678" 
d="M344 -152h1q-36 7 -36 41q0 32 26 45t52 -0.5t26 -44.5q0 -8 -16 -49.5t-27 -62.5h-54zM283 0h-245v74h84v348h-82v73h156l5 -78q63 86 165 86q107 0 161.5 -59.5t54.5 -170.5v-199h84v-74h-238v74h72v198q0 80 -33 117t-108 37q-68 0 -112 -44t-44 -116v-192h80v-74z
" />
    <glyph glyph-name="Ncaron" unicode="&#x147;" horiz-adv-x="843" 
d="M237 886v7h86l83 -76l86 76h84v-7l-145 -132h-51zM224 79v455l430 -534h60v620h84v80h-257v-80h87v-457l-429 537h-149v-80h87v-541h-84v-79h258v79h-87z" />
    <glyph glyph-name="ncaron" unicode="&#x148;" horiz-adv-x="678" 
d="M190 695v6h81l81 -71l84 71h81v-6l-140 -124h-51zM283 0h-245v74h84v348h-82v73h156l5 -78q63 86 165 86q107 0 161.5 -59.5t54.5 -170.5v-199h84v-74h-238v74h72v198q0 80 -33 117t-108 37q-68 0 -112 -44t-44 -116v-192h80v-74z" />
    <glyph glyph-name="napostrophe" unicode="&#x149;" horiz-adv-x="678" 
d="M283 0h-245v74h84v348h-82v73h156l5 -78q63 86 165 86q107 0 161.5 -59.5t54.5 -170.5v-199h84v-74h-238v74h72v198q0 80 -33 117t-108 37q-68 0 -112 -44t-44 -116v-192h80v-74z" />
    <glyph glyph-name="Eng" unicode="&#x14a;" horiz-adv-x="843" 
d="M224 534v-455h87v-79h-258v79h84v541h-87v80h149l429 -537v457h-87v80h257v-80h-84v-645q2 -181 -146 -181q-47 0 -96 28l28 66q34 -18 65 -17q42 1 55.5 26.5t13.5 77.5v50z" />
    <glyph glyph-name="eng" unicode="&#x14b;" horiz-adv-x="655" 
d="M588 -15q1 -88 -32.5 -132t-113.5 -44q-46 0 -93 28l27 66q34 -18 62 -17q42 1 54.5 24t12.5 75v287q0 154 -149 154q-67 -1 -110 -47t-43 -113v-192h80v-74h-245v74h84v347h-82v73h157l4 -77q64 86 169 86t161.5 -62t56.5 -168v-288z" />
    <glyph glyph-name="Omacron" unicode="&#x14c;" horiz-adv-x="809" 
d="M237 867h334v-71h-334v71zM406 712q168 -1 261.5 -108t92.5 -256q0 -70 -22.5 -134t-65 -115.5t-111.5 -82t-156 -30.5t-156.5 30.5t-112 82t-65 115t-22.5 134.5q0 156 97.5 260t259.5 104zM673 347l1 1q1 74 -27 136.5t-90.5 104.5t-149.5 43q-128 0 -200 -82t-70 -202
q2 -115 71 -197t198 -82t198 82t69 196z" />
    <glyph glyph-name="omacron" unicode="&#x14d;" horiz-adv-x="594" 
d="M143 689h307v-69h-307v69zM44 246q0 112 71.5 184.5t181.5 72.5t182 -72.5t72 -184.5t-71 -183.5t-183 -71.5q-111 0 -182 71.5t-71 183.5zM469 246h1q0 78 -49 130t-123 52q-75 0 -123.5 -51.5t-48.5 -130.5q0 -78 47.5 -128t123.5 -50t124 50t48 128z" />
    <glyph glyph-name="Obreve" unicode="&#x14e;" horiz-adv-x="809" 
d="M542 908v1q3 -60 -36.5 -94t-102.5 -34t-102.5 33.5t-36.5 93.5h68q0 -29 17.5 -47.5t53.5 -18.5q35 0 53 19t18 47h68zM406 713q168 -1 261.5 -108t92.5 -256q0 -70 -22.5 -134t-65 -115.5t-111.5 -82t-156 -30.5t-156.5 30.5t-112 82t-65 115t-22.5 134.5
q0 156 97.5 260t259.5 104zM673 348l1 1q1 74 -27 136.5t-90.5 104.5t-149.5 43q-128 0 -200 -82t-70 -202q2 -115 71 -197t198 -82t198 82t69 196z" />
    <glyph glyph-name="obreve" unicode="&#x14f;" horiz-adv-x="594" 
d="M434 702v-1q3 -62 -36 -96.5t-101 -33.5q-62 0 -100.5 34.5t-35.5 96.5h66q0 -30 17.5 -49.5t53.5 -19.5q35 0 52 19.5t17 49.5h67zM44 245q0 112 71.5 184.5t181.5 72.5t182 -72.5t72 -184.5t-71 -183.5t-183 -71.5q-111 0 -182 71.5t-71 183.5zM469 245h1q0 78 -49 130
t-123 52q-75 0 -123.5 -51.5t-48.5 -130.5q0 -78 47.5 -128t123.5 -50t124 50t48 128z" />
    <glyph glyph-name="Ohungarumlaut" unicode="&#x150;" horiz-adv-x="809" 
d="M279 783l77 120h91l-97 -120h-71zM505 903h92l-99 -121h-70zM49 348q0 156 97.5 260t259.5 104q168 -1 261.5 -108t92.5 -256q0 -70 -22.5 -134t-65 -115.5t-111.5 -82t-156 -30.5t-156.5 30.5t-112 82t-65 115t-22.5 134.5zM673 347l1 1q1 74 -27 136.5t-90.5 104.5
t-149.5 43q-128 0 -200 -82t-70 -202q2 -115 71 -197t198 -82t198 82t69 196z" />
    <glyph glyph-name="ohungarumlaut" unicode="&#x151;" horiz-adv-x="594" 
d="M248 695h88v-2l-94 -106h-69zM393 694h88v-1l-96 -106h-67zM550 246h1q0 112 -72 184.5t-182 72.5t-181.5 -72.5t-71.5 -184.5t71 -183.5t182 -71.5t182 71.5t71 183.5zM126 246h1q0 79 48.5 130.5t123.5 51.5q73 0 122 -52t49 -130t-48 -128t-124 -50t-124 50t-48 128z
" />
    <glyph glyph-name="OE" unicode="&#x152;" horiz-adv-x="996" 
d="M495 0v-1q-47 -10 -90 -10q-170 0 -262.5 103.5t-92.5 258.5q0 101 38.5 180.5t120 128.5t196.5 49q37 0 91 -9h435v-186h-77l-4 108h-275v-225h276v-79h-276v-236h290l3 107h78v-189h-451zM495 624q-39 13 -90 13q-128 0 -197.5 -82t-69.5 -205q1 -117 71.5 -201.5
t197.5 -84.5q49 0 88 12v548z" />
    <glyph glyph-name="oe" unicode="&#x153;" horiz-adv-x="995" 
d="M927 79h-1q-36 -43 -93 -65.5t-118 -22.5q-72 0 -128.5 33.5t-83.5 92.5q-63 -125 -207 -125q-111 0 -182 71.5t-71 183.5t71.5 185t181.5 73q71 0 126 -33.5t83 -93.5q25 57 80.5 92t125.5 35q120 0 189 -74t55 -215q-331 0 -412 -1q7 -68 54.5 -108t119.5 -40
q44 0 87.5 16.5t67.5 45.5zM878 284v-1q-3 71 -47 109.5t-118 38.5q-66 0 -113.5 -39t-57.5 -108h336zM125 245h1q0 -78 47.5 -128t123.5 -50t123.5 50t47.5 128t-48.5 130t-122.5 52q-75 0 -123.5 -51.5t-48.5 -130.5z" />
    <glyph glyph-name="Racute" unicode="&#x154;" horiz-adv-x="750" 
d="M312 771l73 124h99v-3l-98 -126h-74v5zM227 81v187h139l153 -194v-74h194v81h-95l-154 189q101 5 160.5 62t59.5 156q-1 102 -66 157t-171 55h-394v-80h87v-539h-86v-81h272v81h-99zM446 343h-219v277h220q68 0 109 -36t41 -99q-1 -66 -38.5 -104t-112.5 -38z" />
    <glyph glyph-name="racute" unicode="&#x155;" horiz-adv-x="479" 
d="M219 584l68 116h93v-3l-92 -117h-69v4zM40 495h152l9 -67q45 76 154 76q62 0 117 -37l-37 -70q-43 27 -86 27q-71 -2 -108.5 -40t-37.5 -108v-204h80v-72h-245v72h83v350h-81v73z" />
    <glyph glyph-name="Rcommaaccent" unicode="&#x156;" horiz-adv-x="750" 
d="M396 -152l2 1q-41 7 -41 44q0 33 28.5 46.5t57.5 -0.5t29 -47q0 -9 -18 -53t-30 -65h-59zM227 268v-187h99v-81h-272v81h86v539h-87v80h394q106 0 171 -55t66 -157q0 -99 -59.5 -156t-160.5 -62l154 -189h95v-81h-194v74l-153 194h-139zM227 343h219q75 0 112.5 38
t38.5 104q0 63 -41 99t-109 36h-220v-277z" />
    <glyph glyph-name="rcommaaccent" unicode="&#x157;" horiz-adv-x="479" 
d="M148 -150q-35 7 -35 42q0 19 10.5 31.5t25.5 15.5t29.5 -0.5t25 -16t10.5 -31.5q0 -8 -15.5 -49t-26.5 -61h-51zM40 495h152l9 -67q45 76 154 76q62 0 117 -37l-37 -70q-43 27 -86 27q-71 -2 -108.5 -40t-37.5 -108v-204h80v-72h-245v72h83v350h-81v73z" />
    <glyph glyph-name="Rcaron" unicode="&#x158;" horiz-adv-x="750" 
d="M193 891v6h87l82 -74l84 74h84v-6l-143 -130h-52zM227 81v187h139l153 -194v-74h194v81h-95l-154 189q101 5 160.5 62t59.5 156q-1 102 -66 157t-171 55h-394v-80h87v-539h-86v-81h272v81h-99zM446 343h-219v277h220q68 0 109 -36t41 -99q-1 -66 -38.5 -104t-112.5 -38z
" />
    <glyph glyph-name="rcaron" unicode="&#x159;" horiz-adv-x="479" 
d="M296 569h-49l-132 127v6h82l75 -69l78 69h80v-6zM40 495h152l9 -67q45 76 154 76q62 0 117 -37l-37 -70q-43 27 -86 27q-71 -2 -108.5 -40t-37.5 -108v-204h80v-72h-245v72h83v350h-81v73z" />
    <glyph glyph-name="Sacute" unicode="&#x15a;" horiz-adv-x="656" 
d="M282 787l74 127h101v-3l-100 -129h-75v5zM323 714q153 0 250 -80q0 -26 -0.5 -70t-0.5 -69h-77l-4 101q-66 41 -166 41q-73 0 -126 -30t-53 -89q0 -37 27 -61.5t62.5 -35t94.5 -20.5q51 -8 85 -15t75.5 -22.5t65.5 -36t41 -54.5t17 -78q0 -58 -26 -101t-70 -65.5
t-92 -32.5t-102 -10q-158 0 -264 95v139h79l4 -98q77 -55 182 -55q36 0 68.5 5.5t64 19t50.5 40t19 63.5q0 23 -9 41.5t-29 31.5t-37 21.5t-46.5 15.5t-44 9.5t-41.5 6.5q-46 7 -79 15t-69.5 23t-59 35t-37.5 52t-15 74q-1 68 41 114t99 63t123 17z" />
    <glyph glyph-name="sacute" unicode="&#x15b;" horiz-adv-x="511" 
d="M210 578l68 117h93v-2l-92 -119h-69v4zM255 509q105 0 188 -44l-2 -121h-70l-4 74q-39 21 -111 21q-54 1 -89 -20t-34 -59q1 -34 34 -49t90 -21q37 -5 58.5 -8.5t55 -14.5t52 -26t33 -41.5t13.5 -62.5q-1 -73 -61 -111t-150 -38q-107 0 -208 59l2 123h72l3 -74
q62 -32 133 -32q22 0 41.5 3t40.5 10.5t33.5 23.5t13.5 39q1 38 -34.5 55t-102.5 24q-34 5 -58 9.5t-52.5 15.5t-46.5 25t-30 37.5t-12 53.5q0 50 31.5 85.5t75.5 50t95 13.5z" />
    <glyph glyph-name="Scircumflex" unicode="&#x15c;" horiz-adv-x="656" 
d="M168 789l145 135h52l145 -135v-6h-85l-86 79l-86 -79h-85v6zM323 714q153 0 250 -80q0 -26 -0.5 -70t-0.5 -69h-77l-4 101q-66 41 -166 41q-73 0 -126 -30t-53 -89q0 -37 27 -61.5t62.5 -35t94.5 -20.5q51 -8 85 -15t75.5 -22.5t65.5 -36t41 -54.5t17 -78q0 -58 -26 -101
t-70 -65.5t-92 -32.5t-102 -10q-158 0 -264 95v139h79l4 -98q77 -55 182 -55q36 0 68.5 5.5t64 19t50.5 40t19 63.5q0 23 -9 41.5t-29 31.5t-37 21.5t-46.5 15.5t-44 9.5t-41.5 6.5q-46 7 -79 15t-69.5 23t-59 35t-37.5 52t-15 74q-1 68 41 114t99 63t123 17z" />
    <glyph glyph-name="scircumflex" unicode="&#x15d;" horiz-adv-x="511" 
d="M237 703h50l137 -128v-6h-81l-81 74l-78 -74h-83v6zM255 509q105 0 188 -44l-2 -121h-70l-4 74q-39 21 -111 21q-54 1 -89 -20t-34 -59q1 -34 34 -49t90 -21q37 -5 58.5 -8.5t55 -14.5t52 -26t33 -41.5t13.5 -62.5q-1 -73 -61 -111t-150 -38q-107 0 -208 59l2 123h72
l3 -74q62 -32 133 -32q22 0 41.5 3t40.5 10.5t33.5 23.5t13.5 39q1 38 -34.5 55t-102.5 24q-34 5 -58 9.5t-52.5 15.5t-46.5 25t-30 37.5t-12 53.5q0 50 31.5 85.5t75.5 50t95 13.5z" />
    <glyph glyph-name="Scedilla" unicode="&#x15e;" horiz-adv-x="656" 
d="M323 714q153 0 250 -80q0 -26 -0.5 -70t-0.5 -69h-77l-4 101q-66 41 -166 41q-73 0 -126 -30t-53 -89q0 -37 27 -61.5t62.5 -35t94.5 -20.5q53 -8 85.5 -15t74.5 -22t66 -35.5t41 -54.5t17 -79q-1 -98 -73 -148.5t-177 -58.5l-15 -46l1 -1q60 1 84 -31.5t15 -74.5
q-10 -39 -44 -59.5t-77 -19.5q-80 2 -114 58l40 35q25 -35 75 -35q47 0 56 32q9 29 -20 45.5t-71 1.5l-17 13l26 81q-144 5 -243 94v139h79l4 -98q76 -54 182 -54q36 0 68.5 5.5t64 18.5t50.5 39.5t19 63.5q0 23 -9 41.5t-29 31.5t-37 21.5t-46.5 15.5t-44 9.5t-41.5 6.5
q-46 7 -79 15t-69.5 23t-59 35t-37.5 52t-15 74q-1 68 41 114t99 63t123 17z" />
    <glyph glyph-name="scedilla" unicode="&#x15f;" horiz-adv-x="510" 
d="M254 500q104 0 187 -44l-2 -120h-70l-4 73q-36 18 -110 18q-54 1 -88.5 -18t-33.5 -55q1 -34 33.5 -49t89.5 -21q37 -5 58 -8.5t54.5 -14.5t52 -25.5t33 -41.5t13.5 -62q-1 -66 -55 -104t-135 -42l-11 -37l1 -1q60 2 83 -27t14 -67q-9 -36 -41.5 -54.5t-72.5 -17.5
q-77 2 -109 53l38 31q24 -33 70 -31q44 0 53 29q9 26 -18.5 40.5t-67.5 0.5l-15 11l22 70q-87 7 -173 57l2 122h72l3 -72q57 -30 132 -30q126 0 128 72q1 38 -34.5 55t-101.5 24q-43 6 -72 13t-61 22t-48.5 41.5t-16.5 63.5q0 50 31 84.5t75 48.5t95 13z" />
    <glyph glyph-name="Scaron" unicode="&#x160;" horiz-adv-x="656" 
d="M323 714q153 0 250 -80q0 -26 -0.5 -70t-0.5 -69h-77l-4 101q-66 41 -166 41q-73 0 -126 -30t-53 -89q0 -37 27 -61.5t62.5 -35t94.5 -20.5q51 -8 85 -15t75.5 -22.5t65.5 -36t41 -54.5t17 -78q0 -58 -26 -101t-70 -65.5t-92 -32.5t-102 -10q-158 0 -264 95v139h79l4 -98
q77 -55 182 -55q36 0 68.5 5.5t64 19t50.5 40t19 63.5q0 23 -9 41.5t-29 31.5t-37 21.5t-46.5 15.5t-44 9.5t-41.5 6.5q-46 7 -79 15t-69.5 23t-59 35t-37.5 52t-15 74q-1 68 41 114t99 63t123 17zM163 896v7h87l88 -76l92 76h85v-7l-150 -126h-53z" />
    <glyph glyph-name="scaron" unicode="&#x161;" horiz-adv-x="511" 
d="M255 509q105 0 188 -44l-2 -121h-70l-4 74q-39 21 -111 21q-54 1 -89 -20t-34 -59q1 -34 34 -49t90 -21q37 -5 58.5 -8.5t55 -14.5t52 -26t33 -41.5t13.5 -62.5q-1 -73 -61 -111t-150 -38q-107 0 -208 59l2 123h72l3 -74q62 -32 133 -32q22 0 41.5 3t40.5 10.5t33.5 23.5
t13.5 39q1 38 -34.5 55t-102.5 24q-34 5 -58 9.5t-52.5 15.5t-46.5 25t-30 37.5t-12 53.5q0 50 31.5 85.5t75.5 50t95 13.5zM105 672v7h77l78 -74l81 74h76v-7l-133 -123h-48z" />
    <glyph glyph-name="Tcommaaccent" unicode="&#x162;" horiz-adv-x="642" 
d="M278 622h-166l-3 -108h-77v186h578v-186h-77l-4 108h-165v-542h90v-80h-106l-10 -44q62 6 85.5 -27t12.5 -78q-10 -44 -52 -64.5t-90.5 -13t-79.5 37.5l28 45q23 -28 72.5 -27t58.5 34q8 29 -22.5 46t-71.5 2l-13 12l21 77h-100v80h91v542z" />
    <glyph glyph-name="tcommaaccent" unicode="&#x163;" horiz-adv-x="382" 
d="M109 629l82 9v-145h153v-70h-154v-237q0 -60 15.5 -89t63.5 -29q32 0 69 17l24 -68q-50 -23 -96 -24q-11 0 -16 1l-12 -44q60 2 85 -27t15 -70q-9 -36 -40.5 -56.5t-70.5 -21.5q-36 -2 -70 14t-52 44l39 33q28 -35 71 -37q49 0 59 35q9 26 -19.5 40t-71.5 0l-14 13l25 88
q-47 17 -66 61.5t-19 119.5v237h-99v70h99v136z" />
    <glyph glyph-name="Tcaron" unicode="&#x164;" horiz-adv-x="642" 
d="M152 895v7h85l86 -80l89 80h83v-7l-146 -134h-53zM278 622h-166l-3 -108h-77v186h578v-186h-77l-4 108h-165v-542h90v-80h-267v80h91v542z" />
    <glyph glyph-name="tcaron" unicode="&#x165;" horiz-adv-x="415" 
d="M183 638h-1v-145h110v-70h-110v-261q0 -46 18 -70t61 -24q33 0 69 18l25 -69q-50 -23 -97 -24q-156 -3 -156 169v261h-88v70h88v136zM378 636h78l-59 -166h-61z" />
    <glyph glyph-name="Tbar" unicode="&#x166;" horiz-adv-x="645" 
d="M279 622h-166l-3 -108h-77v186h578v-186h-77l-4 108h-165v-250h131v-71h-131v-221h90v-80h-267v80h91v221h-121v71h121v250z" />
    <glyph glyph-name="tbar" unicode="&#x167;" horiz-adv-x="383" 
d="M35 306h76v117h-99v70h99v136l82 9v-145h153v-70h-154v-117h115v-60h-115v-84q0 -94 78 -94q33 0 69 18l24 -69q-50 -23 -96 -24q-156 -3 -156 169v84h-76v60z" />
    <glyph glyph-name="Utilde" unicode="&#x168;" horiz-adv-x="811" 
d="M259 801l-2 2q11 44 45 63.5t76 5.5q6 -2 28.5 -13t27.5 -12q40 -15 54 26l55 -22q-11 -49 -45.5 -67t-71.5 -4q-6 2 -28.5 13.5t-27.5 12.5q-42 15 -58 -29zM607 620h-91v80h259v-80h-83v-341q0 -139 -81.5 -216t-202.5 -77q-77 0 -141 31.5t-105.5 99.5t-41.5 162v341
h-82v80h259v-80h-91v-341q0 -100 58 -156t144 -56q85 0 142 56.5t57 156.5v340z" />
    <glyph glyph-name="utilde" unicode="&#x169;" horiz-adv-x="666" 
d="M165 629l-1 1q11 43 45 62.5t75 4.5q6 -1 28.5 -12.5t27.5 -12.5q40 -13 54 26l55 -23q-11 -47 -45.5 -64.5t-71.5 -3.5q-5 2 -28 14t-28 13q-42 13 -58 -29zM640 0h-148l-14 79q-63 -84 -172 -86q-107 0 -161.5 60.5t-54.5 168.5v201h-78v72h160v-272q0 -153 150 -153
q68 1 110.5 46.5t42.5 113.5v193h-83v72h165v-421h83v-74z" />
    <glyph glyph-name="Umacron" unicode="&#x16a;" horiz-adv-x="811" 
d="M268 848h277v-70h-277v70zM607 620h-91v80h259v-80h-83v-341q0 -139 -81.5 -216t-202.5 -77q-77 0 -141 31.5t-105.5 99.5t-41.5 162v341h-82v80h259v-80h-91v-341q0 -100 58 -156t144 -56q85 0 142 56.5t57 156.5v340z" />
    <glyph glyph-name="umacron" unicode="&#x16b;" horiz-adv-x="666" 
d="M183 676h266v-68h-266v68zM640 0h-148l-14 79q-63 -84 -172 -86q-107 0 -161.5 60.5t-54.5 168.5v201h-78v72h160v-272q0 -153 150 -153q68 1 110.5 46.5t42.5 113.5v193h-83v72h165v-421h83v-74z" />
    <glyph glyph-name="Ubreve" unicode="&#x16c;" horiz-adv-x="811" 
d="M559 904h-1q3 -63 -38 -97.5t-107 -34.5t-107 34.5t-39 97.5h71q0 -31 18.5 -49.5t56.5 -18.5t56 18.5t18 49.5h72zM607 620h-91v80h259v-80h-83v-341q0 -139 -81.5 -216t-202.5 -77q-77 0 -141 31.5t-105.5 99.5t-41.5 162v341h-82v80h259v-80h-91v-341q0 -100 58 -156
t144 -56q85 0 142 56.5t57 156.5v340z" />
    <glyph glyph-name="ubreve" unicode="&#x16d;" horiz-adv-x="666" 
d="M440 697l-1 -1q3 -60 -36 -94t-99 -34q-61 0 -99.5 34.5t-35.5 94.5h66q0 -29 17.5 -48.5t52.5 -19.5t52 19.5t17 48.5h66zM640 0h-148l-14 79q-63 -84 -172 -86q-107 0 -161.5 60.5t-54.5 168.5v201h-78v72h160v-272q0 -153 150 -153q68 1 110.5 46.5t42.5 113.5v193
h-83v72h165v-421h83v-74z" />
    <glyph glyph-name="Uring" unicode="&#x16e;" horiz-adv-x="811" 
d="M292 835v-1q0 45 34 71t81 26t81 -25.5t34 -71.5q0 -45 -33.5 -71t-81.5 -26q-49 0 -82 26t-33 72zM406 884h1q-36 0 -51 -25t0 -49.5t50 -24.5q37 0 52 24.5t-0.5 49.5t-51.5 25zM607 620h-91v80h259v-80h-83v-341q0 -139 -81.5 -216t-202.5 -77q-77 0 -141 31.5
t-105.5 99.5t-41.5 162v341h-82v80h259v-80h-91v-341q0 -100 58 -156t144 -56q85 0 142 56.5t57 156.5v340z" />
    <glyph glyph-name="uring" unicode="&#x16f;" horiz-adv-x="666" 
d="M190 641h-1q0 45 33 71t78 26t78.5 -26t33.5 -71t-32.5 -70.5t-79.5 -25.5t-78.5 25.5t-31.5 70.5zM298 691h1q-34 0 -48.5 -24.5t0 -48.5t48.5 -24q22 0 36.5 10t17.5 24t-0.5 28.5t-18.5 24.5t-36 10zM640 0h-148l-14 79q-63 -84 -172 -86q-107 0 -161.5 60.5
t-54.5 168.5v201h-78v72h160v-272q0 -153 150 -153q68 1 110.5 46.5t42.5 113.5v193h-83v72h165v-421h83v-74z" />
    <glyph glyph-name="Uhungarumlaut" unicode="&#x170;" horiz-adv-x="811" 
d="M354 894h89l-97 -121h-69zM501 893h90l-98 -120h-68zM607 620h-91v80h259v-80h-83v-341q0 -139 -81.5 -216t-202.5 -77q-77 0 -141 31.5t-105.5 99.5t-41.5 162v341h-82v80h259v-80h-91v-341q0 -100 58 -156t144 -56q85 0 142 56.5t57 156.5v340z" />
    <glyph glyph-name="uhungarumlaut" unicode="&#x171;" horiz-adv-x="666" 
d="M261 701h86v-2l-92 -112h-66zM402 701h86v-2l-93 -113h-66zM640 0h-148l-14 79q-63 -84 -172 -86q-107 0 -161.5 60.5t-54.5 168.5v201h-78v72h160v-272q0 -153 150 -153q68 1 110.5 46.5t42.5 113.5v193h-83v72h165v-421h83v-74z" />
    <glyph glyph-name="Uogonek" unicode="&#x172;" horiz-adv-x="812" 
d="M607 620h-91v80h259v-80h-83v-341q0 -101 -44.5 -170t-119.5 -100q-30 -22 -39 -50.5t2 -43.5q12 -26 47 -28t81 28l17 -62q-30 -25 -74.5 -33.5t-86.5 8t-58 57.5q-9 22 -4 51t22 51q-5 0 -14 -0.5t-13 -0.5q-77 0 -141 31.5t-105.5 99.5t-41.5 162v341h-82v80h259v-80
h-91v-341q0 -100 58 -156t144 -56q85 0 142 56.5t57 156.5v340z" />
    <glyph glyph-name="uogonek" unicode="&#x173;" horiz-adv-x="666" 
d="M640 0h-66q-26 -23 -37 -49.5t-2 -45.5q13 -26 45 -30.5t74 18.5l15 -54q-24 -14 -53.5 -20t-58 -4t-52 18t-34.5 44q-24 59 41 123h-10l-20 79q-63 -84 -176 -86q-107 0 -161.5 60.5t-54.5 168.5v201h-78v72h160v-272q0 -153 150 -153q68 1 110.5 46.5t42.5 113.5v193
h-83v72h165v-421h83v-74z" />
    <glyph glyph-name="Wcircumflex" unicode="&#x174;" horiz-adv-x="1148" 
d="M395 771l149 133h54l149 -133v-7h-89l-88 78l-86 -78h-89v7zM88 620h-74v80h254v-80h-82l167 -500l194 566h56l196 -566l164 500h-83v80h254v-80h-73l-219 -621h-85l-183 507l-180 -507h-89z" />
    <glyph glyph-name="wcircumflex" unicode="&#x175;" horiz-adv-x="906" 
d="M283 576l143 128h52l142 -128v-6h-84l-84 76l-84 -76h-85v6zM18 423v72h227v-72h-65l109 -338l132 410h66l132 -410l108 338h-71v72h231v-72h-72l-148 -425h-93l-68 187l-52 179l-54 -179l-67 -187h-93l-148 425h-74z" />
    <glyph glyph-name="Ycircumflex" unicode="&#x176;" horiz-adv-x="711" 
d="M191 783l144 129h52l144 -129v-6h-86l-84 76l-84 -76h-86v6zM274 620h-80l68 -105l93 -148l98 151l67 102h-80v80h255v-80h-71l-225 -336v-205h90v-79h-268v79h90v205l-221 336h-71v80h255v-80z" />
    <glyph glyph-name="ycircumflex" unicode="&#x177;" horiz-adv-x="610" 
d="M142 578l141 129h51l141 -129v-6h-85l-82 75l-82 -75h-84v6zM16 495v-73h70l177 -416l-46 -119q-35 -74 -128 -22l-31 -68q72 -44 138 -28.5t99 94.5l231 559h65v73h-232v-73h77l-74 -187l-51 -140l-53 142l-81 186h64v72h-225z" />
    <glyph glyph-name="Ydieresis" unicode="&#x178;" horiz-adv-x="711" 
d="M164 805q0 33 27 47t53.5 0.5t26.5 -46.5t-26.5 -46.5t-53.5 -0.5t-27 46zM443 805q0 25 16.5 39.5t37 14.5t37 -14.5t16.5 -39.5q0 -33 -26.5 -46.5t-53.5 0t-27 46.5zM274 620h-80l68 -105l93 -148l98 151l67 102h-80v80h255v-80h-71l-225 -336v-205h90v-79h-268v79h90
v205l-221 336h-71v80h255v-80z" />
    <glyph glyph-name="Zacute" unicode="&#x179;" horiz-adv-x="616" 
d="M262 775l74 127h101v-3l-100 -129h-75v5zM146 619l-2 -102h-81v183h490v-38l-392 -579h326l3 114h79v-197h-532v46l387 573h-278z" />
    <glyph glyph-name="zacute" unicode="&#x17a;" horiz-adv-x="493" 
d="M196 579v5l71 116h97v-3l-96 -118h-72zM53 495h382v-45l-272 -373h207l4 88h73v-165h-409v31l281 389h-191l-2 -73h-73v148z" />
    <glyph glyph-name="Zdotaccent" unicode="&#x17b;" horiz-adv-x="616" 
d="M260 828q0 34 28 48.5t56.5 0t28.5 -48.5t-28.5 -48.5t-56.5 0t-28 48.5zM146 619l-2 -102h-81v183h490v-38l-392 -579h326l3 114h79v-197h-532v46l387 573h-278z" />
    <glyph glyph-name="zdotaccent" unicode="&#x17c;" horiz-adv-x="493" 
d="M307 634q0 -34 -27 -47.5t-54 0t-27 47.5t27 47.5t54 0t27 -47.5zM53 495h382v-45l-272 -373h207l4 88h73v-165h-409v31l281 389h-191l-2 -73h-73v148z" />
    <glyph glyph-name="Zcaron" unicode="&#x17d;" horiz-adv-x="616" 
d="M146 619l-2 -102h-81v183h490v-38l-392 -579h326l3 114h79v-197h-532v46l387 573h-278zM138 887v6h87l87 -77l90 77h84v-6l-148 -130h-52z" />
    <glyph glyph-name="zcaron" unicode="&#x17e;" horiz-adv-x="493" 
d="M53 495h382v-45l-272 -373h207l4 88h73v-165h-409v31l281 389h-191l-2 -73h-73v148zM86 681v7h81l82 -77l85 77h80v-7l-140 -127h-50z" />
    <glyph glyph-name="longs" unicode="&#x17f;" horiz-adv-x="330" 
d="M368 692l-22 -68q-25 11 -50 11q-41 0 -64.5 -27t-23.5 -80v-455h97v-72h-259v72h81v347h-97v69h97v39q0 85 44 131.5t124 46.5q37 0 73 -14z" />
    <glyph glyph-name="florin" unicode="&#x192;" horiz-adv-x="435" 
d="M139 417l1 -1h-97v72h97v39q0 85 44 132t122 47q59 0 112 -36l-34 -61q-42 25 -76 25q-87 0 -87 -107v-39h155v-72h-155v-418q0 -86 -40.5 -133t-117.5 -47q-51 0 -103 35l33 60q32 -24 66 -24q80 0 80 110v418z" />
    <glyph glyph-name="Aringacute" unicode="&#x1fa;" horiz-adv-x="809" 
d="M360 859l78 85h107v-3l-106 -86h-79v4zM404 786q34 0 48.5 -21t0.5 -42t-49 -21q-34 0 -47.5 21t0 42t47.5 21zM347 675l-269 -595h-68v-80h247v80h-85l55 124h359l24.5 -57l29.5 -67h-87v-80h248v80h-68l-267 595q47 23 47 72q0 41 -32 64t-76 23q-43 0 -75 -23t-32 -63
q0 -52 49 -73zM406 617l145 -335h-290z" />
    <glyph glyph-name="aringacute" unicode="&#x1fb;" horiz-adv-x="682" 
d="M281 744l72 93h97v-2l-96 -94h-73v3zM214 628v-1q0 -41 29.5 -64.5t74.5 -23.5q44 0 74 23.5t30 65.5q0 41 -31 64.5t-73 23.5q-43 0 -73.5 -23.5t-30.5 -64.5zM317 671h-1q33 0 47 -22.5t0.5 -44.5t-46.5 -22t-46 22t0 44.5t46 22.5zM562 73h82v-73h-155l-9 80
q-53 -92 -182 -92q-110 0 -182 70t-72 189q0 117 72.5 186.5t182.5 69.5q58 0 107.5 -25t75.5 -71l1 88h159v-75h-80v-347zM302 63q82 0 131.5 51.5t51.5 124.5q2 78 -46.5 131.5t-137.5 53.5q-75 0 -125.5 -50t-50.5 -130q0 -81 50.5 -131t126.5 -50z" />
    <glyph glyph-name="AEacute" unicode="&#x1fc;" horiz-adv-x="967" 
d="M508 773l75 128h100v-3l-100 -130h-75v5zM7 80h75l344 541h-81v79h557v-186h-78l-3 106h-237v-223h239v-81h-239v-234h252l3 107h78v-189h-499v80h83v129h-240l-81 -129h77v-80h-250v80zM501 279v255l1 70l-198 -325h197z" />
    <glyph glyph-name="aeacute" unicode="&#x1fd;" horiz-adv-x="1014" 
d="M466 585l69 119h95v-2l-94 -122h-70v5zM483 404l-1 2q-25 47 -75.5 72.5t-108.5 25.5q-109 0 -181.5 -69.5t-72.5 -186.5q0 -118 72 -188.5t181 -69.5q55 0 105.5 25.5t78.5 74.5v-90h64l2 84q58 -93 185 -93q61 0 119 23t93 65l-54 50q-24 -29 -68.5 -45.5t-88.5 -16.5
q-72 0 -121.5 40.5t-56.5 108.5h419q10 68 -6 124t-51 91.5t-82 54.5t-99 19q-124 0 -188 -96v85h-64zM555 286v1q10 69 58.5 108t115.5 39q74 0 119 -38.5t48 -109.5h-341zM303 430v1q50 0 89 -20t59 -52t29.5 -70.5t0 -77t-29.5 -70.5t-59 -52t-89 -20q-75 0 -126 50
t-51 131t51 130.5t126 49.5z" />
    <glyph glyph-name="Oslashacute" unicode="&#x1fe;" horiz-adv-x="809" 
d="M365 789l75 128h100v-3l-100 -129h-75v4zM192 49v1q-70 49 -106.5 128.5t-36.5 170.5q0 71 22.5 135.5t65.5 116t112 82t156 30.5q85 0 155 -32l47 82h88l-71 -119q66 -50 101 -128.5t35 -167.5q0 -70 -22.5 -134t-65 -115.5t-111.5 -82t-156 -30.5q-81 0 -148 27
l-52 -89h-86zM517 610q-50 22 -111 22q-131 0 -201 -83.5t-68 -200.5q0 -66 25.5 -125t73.5 -97zM300 87q48 -17 106 -17q129 0 198 82t69 196q0 142 -92 222z" />
    <glyph glyph-name="oslashacute" unicode="&#x1ff;" horiz-adv-x="591" 
d="M257 585l67 115h91v-2l-90 -117h-68v4zM156 -59l1 -1l40 68q46 -17 99 -17q111 0 182 71.5t71 183.5q0 128 -91 203l57 97h-80l-37 -63q-48 20 -103 20q-110 0 -181.5 -72.5t-71.5 -184.5q0 -133 95 -204l-60 -101h79zM180 113v-1q-56 48 -56 133q0 79 48.5 130.5
t123.5 51.5q32 0 63 -13zM416 374h1q52 -52 52 -130t-48 -128t-124 -50q-34 0 -58 10z" />
    <glyph glyph-name="Scommaaccent" unicode="&#x218;" horiz-adv-x="656" 
d="M341 -262h-58l25 81l-1 1q-37 10 -37 45q0 34 28.5 47t57 -1t28.5 -47q0 -4 -6 -21.5l-17.5 -49.5zM323 714q153 0 250 -80q0 -26 -0.5 -70t-0.5 -69h-77l-4 101q-66 41 -166 41q-73 0 -126 -30t-53 -89q0 -37 27 -61.5t62.5 -35t94.5 -20.5q51 -8 85 -15t75.5 -22.5
t65.5 -36t41 -54.5t17 -78q0 -58 -26 -101t-70 -65.5t-92 -32.5t-102 -10q-158 0 -264 95v139h79l4 -98q77 -55 182 -55q36 0 68.5 5.5t64 19t50.5 40t19 63.5q0 23 -9 41.5t-29 31.5t-37 21.5t-46.5 15.5t-44 9.5t-41.5 6.5q-46 7 -79 15t-69.5 23t-59 35t-37.5 52t-15 74
q-1 68 41 114t99 63t123 17z" />
    <glyph glyph-name="scommaaccent" unicode="&#x219;" horiz-adv-x="511" 
d="M274 -244h-54l22 73v-1q-34 8 -34 43q0 31 26 43.5t52.5 -0.5t26.5 -44q0 -9 -11.5 -45.5t-27.5 -68.5zM255 509q105 0 188 -44l-2 -121h-70l-4 74q-39 21 -111 21q-54 1 -89 -20t-34 -59q1 -34 34 -49t90 -21q37 -5 58.5 -8.5t55 -14.5t52 -26t33 -41.5t13.5 -62.5
q-1 -73 -61 -111t-150 -38q-107 0 -208 59l2 123h72l3 -74q62 -32 133 -32q22 0 41.5 3t40.5 10.5t33.5 23.5t13.5 39q1 38 -34.5 55t-102.5 24q-34 5 -58 9.5t-52.5 15.5t-46.5 25t-30 37.5t-12 53.5q0 50 31.5 85.5t75.5 50t95 13.5z" />
    <glyph glyph-name="uni021A" unicode="&#x21a;" horiz-adv-x="642" 
d="M339 -242h-60l25 77l-1 1q-38 8 -38 45q0 33 30 47t59 -0.5t28 -49.5q0 -1 -43 -120zM278 622h-166l-3 -108h-77v186h578v-186h-77l-4 108h-165v-542h90v-80h-267v80h91v542z" />
    <glyph glyph-name="uni021B" unicode="&#x21b;" horiz-adv-x="381" 
d="M191 638v-145h153v-70h-154v-261q0 -94 78 -94q33 0 69 18l24 -69q-50 -23 -96 -24q-156 -3 -156 169v261h-99v70h99v136zM212 -175v-2q-32 8 -32 42q0 31 25 43.5t50 -0.5t25 -43q0 -4 -6 -22l-17 -49.5t-18 -53.5h-52z" />
    <glyph glyph-name="dotlessj" unicode="&#x237;" horiz-adv-x="272" 
d="M23 494h170v-557q0 -89 -33.5 -135t-112.5 -46q-53 0 -98 27l27 66q34 -17 67 -17q42 1 55.5 26.5t13.5 78.5v484h-89v73z" />
    <glyph glyph-name="circumflex" unicode="&#x2c6;" horiz-adv-x="423" 
d="M174 707h53l144 -134v-7h-85l-86 79l-85 -79h-85v7z" />
    <glyph glyph-name="caron" unicode="&#x2c7;" horiz-adv-x="404" 
d="M27 694v7h85l86 -81l89 81h83v-7l-146 -135h-52z" />
    <glyph glyph-name="breve" unicode="&#x2d8;" horiz-adv-x="349" 
d="M304 700l-1 -3q3 -63 -36 -98.5t-101 -34.5q-62 0 -101 36t-36 99h66q0 -30 17.5 -50.5t53.5 -20.5q35 0 52.5 20.5t17.5 51.5h68z" />
    <glyph glyph-name="dotaccent" unicode="&#x2d9;" horiz-adv-x="202" 
d="M36 655q0 34 27 47.5t54 -0.5t27 -48t-27 -47.5t-54 0.5t-27 48z" />
    <glyph glyph-name="ring" unicode="&#x2da;" horiz-adv-x="360" 
d="M47 609h1q0 50 34.5 79t82.5 29q47 0 82.5 -28.5t35.5 -78.5q0 -51 -34.5 -80t-84.5 -29t-83.5 28.5t-33.5 79.5zM165 664q-37 0 -52 -27.5t0 -55t52 -27.5q38 0 53.5 27.5t-0.5 55t-53 27.5z" />
    <glyph glyph-name="ogonek" unicode="&#x2db;" horiz-adv-x="393" 
d="M242 -58l-1 1q-53 10 -90 -12.5t-25 -57.5q13 -35 58 -33q44 2 73 38l46 -31q-34 -63 -116 -67q-45 -1 -78 18.5t-44 52.5q-4 17 -4.5 36.5t11 39t29 34t51 21t75.5 0.5z" />
    <glyph glyph-name="tilde" unicode="&#x2dc;" horiz-adv-x="358" 
d="M30 659l-2 3q11 45 44.5 65.5t75.5 5.5q6 -2 29 -14t28 -13q40 -15 54 27l55 -23q-11 -49 -45.5 -67.5t-71.5 -3.5q-6 2 -28.5 13.5t-27.5 12.5q-42 15 -58 -30z" />
    <glyph glyph-name="hungarumlaut" unicode="&#x2dd;" horiz-adv-x="389" 
d="M22 576l80 125h94v-2l-101 -123h-73zM176 575l80 126h94v-2l-102 -124h-72z" />
    <glyph glyph-name="commaaccentcomb" unicode="&#x326;" horiz-adv-x="0" 
d="M223 -179h1q-35 9 -35 45q0 33 26.5 46t53.5 -1t27 -47q0 -4 -6 -22l-18 -53l-20 -59h-55z" />
    <glyph glyph-name="_375" unicode="&#x394;" horiz-adv-x="693" 
d="M679 0h-687l314 700h59zM335 602l-231 -530h463z" />
    <glyph glyph-name="Omega" unicode="&#x3a9;" horiz-adv-x="817" 
d="M84 76h122q-76 45 -115 118t-39 161q0 98 41.5 178.5t123.5 130t191 49.5q163 0 260 -103.5t97 -254.5q0 -88 -39 -161t-115 -119h123v-76h-250v78q93 25 144 103t51 173q0 115 -70.5 196.5t-199.5 81.5t-199.5 -81.5t-70.5 -196.5q0 -95 51 -173t144 -102v-78h-250v76z
" />
    <glyph glyph-name="mu" unicode="&#x3bc;" horiz-adv-x="651" 
d="M90 -221v1v705h85v-281q0 -70 45 -111t105 -41t102.5 42t42.5 122v268h86v-484h-77l-7 61q-21 -40 -62.5 -61t-86.5 -21q-114 0 -148 83v-283h-85z" />
    <glyph glyph-name="pi" unicode="&#x3c0;" horiz-adv-x="668" 
d="M132 0l-1 -1v423h-114v71h620v-71h-116v-274q0 -51 21 -73t75 -13l5 -65q-91 -17 -136.5 23.5t-44.5 127.5v275h-228v-423h-81z" />
    <glyph glyph-name="Wgrave" unicode="&#x1e80;" horiz-adv-x="1148" 
d="M454 888v2h98l63 -124v-5h-74zM88 620h-74v80h254v-80h-82l167 -500l194 566h56l196 -566l164 500h-83v80h254v-80h-73l-219 -621h-85l-183 507l-180 -507h-89z" />
    <glyph glyph-name="wgrave" unicode="&#x1e81;" horiz-adv-x="906" 
d="M330 687v3h93l64 -116v-5h-69zM18 423v72h227v-72h-65l109 -338l132 410h66l132 -410l108 338h-71v72h231v-72h-72l-148 -425h-93l-68 187l-52 179l-54 -179l-67 -187h-93l-148 425h-74z" />
    <glyph glyph-name="Wacute" unicode="&#x1e82;" horiz-adv-x="1148" 
d="M698 890v-2l-87 -127h-74v5l63 124h98zM88 620h-74v80h254v-80h-82l167 -500l194 566h56l196 -566l164 500h-83v80h254v-80h-73l-219 -621h-85l-183 507l-180 -507h-89z" />
    <glyph glyph-name="wacute" unicode="&#x1e83;" horiz-adv-x="906" 
d="M408 579l59 115h92v-3l-82 -116h-69v4zM18 423v72h227v-72h-65l109 -338l132 410h66l132 -410l108 338h-71v72h231v-72h-72l-148 -425h-93l-68 187l-52 179l-54 -179l-67 -187h-93l-148 425h-74z" />
    <glyph glyph-name="Wdieresis" unicode="&#x1e84;" horiz-adv-x="1148" 
d="M377 820q0 34 28.5 47.5t56.5 -0.5t28 -48q0 -20 -11.5 -34t-28 -17t-33.5 0t-28.5 17t-11.5 35zM660 820q0 25 17.5 39.5t39 14.5t39 -14.5t17.5 -39.5t-17.5 -39.5t-39 -14.5t-39 14.5t-17.5 39.5zM88 620h-74v80h254v-80h-82l167 -500l194 566h56l196 -566l164 500
h-83v80h254v-80h-73l-219 -621h-85l-183 507l-180 -507h-89z" />
    <glyph glyph-name="wdieresis" unicode="&#x1e85;" horiz-adv-x="906" 
d="M276 640q0 25 16.5 39.5t37 14.5t37 -14.5t16.5 -39.5q0 -33 -26.5 -46t-53.5 0t-27 46zM528 639q0 34 26 47.5t52.5 0t26.5 -46.5t-26.5 -46t-52.5 0t-26 45zM18 423v72h227v-72h-65l109 -338l132 410h66l132 -410l108 338h-71v72h231v-72h-72l-148 -425h-93l-68 187
l-52 179l-54 -179l-67 -187h-93l-148 425h-74z" />
    <glyph glyph-name="Ygrave" unicode="&#x1ef2;" horiz-adv-x="711" 
d="M238 871v2h100l56 -114v-5h-75zM274 620h-80l68 -105l93 -148l98 151l67 102h-80v80h255v-80h-71l-225 -336v-205h90v-79h-268v79h90v205l-221 336h-71v80h255v-80z" />
    <glyph glyph-name="ygrave" unicode="&#x1ef3;" horiz-adv-x="610" 
d="M182 694v2h96l60 -112v-5h-71zM16 495v-73h70l177 -416l-46 -119q-35 -74 -128 -22l-31 -68q72 -44 138 -28.5t99 94.5l231 559h65v73h-232v-73h77l-74 -187l-51 -140l-53 142l-81 186h64v72h-225z" />
    <glyph glyph-name="endash" unicode="&#x2013;" horiz-adv-x="598" 
d="M70 323h458v-77h-458v77z" />
    <glyph glyph-name="emdash" unicode="&#x2014;" 
d="M70 323h560v-77h-560v77z" />
    <glyph glyph-name="quoteleft" unicode="&#x2018;" horiz-adv-x="232" 
d="M186 701l-46 -191h-88l67 191h67z" />
    <glyph glyph-name="quoteright" unicode="&#x2019;" horiz-adv-x="231" 
d="M56 506l47 195h88l-67 -195h-68z" />
    <glyph glyph-name="quotesinglbase" unicode="&#x201a;" horiz-adv-x="327" 
d="M89 -115l46 194h88l-67 -194h-67z" />
    <glyph glyph-name="quotedblleft" unicode="&#x201c;" horiz-adv-x="379" 
d="M186 698l-47 -193h-88l68 193h67zM332 698l-48 -193h-88l68 193h68z" />
    <glyph glyph-name="quotedblright" unicode="&#x201d;" horiz-adv-x="373" 
d="M55 511l47 190h88l-67 -190h-68zM201 511l46 190h88l-67 -190h-67z" />
    <glyph glyph-name="quotedblbase" unicode="&#x201e;" horiz-adv-x="472" 
d="M88 -115l47 194h88l-67 -194h-68zM234 -115l46 194h88l-67 -194h-67z" />
    <glyph glyph-name="dagger" unicode="&#x2020;" horiz-adv-x="564" 
d="M532 432h-206v-557h-87v557h-207v75h207v193h87v-193h206v-75z" />
    <glyph glyph-name="daggerdbl" unicode="&#x2021;" horiz-adv-x="605" 
d="M553 433h-207v-253h207v-75h-207v-234h-87v234h-207v75h207v253h-207v75h207v192h87v-192h207v-75z" />
    <glyph glyph-name="bullet" unicode="&#x2022;" horiz-adv-x="388" 
d="M195 171v1q-49 0 -80.5 30t-31.5 79t31.5 79.5t80.5 30.5q47 0 78.5 -31t31.5 -80t-31.5 -79t-78.5 -30z" />
    <glyph glyph-name="ellipsis" unicode="&#x2026;" horiz-adv-x="625" 
d="M61 45q0 34 27 47.5t54 -0.5t27 -48t-27 -47.5t-54 0.5t-27 48zM259 45q0 34 27 47.5t54 -0.5t27 -48t-27 -47.5t-54 0.5t-27 48zM456 45q0 34 27 47.5t54 -0.5t27 -48t-27 -47.5t-54 0.5t-27 48z" />
    <glyph glyph-name="perthousand" unicode="&#x2030;" horiz-adv-x="1104" 
d="M192 709q60 0 101 -31.5t50.5 -76t0 -89t-50.5 -76t-101 -31.5q-43 0 -77 17t-51 43.5t-25.5 59t0 65t25.5 59t51 43.5t77 17zM549 702h94l-452 -702h-95zM192 644h-1q-55 0 -77.5 -43t0.5 -86.5t79 -43.5q33 0 55.5 18t27.5 43.5t0 50.5t-28 43t-56 18zM550 297h-1
q60 0 101 -31.5t50.5 -76t0 -89t-50.5 -76t-101 -31.5t-100.5 31.5t-50 76t0 89t50.5 76t101 31.5zM916 297h-1q60 0 101 -31.5t50.5 -76t0 -89t-50.5 -76t-101 -31.5t-100.5 31.5t-50 76t0 89t50.5 76t101 31.5zM548 233q-55 0 -77.5 -43.5t0 -87.5t77.5 -44q33 0 56 18
t28 44t-0.5 51.5t-28 43.5t-55.5 18zM915 233h1q-55 0 -77.5 -43.5t0 -87.5t77.5 -44t77.5 44t-0.5 87.5t-78 43.5z" />
    <glyph glyph-name="guilsinglleft" unicode="&#x2039;" horiz-adv-x="312" 
d="M42 298l138 220h88l-137 -220l137 -221h-88z" />
    <glyph glyph-name="guilsinglright" unicode="&#x203a;" horiz-adv-x="314" 
d="M183 297l-137 220h88l138 -220l-138 -221h-88z" />
    <glyph glyph-name="fraction" unicode="&#x2044;" horiz-adv-x="130" 
d="M-164 -3l379 708h77l-379 -708h-77z" />
    <glyph glyph-name="zerosuperior" unicode="&#x2070;" horiz-adv-x="381" 
d="M37 662v1q0 44 17 78.5t44 52t59.5 25.5t65.5 -0.5t60 -26t44 -52t17 -78.5v-53q0 -44 -17 -78.5t-44 -52.5t-60 -26.5t-65.5 0t-59.5 26.5t-44 52.5t-17 78.5v53zM101 609q0 -46 27.5 -72t60 -26.5t60 26t27.5 72.5v54q0 38 -18 64t-43.5 32.5t-51.5 0t-44 -32.5
t-18 -64v-54z" />
    <glyph glyph-name="foursuperior" unicode="&#x2074;" horiz-adv-x="356" 
d="M281 817v-229h43v-59h-43v-72h-65v72h-192l-3 54l172 234h88zM216 588v166l-123 -166h123z" />
    <glyph glyph-name="fivesuperior" unicode="&#x2075;" horiz-adv-x="354" 
d="M177 686l1 -2q69 0 108 -30.5t38 -87.5q0 -56 -39.5 -87t-105.5 -31q-61 0 -102 25.5t-42 83.5h64q0 -50 78 -50q80 0 80 60q0 61 -80 61h-134v188h259v-58h-196v-72h71z" />
    <glyph glyph-name="sixsuperior" unicode="&#x2076;" horiz-adv-x="366" 
d="M106 649l-1 -1q29 29 82 29q62 0 104 -26.5t42 -88.5q0 -58 -43.5 -86.5t-102.5 -28.5q-60 0 -103 30t-43 87v139q0 58 41.5 87.5t100.5 29.5q61 0 101.5 -25t42.5 -74h-65q-5 41 -78 41q-78 0 -78 -59v-54zM187 503v-1q33 0 56.5 14.5t23.5 44.5t-23.5 45t-56.5 15
t-57.5 -15t-24.5 -44q0 -30 24 -44.5t58 -14.5z" />
    <glyph glyph-name="sevensuperior" unicode="&#x2077;" horiz-adv-x="320" 
d="M27 702v114h278l4 -29l-155 -332h-75l142 300h-128l-4 -53h-62z" />
    <glyph glyph-name="eightsuperior" unicode="&#x2078;" horiz-adv-x="376" 
d="M34 552l2 1q0 30 19 53.5t49 32.5q-62 22 -62 78q0 52 43 78t102 26t102.5 -25.5t43.5 -78.5q0 -56 -60 -79q30 -9 49 -33.5t19 -53.5q0 -58 -45.5 -84t-108.5 -25q-63 0 -108 26t-45 84zM267 717v-1q0 26 -24 38.5t-54 12.5t-54.5 -12.5t-23.5 -37.5q0 -26 22 -38.5
t56 -12.5t56 12.5t22 38.5zM274 553v-2q0 27 -25.5 42.5t-59.5 15.5t-59.5 -14.5t-25.5 -42.5q0 -25 26 -39.5t59 -14.5t59 14.5t26 40.5z" />
    <glyph glyph-name="ninesuperior" unicode="&#x2079;" horiz-adv-x="369" 
d="M325 565l2 -1q0 -58 -42 -87.5t-101 -29.5q-61 0 -101.5 25t-42.5 74h65q5 -41 78 -41q78 0 78 59v55q-29 -29 -82 -29q-62 0 -104 26.5t-42 89.5q0 58 43.5 86.5t102.5 28.5q60 0 103 -29.5t43 -86.5v-140zM180 763q-33 0 -56.5 -14t-23.5 -44t23.5 -45t56.5 -15
t57.5 15t24.5 44q0 30 -24 44.5t-58 14.5z" />
    <glyph glyph-name="zeroinferior" unicode="&#x2080;" horiz-adv-x="383" 
d="M38 122q0 44 17 78.5t44 52t60 25.5t65.5 0t59.5 -26t44 -52t17 -78v-53q0 -44 -17 -78.5t-44 -52t-59.5 -26t-65.5 0t-60 26t-44 52t-17 78.5v53zM102 68q0 -46 27.5 -72t60 -26.5t60 26t27.5 72.5v53q0 38 -18 64t-43.5 32.5t-51.5 0t-44 -32.5t-18 -64v-53z" />
    <glyph glyph-name="oneinferior" unicode="&#x2081;" horiz-adv-x="250" 
d="M34 -28h63v229l-54 -13v58l120 29v-303h64v-58h-193v58z" />
    <glyph glyph-name="twoinferior" unicode="&#x2082;" horiz-adv-x="363" 
d="M260 28h61v-112h-284v87q0 57 36.5 85t92.5 33q31 3 46.5 5.5t29 14t13.5 31.5q0 54 -77 54q-73 0 -74 -52h-64q0 57 40 83t98 26q62 0 102 -26.5t40 -85.5q0 -27 -10 -46t-22 -29t-34.5 -17t-34.5 -8.5t-36 -3.5q-17 -2 -27 -4t-24 -8t-21 -19.5t-7 -33.5v-25h154z" />
    <glyph glyph-name="threeinferior" unicode="&#x2083;" horiz-adv-x="360" 
d="M140 86l-6 16l83 120h-114l-2 -40h-57v97h271v-19l-91 -125q100 -7 100 -107q0 -64 -43.5 -92t-104.5 -28q-58 0 -99.5 27.5t-42.5 84.5h66q5 -50 77 -50q79 0 79 58t-76 58h-40z" />
    <glyph glyph-name="fourinferior" unicode="&#x2084;" horiz-adv-x="357" 
d="M282 275v-230h42v-59h-42v-72h-65v72h-192l-3 55l172 234h88zM217 45v167l-123 -167h123z" />
    <glyph glyph-name="fiveinferior" unicode="&#x2085;" horiz-adv-x="356" 
d="M178 145l1 -1q69 0 108 -30.5t38 -88.5q0 -56 -39.5 -87t-105.5 -31q-61 0 -102 26t-42 84h64q0 -50 78 -50q80 0 80 59q0 61 -80 61h-134v189h259v-58h-196v-73h71z" />
    <glyph glyph-name="sixinferior" unicode="&#x2086;" horiz-adv-x="371" 
d="M110 110l-1 -1q29 29 82 29q62 0 104 -26.5t42 -88.5q0 -58 -43.5 -86.5t-102.5 -28.5q-60 0 -103 30t-43 87v139q0 58 41.5 87.5t100.5 29.5q61 0 101.5 -25t42.5 -74h-65q-5 41 -78 41q-78 0 -78 -59v-54zM191 -36v-1q33 0 56.5 14.5t23.5 44.5t-23.5 45t-56.5 15
t-57.5 -15t-24.5 -44q0 -30 24 -44.5t58 -14.5z" />
    <glyph glyph-name="seveninferior" unicode="&#x2087;" horiz-adv-x="322" 
d="M28 162v114h278l4 -29l-155 -332h-75l142 300h-128l-4 -53h-62z" />
    <glyph glyph-name="eightinferior" unicode="&#x2088;" horiz-adv-x="379" 
d="M36 18h1q0 30 19 53.5t50 32.5q-62 22 -62 79q0 52 43 78t102 26t102.5 -25.5t43.5 -78.5q0 -56 -60 -78q30 -9 49 -33.5t19 -53.5q0 -58 -45 -84t-109 -26q-63 0 -108 26t-45 84zM268 181q0 26 -24 38.5t-54 12.5q-31 0 -55 -12.5t-23 -38.5q0 -26 22 -38.5t56 -12.5
t56 12.5t22 38.5zM275 18q0 27 -25.5 42.5t-59.5 15.5t-59.5 -14.5t-25.5 -43.5q0 -25 26 -39.5t59 -14.5t59 14.5t26 39.5z" />
    <glyph glyph-name="nineinferior" unicode="&#x2089;" horiz-adv-x="373" 
d="M326 25l1 1q0 -58 -41.5 -87.5t-100.5 -29.5q-61 0 -101.5 25t-42.5 74h65q5 -41 78 -41q78 0 78 59v54q-29 -29 -82 -29q-62 0 -104 26.5t-42 88.5q0 58 43.5 86.5t102.5 28.5q60 0 103 -30t43 -87v-139zM180 225v1q-33 0 -56.5 -14.5t-23.5 -44.5t23.5 -45t56.5 -15
t57.5 15t24.5 44q0 30 -24 44.5t-58 14.5z" />
    <glyph glyph-name="Euro" unicode="&#x20ac;" horiz-adv-x="609" 
d="M574 8v-3q-60 -20 -123 -20q-149 0 -233.5 69.5t-110.5 193.5h-66v69h56q-1 4 -1 27q0 21 1 31h-57v70h67q24 119 111 192t232 73q50 0 104 -16l-25 -77q-37 10 -77 10q-203 0 -252 -182h253l-17 -70h-253q-1 -9 -1 -29q0 -19 1 -26h238l-15 -69h-207q44 -179 253 -179
q50 0 98 18z" />
    <glyph glyph-name="afii61289" unicode="&#x2113;" horiz-adv-x="397" 
d="M201 147q0 -44 37 -61.5t93 -4.5v-69q-101 -33 -166 2t-65 149l-49 -24l-14 46q34 14 62 30v333q0 91 34 129t122 38q135 0 110 -193q-17 -146 -164 -280v-95zM198 548q0 -26 -0.5 -112.5t-0.5 -124.5q107 123 120 220l4 57t-14 52t-50 23q-28 0 -43.5 -34.5t-15.5 -80.5
z" />
    <glyph glyph-name="uni2117" unicode="&#x2117;" horiz-adv-x="824" 
d="M412 714q168 0 264.5 -104.5t96.5 -260.5q0 -155 -96.5 -260t-264.5 -105q-167 0 -264 105t-97 260q0 156 97 260.5t264 104.5zM127 349v2q0 -129 76.5 -213.5t208.5 -84.5t209 84.5t77 212.5q0 129 -76.5 213.5t-209.5 84.5t-209 -84.5t-76 -214.5zM459 275l-1 -1
q37 0 66 14t43.5 37t21 50t-0.5 54.5t-22 50.5t-43 37t-63 14h-173v-376h70v120h102zM356 466v-1h103q41 0 57 -32.5t-1 -65.5t-58 -33h-101v132z" />
    <glyph glyph-name="trademark" unicode="&#x2122;" horiz-adv-x="797" 
d="M383 701h70l98 -125l100 125h68v-286h-70l3 188l-95 -120h-14l-93 123l3 -191h-70v286zM165 642h-105v58h279v-58h-106v-227h-68v227z" />
    <glyph glyph-name="estimated" unicode="&#x212e;" horiz-adv-x="638" 
d="M554 104q-43 -61 -98 -86t-129 -25q-116 0 -192 78t-76 218q0 142 75.5 219.5t191.5 77.5q58 0 106.5 -17t87 -53t57 -100.5t11.5 -152.5h-402v-170q58 -53 141 -53q125 0 190 93zM469 496q-55 43 -143 43q-87 0 -140 -46v-183h283v186z" />
    <glyph glyph-name="uni2153" unicode="&#x2153;" horiz-adv-x="773" 
d="M46 404h63v229l-54 -13v58l120 29v-303h64v-57h-193v57zM195 -3h-74l378 708h76zM547 172l-6 16l83 120h-114l-2 -40h-57v97h271v-19l-91 -125q100 -7 100 -107q0 -64 -43.5 -92t-104.5 -28q-58 0 -99.5 27.5t-42.5 84.5h66q5 -50 77 -50q79 0 79 58t-76 58h-40z" />
    <glyph glyph-name="uni2154" unicode="&#x2154;" horiz-adv-x="854" 
d="M584 705h76l-380 -708h-75zM628 172l-6 16l83 120h-114l-2 -40h-57v97h271v-19l-91 -125q100 -7 100 -107q0 -64 -43.5 -92t-104.5 -28q-58 0 -99.5 27.5t-42.5 84.5h66q5 -50 77 -50q79 0 79 58t-76 58h-40zM270 453h61v-112h-284v87q0 57 36.5 85t92.5 33
q31 3 46.5 5.5t29 14t13.5 31.5q0 54 -77 54q-73 0 -74 -52h-64q0 57 40 83t98 26q62 0 102 -26.5t40 -85.5q0 -27 -10 -46t-22 -29t-34.5 -17t-34.5 -8.5t-36 -3.5q-17 -2 -27 -4t-24 -8t-21 -19.5t-7 -33.5v-25h154z" />
    <glyph glyph-name="oneeighth" unicode="&#x215b;" horiz-adv-x="780" 
d="M46 404h63v229l-54 -13v58l120 29v-303h64v-57h-193v57zM121 -3l378 708h76l-380 -708h-74zM437 102h1q0 30 19 53.5t50 32.5q-62 22 -62 79q0 52 43 78t102 26t102.5 -25.5t43.5 -78.5q0 -56 -60 -78q30 -9 49 -33.5t19 -53.5q0 -58 -45 -84t-109 -26q-63 0 -108 26
t-45 84zM669 265q0 26 -24 38.5t-54 12.5q-31 0 -55 -12.5t-23 -38.5q0 -26 22 -38.5t56 -12.5t56 12.5t22 38.5zM676 102q0 27 -25.5 42.5t-59.5 15.5t-59.5 -14.5t-25.5 -43.5q0 -25 26 -39.5t59 -14.5t59 14.5t26 39.5z" />
    <glyph glyph-name="threeeighths" unicode="&#x215c;" horiz-adv-x="837" 
d="M562 705h76l-380 -708h-74zM495 102h1q0 30 19 53.5t50 32.5q-62 22 -62 79q0 52 43 78t102 26t102.5 -25.5t43.5 -78.5q0 -56 -60 -78q30 -9 49 -33.5t19 -53.5q0 -58 -45 -84t-109 -26q-63 0 -108 26t-45 84zM727 265q0 26 -24 38.5t-54 12.5q-31 0 -55 -12.5
t-23 -38.5q0 -26 22 -38.5t56 -12.5t56 12.5t22 38.5zM734 102q0 27 -25.5 42.5t-59.5 15.5t-59.5 -14.5t-25.5 -43.5q0 -25 26 -39.5t59 -14.5t59 14.5t26 39.5zM145 512l-6 16l83 118h-114l-2 -40h-57v97h271v-19l-91 -123q100 -7 100 -107q0 -64 -43.5 -92t-104.5 -28
q-58 0 -99.5 27.5t-42.5 84.5h66q5 -50 77 -50q79 0 79 58t-76 58h-40z" />
    <glyph glyph-name="fiveeighths" unicode="&#x215d;" horiz-adv-x="841" 
d="M188 -3l378 708h76l-380 -708h-74zM49 513v188h258v-58h-195v-73h70q69 0 108 -30.5t39 -88.5q0 -55 -39 -86.5t-105 -31.5q-61 0 -102 26t-42 84h64q0 -50 78 -50q80 0 80 59q0 61 -81 61h-133zM499 102h1q0 30 19 53.5t50 32.5q-62 22 -62 79q0 52 43 78t102 26
t102.5 -25.5t43.5 -78.5q0 -56 -60 -78q30 -9 49 -33.5t19 -53.5q0 -58 -45 -84t-109 -26q-63 0 -108 26t-45 84zM731 265q0 26 -24 38.5t-54 12.5q-31 0 -55 -12.5t-23 -38.5q0 -26 22 -38.5t56 -12.5t56 12.5t22 38.5zM738 102q0 27 -25.5 42.5t-59.5 15.5t-59.5 -14.5
t-25.5 -43.5q0 -25 26 -39.5t59 -14.5t59 14.5t26 39.5z" />
    <glyph glyph-name="seveneighths" unicode="&#x215e;" horiz-adv-x="767" 
d="M486 705h76l-380 -708h-74zM424 102h2q0 30 19 53.5t50 32.5q-62 22 -62 79q0 52 42.5 78t101.5 26t102.5 -25.5t43.5 -78.5q0 -57 -61 -78q30 -9 49 -33.5t19 -53.5q0 -58 -45 -84t-109 -26q-40 0 -72.5 9.5t-56 35t-23.5 65.5zM657 265q0 26 -24.5 38.5t-54.5 12.5
t-54.5 -12.5t-24.5 -38.5t22 -38.5t57 -12.5q34 0 56 12.5t23 38.5zM663 102q0 27 -25.5 42.5t-59.5 15.5t-59.5 -14.5t-25.5 -43.5q0 -25 26 -39.5t59 -14.5t59 14.5t26 39.5zM35 587v114h278l4 -29l-155 -332h-74l141 300h-129l-4 -53h-61z" />
    <glyph glyph-name="arrowleft" unicode="&#x2190;" horiz-adv-x="628" 
d="M35 351l222 221l45 -43l-140 -141h407v-76h-407l138 -143l-43 -40z" />
    <glyph glyph-name="arrowup" unicode="&#x2191;" horiz-adv-x="510" 
d="M256 622l221 -223l-42 -44l-142 139v-406h-76v406l-143 -138l-40 44z" />
    <glyph glyph-name="arrowright" unicode="&#x2192;" horiz-adv-x="628" 
d="M593 351l-222 -222l-45 43l139 142h-406v76h406l-137 142l43 41z" />
    <glyph glyph-name="arrowdown" unicode="&#x2193;" horiz-adv-x="508" 
d="M254 75l-222 222l43 45l142 -139v406h76v-406l142 137l41 -43z" />
    <glyph glyph-name="uni2196" unicode="&#x2196;" horiz-adv-x="506" 
d="M65 539h315l1 -64h-199l288 -288l-54 -54l-287 288l-4 -198l-60 2v314z" />
    <glyph glyph-name="uni2197" unicode="&#x2197;" horiz-adv-x="507" 
d="M441 224l-64 -1v198l-287 -288l-54 54l288 288l-198 3l1 60h314v-314z" />
    <glyph glyph-name="uni2198" unicode="&#x2198;" horiz-adv-x="549" 
d="M449 159h-314l-2 60l199 4l-288 287l54 54l288 -287v198l63 -1v-315z" />
    <glyph glyph-name="uni2199" unicode="&#x2199;" horiz-adv-x="549" 
d="M100 474l64 1v-198l287 287l54 -54l-288 -287l199 -4l-2 -60h-314v315z" />
    <glyph glyph-name="partialdiff" unicode="&#x2202;" horiz-adv-x="602" 
d="M299 64q80 0 125 52t45 123t-45 122.5t-125 51.5q-81 0 -126 -51.5t-45 -122.5t45 -123t126 -52zM273 483q47 3 98 -12t84 -52q-25 73 -110 133.5t-168 79.5l18 67q174 -43 265.5 -156.5t92.5 -290.5q1 -117 -68 -189.5t-186 -72.5q-121 0 -188 73.5t-67 174.5
q0 95 60 166.5t169 78.5z" />
    <glyph glyph-name="increment" unicode="&#x2206;" horiz-adv-x="772" 
d="M749 0h-726l314 700h98zM155 80h461l-230 526z" />
    <glyph glyph-name="product" unicode="&#x220f;" horiz-adv-x="702" 
d="M514 -189v807h-326v-807h-89v889h504v-889h-89z" />
    <glyph glyph-name="summation" unicode="&#x2211;" horiz-adv-x="578" 
d="M160 86h369v-86h-494v47l222 320l-207 295v38h473v-82h-340l173 -253z" />
    <glyph glyph-name="minus" unicode="&#x2212;" horiz-adv-x="525" 
d="M71 357h383v-79h-383v79z" />
    <glyph glyph-name="uni2215" unicode="&#x2215;" horiz-adv-x="449" 
d="M-4 -3l379 708h77l-379 -708h-77z" />
    <glyph glyph-name="uni2219" unicode="&#x2219;" horiz-adv-x="246" 
d="M67 312q0 21 11.5 35.5t28 18t33 0t28 -17.5t11.5 -35q0 -35 -28 -49.5t-56 0t-28 48.5z" />
    <glyph glyph-name="radical" unicode="&#x221a;" horiz-adv-x="608" 
d="M363 0h-70l-166 344l-88 -38l-24 57l166 74l151 -340l210 617l57 -16z" />
    <glyph glyph-name="infinity" unicode="&#x221e;" horiz-adv-x="778" 
d="M217 166q-78 1 -121.5 47.5t-42.5 110.5q0 65 45 112t124 47t167 -108q92 108 166 108q80 0 125 -47t45 -112q1 -64 -42.5 -110.5t-121.5 -47.5q-82 0 -172 107q-42 -50 -82.5 -78.5t-89.5 -28.5zM219 234q23 0 46.5 12.5t35.5 24t35 35.5q12 14 16 18l-13 16
q-21 24 -35 38t-37.5 26.5t-47.5 12.5q-50 0 -76.5 -30t-23.5 -69q2 -35 28 -59t72 -25zM559 234q49 1 75 28t26 64q-1 37 -27.5 64t-73.5 27q-24 0 -48 -14t-35 -25.5l-36 -39.5l-13 -14l15 -15h-1l10 -10l11 -11l10 -10.5t11 -10.5l11 -8.5t12 -8t12 -6.5t13 -5.5t13.5 -3
t14.5 -1.5z" />
    <glyph glyph-name="integral" unicode="&#x222b;" horiz-adv-x="458" 
d="M180 528l1 -1q0 85 44 132t122 47q59 0 112 -36l-34 -61q-42 25 -76 25q-87 0 -87 -107v-529q0 -86 -40.5 -133t-117.5 -47q-51 0 -103 35l33 60q32 -24 66 -24q80 0 80 110v529z" />
    <glyph glyph-name="approxequal" unicode="&#x2248;" horiz-adv-x="565" 
d="M125 337l-54 31q21 45 61.5 66t85.5 10l142 -47q33 -9 48.5 -0.5t31.5 37.5l53 -25q-46 -109 -146 -75l-136 42q-26 10 -50 -1.5t-36 -37.5zM125 158l-54 31q21 45 61 66t85 10l142 -47q33 -9 49 -0.5t32 37.5l53 -25q-47 -109 -147 -75l-136 42q-26 10 -50 -1.5
t-35 -37.5z" />
    <glyph glyph-name="notequal" unicode="&#x2260;" horiz-adv-x="576" 
d="M81 247h144l81 134h-225v77h271l44 73l39 -22l-31 -51h91v-77h-136l-81 -134h217v-77h-262l-45 -75l-40 23l31 52h-98v77z" />
    <glyph glyph-name="lessequal" unicode="&#x2264;" horiz-adv-x="444" 
d="M314 612l44 -53l-195 -139l197 -145l-47 -52l-241 184v27zM66 160h310v-69h-310v69z" />
    <glyph glyph-name="greaterequal" unicode="&#x2265;" horiz-adv-x="445" 
d="M372 434v-27l-241 -184l-47 52l197 145l-195 139l45 53zM379 91h-311v69h311v-69z" />
    <glyph glyph-name="lozenge" unicode="&#x25ca;" horiz-adv-x="569" 
d="M317 7h-67l-215 345l215 344h67l218 -344zM127 351l156 -266l163 266l-163 266z" />
    <glyph glyph-name="fi" unicode="&#xfb01;" horiz-adv-x="623" 
d="M369 690l-18 -71q-23 12 -56 12q-88 0 -88 -103v-34h307v-422h80v-72h-238v72h76v351h-225v-350h86v-73h-248v73h81v350h-97v71h97v34q0 85 44 131.5t124 46.5q37 0 75 -16zM419 646q0 34 27 47.5t54 -0.5t27 -48t-27 -47.5t-54 0.5t-27 48z" />
    <glyph glyph-name="fl" unicode="&#xfb02;" horiz-adv-x="625" 
d="M515 695v-621h80v-74h-235v74h74v556q-226 46 -226 -103v-39h134v-69h-134v-347h82v-72h-244v72h81v347h-97v69h97v39q0 55 18.5 93.5t53 57.5t71 28.5t86 7t83 -6.5t76.5 -12z" />
    <glyph glyph-name="a.alt" horiz-adv-x="579" 
d="M414 203q-32 19 -78.5 30.5t-85.5 11.5q-54 0 -91.5 -22t-37.5 -69q0 -46 39 -68.5t88 -22.5q65 0 114.5 39t51.5 101zM418 77l-1 1q-30 -43 -78.5 -65t-102.5 -22q-86 0 -141 36t-55 117q0 65 40.5 103.5t100 47.5t121 3t109.5 -25v44q0 106 -153 110q-58 0 -102 -15
l-3 -65h-73l-1 115q73 40 184 40q47 0 86 -9.5t72 -30t52 -58t19 -88.5v-243h81v-73h-147z" />
    <glyph glyph-name="aacute.alt" horiz-adv-x="579" 
d="M223 580v5l68 119h99v-3l-93 -121h-74zM414 203q-32 19 -78.5 30.5t-85.5 11.5q-54 0 -91.5 -22t-37.5 -69q0 -46 39 -68.5t88 -22.5q65 0 114.5 39t51.5 101zM418 77l-1 1q-30 -43 -78.5 -65t-102.5 -22q-86 0 -141 36t-55 117q0 65 40.5 103.5t100 47.5t121 3
t109.5 -25v44q0 106 -153 110q-58 0 -102 -15l-3 -65h-73l-1 115q73 40 184 40q47 0 86 -9.5t72 -30t52 -58t19 -88.5v-243h81v-73h-147z" />
    <glyph glyph-name="abreve.alt" horiz-adv-x="579" 
d="M417 705h-1q3 -63 -36 -98.5t-101 -35.5t-101 35.5t-36 98.5h66q0 -30 17.5 -50.5t53.5 -20.5q35 0 52.5 20.5t17.5 50.5h68zM414 203q-32 19 -78.5 30.5t-85.5 11.5q-54 0 -91.5 -22t-37.5 -69q0 -46 39 -68.5t88 -22.5q65 0 114.5 39t51.5 101zM418 77l-1 1
q-30 -43 -78.5 -65t-102.5 -22q-86 0 -141 36t-55 117q0 65 40.5 103.5t100 47.5t121 3t109.5 -25v44q0 106 -153 110q-58 0 -102 -15l-3 -65h-73l-1 115q73 40 184 40q47 0 86 -9.5t72 -30t52 -58t19 -88.5v-243h81v-73h-147z" />
    <glyph glyph-name="acircumflex.alt" horiz-adv-x="579" 
d="M120 576l142 132h51l142 -132v-7h-83l-84 76l-84 -76h-84v7zM414 203q-32 19 -78.5 30.5t-85.5 11.5q-54 0 -91.5 -22t-37.5 -69q0 -46 39 -68.5t88 -22.5q65 0 114.5 39t51.5 101zM418 77l-1 1q-30 -43 -78.5 -65t-102.5 -22q-86 0 -141 36t-55 117q0 65 40.5 103.5
t100 47.5t121 3t109.5 -25v44q0 106 -153 110q-58 0 -102 -15l-3 -65h-73l-1 115q73 40 184 40q47 0 86 -9.5t72 -30t52 -58t19 -88.5v-243h81v-73h-147z" />
    <glyph glyph-name="adieresis.alt" horiz-adv-x="579" 
d="M128 644q0 34 27 47.5t53.5 0t26.5 -46.5t-26.5 -46.5t-53.5 -0.5t-27 46zM337 644q0 25 16.5 39.5t37 14.5t37 -14.5t16.5 -39.5q0 -33 -27 -46.5t-53.5 0t-26.5 46.5zM414 203q-32 19 -78.5 30.5t-85.5 11.5q-54 0 -91.5 -22t-37.5 -69q0 -46 39 -68.5t88 -22.5
q65 0 114.5 39t51.5 101zM418 77l-1 1q-30 -43 -78.5 -65t-102.5 -22q-86 0 -141 36t-55 117q0 65 40.5 103.5t100 47.5t121 3t109.5 -25v44q0 106 -153 110q-58 0 -102 -15l-3 -65h-73l-1 115q73 40 184 40q47 0 86 -9.5t72 -30t52 -58t19 -88.5v-243h81v-73h-147z" />
    <glyph glyph-name="agrave.alt" horiz-adv-x="579" 
d="M168 701v3h98l68 -119v-5h-73zM414 203q-32 19 -78.5 30.5t-85.5 11.5q-54 0 -91.5 -22t-37.5 -69q0 -46 39 -68.5t88 -22.5q65 0 114.5 39t51.5 101zM418 77l-1 1q-30 -43 -78.5 -65t-102.5 -22q-86 0 -141 36t-55 117q0 65 40.5 103.5t100 47.5t121 3t109.5 -25v44
q0 106 -153 110q-58 0 -102 -15l-3 -65h-73l-1 115q73 40 184 40q47 0 86 -9.5t72 -30t52 -58t19 -88.5v-243h81v-73h-147z" />
    <glyph glyph-name="amacron.alt" horiz-adv-x="579" 
d="M137 687h286v-69h-286v69zM414 203q-32 19 -78.5 30.5t-85.5 11.5q-54 0 -91.5 -22t-37.5 -69q0 -46 39 -68.5t88 -22.5q65 0 114.5 39t51.5 101zM418 77l-1 1q-30 -43 -78.5 -65t-102.5 -22q-86 0 -141 36t-55 117q0 65 40.5 103.5t100 47.5t121 3t109.5 -25v44
q0 106 -153 110q-58 0 -102 -15l-3 -65h-73l-1 115q73 40 184 40q47 0 86 -9.5t72 -30t52 -58t19 -88.5v-243h81v-73h-147z" />
    <glyph glyph-name="aogonek.alt" horiz-adv-x="579" 
d="M419 77l-1 1q-30 -43 -79 -65t-103 -22q-85 0 -140.5 38t-55.5 119q0 64 40.5 102t100 46t121 2t109.5 -25v44q0 106 -153 110q-58 0 -102 -15l-3 -65h-73l-1 115q73 40 184 40q47 0 86 -9.5t72 -30t52 -58t19 -88.5v-246h81v-70q-69 3 -96 -26t-15 -63q10 -26 45 -28
t75 26l17 -58q-36 -24 -78.5 -30t-79 11.5t-48.5 57.5q-9 33 5.5 63.5t47.5 46.5h-11zM414 206q-58 34 -164 34q-54 0 -91.5 -21.5t-37.5 -66.5q0 -89 127 -89q65 0 114.5 40.5t51.5 102.5z" />
    <glyph glyph-name="aring.alt" horiz-adv-x="579" 
d="M169 646q1 45 34.5 71.5t78.5 26.5q44 0 77.5 -26.5t33.5 -71.5t-32.5 -69.5t-80.5 -24.5t-79.5 24.5t-31.5 69.5zM280 695h2q-35 0 -49.5 -23t0 -46t48.5 -23q36 0 50.5 23t-1 46t-50.5 23zM414 203q-32 19 -78.5 30.5t-85.5 11.5q-54 0 -91.5 -22t-37.5 -69
q0 -46 39 -68.5t88 -22.5q65 0 114.5 39t51.5 101zM418 77l-1 1q-30 -43 -78.5 -65t-102.5 -22q-86 0 -141 36t-55 117q0 65 40.5 103.5t100 47.5t121 3t109.5 -25v44q0 106 -153 110q-58 0 -102 -15l-3 -65h-73l-1 115q73 40 184 40q47 0 86 -9.5t72 -30t52 -58t19 -88.5
v-243h81v-73h-147z" />
    <glyph glyph-name="aringacute.alt" horiz-adv-x="579" 
d="M239 746l72 93h97v-2l-96 -94h-73v3zM172 630v-2q0 -41 29.5 -64.5t74.5 -23.5q44 0 74 23.5t30 65.5q0 41 -31 64.5t-73 23.5q-43 0 -73.5 -23t-30.5 -64zM275 668h-1q31 0 44.5 -20t1 -40.5t-44.5 -20.5q-31 0 -43.5 20.5t0 40.5t43.5 20zM414 203q-32 19 -78.5 30.5
t-85.5 11.5q-54 0 -91.5 -22t-37.5 -69q0 -46 39 -68.5t88 -22.5q65 0 114.5 39t51.5 101zM418 77l-1 1q-30 -43 -78.5 -65t-102.5 -22q-86 0 -141 36t-55 117q0 65 40.5 103.5t100 47.5t121 3t109.5 -25v44q0 106 -153 110q-58 0 -102 -15l-3 -65h-73l-1 115q73 40 184 40
q47 0 86 -9.5t72 -30t52 -58t19 -88.5v-243h81v-73h-147z" />
    <glyph glyph-name="atilde.alt" horiz-adv-x="579" 
d="M129 611l2 1q11 45 47 65t78 5q6 -2 28.5 -13.5t27.5 -12.5q40 -13 55 29l54 -23q-11 -49 -45 -67t-72 -4q-6 1 -29.5 13t-29.5 13q-45 17 -63 -30zM414 203q-32 19 -78.5 30.5t-85.5 11.5q-54 0 -91.5 -22t-37.5 -69q0 -46 39 -68.5t88 -22.5q65 0 114.5 39t51.5 101z
M418 77l-1 1q-30 -43 -78.5 -65t-102.5 -22q-86 0 -141 36t-55 117q0 65 40.5 103.5t100 47.5t121 3t109.5 -25v44q0 106 -153 110q-58 0 -102 -15l-3 -65h-73l-1 115q73 40 184 40q47 0 86 -9.5t72 -30t52 -58t19 -88.5v-243h81v-73h-147z" />
    <glyph glyph-name="g.alt" horiz-adv-x="668" 
d="M563 -10v-1q0 -122 -71 -183.5t-176 -61.5q-111 0 -176 49t-67 136h79q4 -54 49.5 -82t115.5 -28t117.5 42.5t47.5 127.5v100q-28 -49 -78.5 -74.5t-105.5 -25.5q-110 0 -182 70t-72 189q0 117 73 186t182 67q58 0 107.5 -25t75.5 -71l3 90h158v-73h-80v-432zM305 426v-2
q-76 0 -127.5 -49t-51.5 -130q0 -80 51.5 -130.5t127.5 -50.5q49 0 87 20t58 52t29 70.5t0 77t-29 70.5t-58 52t-87 20z" />
    <glyph glyph-name="gbreve.alt" horiz-adv-x="668" 
d="M450 708l-1 -1q3 -62 -36 -97.5t-101 -35.5t-101 35.5t-36 97.5h66q0 -31 17.5 -51t54.5 -20q35 0 52.5 20.5t17.5 51.5h67zM563 -9v-1q0 -122 -71 -183.5t-176 -61.5q-111 0 -176 49t-67 136h79q4 -54 49.5 -82t115.5 -28t117.5 42.5t47.5 127.5v100
q-28 -49 -78.5 -74.5t-105.5 -25.5q-110 0 -182 70t-72 189q0 117 73 186t182 67q58 0 107.5 -25t75.5 -71l3 89h158v-72h-80v-432zM305 427v-2q-76 0 -127.5 -49t-51.5 -130q0 -80 51.5 -130.5t127.5 -50.5q49 0 87 20t58 52t29 70.5t0 77t-29 70.5t-58 52t-87 20z" />
    <glyph glyph-name="gcircumflex.alt" horiz-adv-x="668" 
d="M297 717h53l144 -135v-6h-84l-87 80l-86 -80h-84v6zM563 -10v-1q0 -122 -71 -183.5t-176 -61.5q-111 0 -176 49t-67 136h79q4 -54 49.5 -82t115.5 -28t117.5 42.5t47.5 127.5v100q-28 -49 -78.5 -74.5t-105.5 -25.5q-110 0 -182 70t-72 189q0 117 73 186t182 67
q58 0 107.5 -25t75.5 -71l3 90h158v-73h-80v-432zM305 426v-2q-76 0 -127.5 -49t-51.5 -130q0 -80 51.5 -130.5t127.5 -50.5q49 0 87 20t58 52t29 70.5t0 77t-29 70.5t-58 52t-87 20z" />
    <glyph glyph-name="gcommaaccent.alt" horiz-adv-x="668" 
d="M334 671h-1q35 -9 35 -44q0 -33 -27 -46t-53.5 0.5t-26.5 46.5q0 4 5.5 18.5l16 43.5l19.5 55h55zM563 -10v-1q0 -122 -71 -183.5t-176 -61.5q-111 0 -176 49t-67 136h79q4 -54 49.5 -82t115.5 -28t117.5 42.5t47.5 127.5v100q-28 -49 -78.5 -74.5t-105.5 -25.5
q-110 0 -182 70t-72 189q0 117 73 186t182 67q58 0 107.5 -25t75.5 -71l3 90h158v-73h-80v-432zM305 426v-2q-76 0 -127.5 -49t-51.5 -130q0 -80 51.5 -130.5t127.5 -50.5q49 0 87 20t58 52t29 70.5t0 77t-29 70.5t-58 52t-87 20z" />
    <glyph glyph-name="gdotaccent.alt" horiz-adv-x="668" 
d="M262 661q0 34 27 47.5t54 -0.5t27 -48t-27 -47.5t-54 0.5t-27 48zM563 -10v-1q0 -122 -71 -183.5t-176 -61.5q-111 0 -176 49t-67 136h79q4 -54 49.5 -82t115.5 -28t117.5 42.5t47.5 127.5v100q-28 -49 -78.5 -74.5t-105.5 -25.5q-110 0 -182 70t-72 189q0 117 73 186
t182 67q58 0 107.5 -25t75.5 -71l3 90h158v-73h-80v-432zM305 426v-2q-76 0 -127.5 -49t-51.5 -130q0 -80 51.5 -130.5t127.5 -50.5q49 0 87 20t58 52t29 70.5t0 77t-29 70.5t-58 52t-87 20z" />
    <glyph glyph-name="y.alt" horiz-adv-x="635" 
d="M556 -12v-1q0 -119 -64 -180t-165 -61q-102 0 -161 48.5t-66 136.5h79q16 -107 146 -107q66 0 109.5 41.5t43.5 122.5v91q-58 -86 -172 -86q-97 0 -156.5 61.5t-59.5 167.5v200h-81v73h163v-272q0 -71 40 -113t111 -42q66 1 108.5 47.5t42.5 114.5v192h-83v73h165v-507z
" />
    <glyph glyph-name="yacute.alt" horiz-adv-x="635" 
d="M254 578l72 123h99v-3l-97 -125h-74v5zM556 -12v-1q0 -119 -64 -180t-165 -61q-102 0 -161 48.5t-66 136.5h79q16 -107 146 -107q66 0 109.5 41.5t43.5 122.5v91q-58 -86 -172 -86q-97 0 -156.5 61.5t-59.5 167.5v200h-81v73h163v-272q0 -71 40 -113t111 -42
q66 1 108.5 47.5t42.5 114.5v192h-83v73h165v-507z" />
    <glyph glyph-name="ycircumflex.alt" horiz-adv-x="635" 
d="M142 578l141 129h52l140 -129v-6h-86l-81 73l-82 -73h-84v6zM556 -12v-1q0 -119 -64 -180t-165 -61q-102 0 -161 48.5t-66 136.5h79q16 -107 146 -107q66 0 109.5 41.5t43.5 122.5v91q-58 -86 -172 -86q-97 0 -156.5 61.5t-59.5 167.5v200h-81v73h163v-272q0 -71 40 -113
t111 -42q66 1 108.5 47.5t42.5 114.5v192h-83v73h165v-507z" />
    <glyph glyph-name="ydieresis.alt" horiz-adv-x="635" 
d="M134 651q0 25 16.5 39.5t37 14.5t37 -14.5t16.5 -39.5t-16.5 -39.5t-37 -14.5t-37 14.5t-16.5 39.5zM366 651q0 25 16.5 39.5t37 14.5t37 -14.5t16.5 -39.5t-16.5 -39.5t-37 -14.5t-37 14.5t-16.5 39.5zM556 -12v-1q0 -119 -64 -180t-165 -61q-102 0 -161 48.5t-66 136.5
h79q16 -107 146 -107q66 0 109.5 41.5t43.5 122.5v91q-58 -86 -172 -86q-97 0 -156.5 61.5t-59.5 167.5v200h-81v73h163v-272q0 -71 40 -113t111 -42q66 1 108.5 47.5t42.5 114.5v192h-83v73h165v-507z" />
    <glyph glyph-name="ygrave.alt" horiz-adv-x="635" 
d="M182 698v3h99l64 -123v-5h-74zM556 -12v-1q0 -119 -64 -180t-165 -61q-102 0 -161 48.5t-66 136.5h79q16 -107 146 -107q66 0 109.5 41.5t43.5 122.5v91q-58 -86 -172 -86q-97 0 -156.5 61.5t-59.5 167.5v200h-81v73h163v-272q0 -71 40 -113t111 -42q66 1 108.5 47.5
t42.5 114.5v192h-83v73h165v-507z" />
    <glyph glyph-name="zero.denom" horiz-adv-x="447" 
d="M70 205q0 44 17 78.5t44 52t60 25.5t65.5 0t59.5 -26t44 -52t17 -78v-53q0 -44 -17 -78.5t-44 -52.5t-59.5 -26.5t-65.5 0t-60 26.5t-44 52.5t-17 78.5v53zM135 151q0 -46 27.5 -72t60 -26.5t60 26t27.5 72.5v53q0 38 -18 64t-43.5 32.5t-51.5 0t-44 -32.5t-18 -64v-53z
" />
    <glyph glyph-name="one.denom" horiz-adv-x="296" 
d="M57 57h63v230l-54 -14v58l120 29v-303h64v-57h-193v57z" />
    <glyph glyph-name="two.denom" horiz-adv-x="363" 
d="M260 112h61v-112h-284v87q0 57 36.5 85t92.5 33q31 3 46.5 5.5t29 14t13.5 31.5q0 54 -77 54q-73 0 -74 -52h-64q0 57 40 83t98 26q62 0 102 -26.5t40 -85.5q0 -27 -10 -46t-22 -29t-34.5 -17t-34.5 -8.5t-36 -3.5q-17 -2 -27 -4t-24 -8t-21 -19.5t-7 -33.5v-25h154z" />
    <glyph glyph-name="three.denom" horiz-adv-x="360" 
d="M140 172l-6 16l83 120h-114l-2 -40h-57v97h271v-19l-91 -125q100 -7 100 -107q0 -64 -43.5 -92t-104.5 -28q-58 0 -99.5 27.5t-42.5 84.5h66q5 -50 77 -50q79 0 79 58t-76 58h-40z" />
    <glyph glyph-name="four.denom" horiz-adv-x="356" 
d="M281 361v-229h42v-59h-42v-72h-65v72h-192l-3 54l172 234h88zM216 132v166l-123 -166h123z" />
    <glyph glyph-name="five.denom" horiz-adv-x="356" 
d="M178 230l1 -1q69 0 108 -30.5t38 -88.5q0 -56 -39.5 -87t-105.5 -31q-61 0 -102 26t-42 84h64q0 -50 78 -50q80 0 80 59q0 61 -80 61h-134v189h259v-58h-196v-73h71z" />
    <glyph glyph-name="six.denom" horiz-adv-x="369" 
d="M108 195h-1q29 29 82 29q62 0 104 -26.5t42 -88.5q0 -58 -43.5 -86.5t-102.5 -28.5q-60 0 -103 30t-43 87v139q0 58 41.5 87.5t100.5 29.5q61 0 101.5 -25t42.5 -74h-65q-5 41 -78 41q-78 0 -78 -59v-55zM189 51v-1q33 0 56.5 14.5t23.5 44.5t-23.5 45t-56.5 15
t-57.5 -15t-24.5 -44q0 -30 24 -44.5t58 -14.5z" />
    <glyph glyph-name="seven.denom" horiz-adv-x="324" 
d="M29 247v114h278l4 -29l-155 -332h-75l142 300h-128l-4 -53h-62z" />
    <glyph glyph-name="eight.denom" horiz-adv-x="378" 
d="M37 101h1q0 30 19 53.5t50 32.5q-62 22 -62 78q0 52 43 78t102 26t102.5 -25.5t43.5 -78.5q0 -57 -61 -78q30 -9 49 -33.5t19 -53.5q0 -58 -45.5 -84t-108.5 -25q-40 0 -72.5 9.5t-56 35t-23.5 65.5zM269 265v-1q0 26 -24.5 38.5t-54.5 12.5t-54.5 -12.5t-24.5 -37.5
q0 -26 22 -38.5t57 -12.5q34 0 56 12.5t23 38.5zM275 101v-2q0 27 -25.5 42.5t-59.5 15.5t-59.5 -14.5t-25.5 -42.5q0 -25 26 -39.5t59 -14.5t59 14.5t26 40.5z" />
    <glyph glyph-name="nine.denom" horiz-adv-x="368" 
d="M325 110l1 -1q0 -58 -41.5 -87.5t-100.5 -29.5q-61 0 -101.5 25t-42.5 75h65q5 -41 78 -41q78 0 78 59v55q-29 -29 -82 -29q-62 0 -104 26.5t-42 88.5q0 58 43.5 86.5t102.5 28.5q60 0 103 -29.5t43 -86.5v-140zM179 308v2q-33 0 -56.5 -14.5t-23.5 -44.5t23.5 -45
t56.5 -15t57.5 15t24.5 43q0 30 -24 44.5t-58 14.5z" />
    <glyph glyph-name="zero.num" horiz-adv-x="383" 
d="M38 551v1q0 44 17 78.5t44 52t60 25.5t65.5 -0.5t59.5 -26t44 -52t17 -78.5v-53q0 -44 -17 -78.5t-44 -52.5t-59.5 -26.5t-65.5 0t-60 26.5t-44 52.5t-17 78.5v53zM102 498q0 -46 27.5 -72t60 -26.5t60 26t27.5 72.5v54q0 38 -18 64t-43.5 32.5t-51.5 0t-44 -32.5
t-18 -64v-54z" />
    <glyph glyph-name="one.num" horiz-adv-x="314" 
d="M66 408h63v229l-54 -13v58l120 29v-303h64v-58h-193v58z" />
    <glyph glyph-name="two.num" horiz-adv-x="362" 
d="M260 454h61v-112h-284v87q0 57 36.5 85t92.5 33q31 3 46.5 5.5t29 14t13.5 31.5q0 54 -77 54q-73 0 -74 -52h-64q0 57 40 83t98 26q62 0 102 -26.5t40 -85.5q0 -27 -10 -46t-22 -29t-34.5 -17t-34.5 -8.5t-36 -3.5q-17 -2 -27 -4t-24 -8t-21 -19.5t-7 -33.5v-25h154z" />
    <glyph glyph-name="three.num" horiz-adv-x="360" 
d="M140 515l-6 16l83 120h-114l-2 -40h-57v97h271v-19l-91 -125q100 -7 100 -107q0 -64 -43.5 -92t-104.5 -28q-58 0 -99.5 27.5t-42.5 84.5h66q5 -50 77 -50q79 0 79 58t-76 58h-40z" />
    <glyph glyph-name="four.num" horiz-adv-x="356" 
d="M281 702v-229h42v-59h-42v-72h-65v72h-192l-3 54l172 234h88zM216 473v166l-123 -166h123z" />
    <glyph glyph-name="five.num" horiz-adv-x="355" 
d="M177 570v-1q69 0 108 -30.5t39 -88.5q0 -55 -39 -86.5t-105 -31.5q-61 0 -102 26t-42 84h64q0 -50 78 -50q80 0 80 59q0 61 -81 61h-133v189h259v-58h-196v-73h70z" />
    <glyph glyph-name="six.num" horiz-adv-x="370" 
d="M109 538l-1 1q29 29 82 29q62 0 104 -26.5t42 -89.5q0 -58 -43.5 -86.5t-102.5 -28.5q-60 0 -103 29.5t-43 86.5v140q0 58 41.5 87.5t100.5 29.5q61 0 101.5 -25t42.5 -74h-65q-5 41 -78 41q-78 0 -78 -59v-55zM189 395q33 0 56.5 14t23.5 44t-23.5 45t-56.5 15
t-57.5 -15t-24.5 -44q0 -30 24 -44.5t58 -14.5z" />
    <glyph glyph-name="seven.num" horiz-adv-x="324" 
d="M29 587v114h278l4 -29l-155 -332h-75l142 300h-128l-4 -53h-62z" />
    <glyph glyph-name="eight.num" horiz-adv-x="378" 
d="M35 443l2 -3q0 30 19 53.5t49 32.5q-62 22 -62 79q0 52 43 78t102 26t102.5 -25.5t43.5 -77.5q0 -56 -60 -78q30 -9 49 -33t19 -53q0 -58 -45.5 -84t-108.5 -25q-63 0 -108 26t-45 84zM268 603q0 26 -24 38.5t-54 12.5q-31 0 -55 -12.5t-23 -38.5q0 -26 22 -38.5
t56 -12.5t56 12.5t22 38.5zM275 440q0 27 -25.5 42.5t-59.5 15.5t-59.5 -14.5t-25.5 -43.5q0 -25 26 -39.5t59 -14.5t59 14.5t26 39.5z" />
    <glyph glyph-name="nine.num" horiz-adv-x="370" 
d="M260 510h2q-29 -29 -82 -29q-62 0 -104 26.5t-42 88.5q0 58 43.5 86.5t102.5 28.5q60 0 103 -30t43 -87v-139q0 -58 -42 -87.5t-101 -29.5q-61 0 -101.5 25t-42.5 74h65q5 -41 78 -41q78 0 78 59v55zM262 595v1q0 30 -24 44.5t-58 14.5q-33 0 -56.5 -14.5t-23.5 -44.5
t23.5 -45t56.5 -15t57.5 15t24.5 44z" />
    <glyph glyph-name="zero.tf" 
d="M68 419q0 71 24.5 128t64 92t90.5 54t103.5 18.5t103.5 -19.5t90.5 -54t64 -92t24.5 -127v-137q0 -93 -42 -161.5t-104.5 -99t-136 -30.5t-136 30.5t-104.5 99t-42 161.5v137zM156 282v-1q0 -45 13.5 -82.5t36 -62t51.5 -41.5t61 -20.5t64.5 0.5t61.5 21t51.5 41.5t36 62
t13.5 82.5v137q0 66 -29 114.5t-72 70.5t-93.5 22t-93.5 -21.5t-72 -70.5t-29 -115v-137z" />
    <glyph glyph-name="one.tf" 
d="M137 75h183v516l-168 -41v80l256 70v-625h183v-75h-454v75z" />
    <glyph glyph-name="two.tf" 
d="M619 0h-545v169q0 56 24 97t65 63t87.5 32t100.5 10q31 0 60 6t57.5 19.5t45.5 39.5t17 62q0 71 -49.5 102.5t-125.5 31.5q-189 0 -190 -126h-87q8 203 277 203q110 0 185.5 -51t75.5 -159q0 -57 -22 -99t-60.5 -65.5t-83.5 -34.5t-99 -11q-34 0 -64.5 -5t-60.5 -17.5
t-47.5 -37.5t-17.5 -60v-88h374l4 101h79v-182z" />
    <glyph glyph-name="three.tf" 
d="M301 355l-12 24l180 242l-285 -1l-3 -102h-80v182h499v-37l-189 -241q99 -10 156 -62t57 -151q0 -101 -76.5 -159.5t-197.5 -58.5q-51 0 -96.5 10t-87.5 31.5t-66.5 62t-24.5 96.5h87q1 -120 190 -120q84 0 134.5 37t50.5 98q0 42 -14 72t-37.5 45t-54 23.5t-63.5 8.5
h-67z" />
    <glyph glyph-name="four.tf" 
d="M549 700v-469h85v-84h-85v-147h-88v147h-404l-12 96l365 457h139zM461 626l-317 -395h317v395z" />
    <glyph glyph-name="five.tf" 
d="M367 439l1 1q127 0 196 -59t68 -161q0 -102 -74.5 -164t-198.5 -62q-55 0 -102.5 10.5t-88 33t-64 64.5t-23.5 99h89q0 -48 32 -77t70.5 -37.5t85.5 -8.5q84 0 134.5 37.5t50.5 103.5q0 63 -45 100.5t-131 37.5h-271v343h496v-83h-410v-178h185z" />
    <glyph glyph-name="six.tf" 
d="M166 350l1 -3q60 88 197 88q42 0 81.5 -7.5t76 -24.5t63.5 -42t43 -63.5t16 -85.5q0 -57 -24.5 -101t-65.5 -70t-89.5 -39t-101.5 -13q-73 0 -135.5 22.5t-105.5 75.5t-43 128v286q0 101 81.5 155.5t194.5 54.5q116 0 194 -48.5t82 -141.5h-90q-2 53 -55.5 83t-130.5 30
q-76 0 -132.5 -36t-56.5 -98v-150zM362 69v1q50 0 91.5 13t71.5 46t30 83q0 69 -57 107t-135 38q-79 0 -137.5 -37.5t-58.5 -107.5q0 -72 57.5 -107.5t137.5 -35.5z" />
    <glyph glyph-name="seven.tf" 
d="M106 700h512l7 -54l-341 -646h-98l332 620h-331l-3 -102h-78v182z" />
    <glyph glyph-name="eight.tf" 
d="M54 196l2 2q0 57 38 102t97 62q-120 47 -120 150q0 68 42.5 115.5t103.5 67t133 19.5t133 -19.5t104.5 -66.5t43.5 -116q0 -51 -34 -90.5t-91 -58.5q58 -17 97 -64t40 -103q0 -56 -25.5 -98.5t-69 -66.5t-94 -35t-106.5 -11q-55 0 -105 11.5t-94 35t-69.5 66t-25.5 98.5z
M540 516q1 61 -57.5 93t-132.5 32q-48 0 -90 -13t-70.5 -42.5t-28.5 -69.5q1 -59 59.5 -89t129.5 -30q72 0 130.5 30t59.5 89zM350 328v2q-46 0 -89.5 -11.5t-78.5 -43t-35 -76.5q0 -61 62.5 -95t140.5 -34q79 0 141 33.5t62 94.5q0 44 -34 75t-78 43t-91 12z" />
    <glyph glyph-name="nine.tf" 
d="M534 352l-1 3q-60 -88 -196 -88q-42 0 -81.5 7.5t-76 24.5t-63.5 42t-43 63.5t-16 85.5q0 57 24.5 101t65.5 70t89.5 39t101.5 13q73 0 135.5 -22.5t105.5 -75.5t43 -128v-286q0 -101 -81.5 -155.5t-194.5 -54.5q-117 0 -195 48.5t-82 141.5h89q2 -53 56 -83t131 -30
q76 0 132.5 36t56.5 98v150zM338 633l-1 -1q-50 0 -91.5 -13t-71.5 -46t-30 -83q0 -72 56.5 -108.5t135.5 -36.5t137.5 37.5t58.5 107.5q0 72 -57.5 107.5t-136.5 35.5z" />
    <glyph glyph-name="bullet.case" horiz-adv-x="347" 
d="M175 226l-1 -1q-49 0 -80.5 30t-31.5 80q0 49 32 79.5t81 30.5q47 0 78.5 -30.5t31.5 -79.5t-31.5 -79t-78.5 -30z" />
    <glyph glyph-name="periodcentered.case" horiz-adv-x="254" 
d="M71 335q0 35 28 49.5t56 0t28 -48.5q0 -21 -11.5 -35.5t-28 -18t-33 0t-28 17.5t-11.5 35z" />
    <glyph glyph-name="braceleft.case" horiz-adv-x="335" 
d="M295 -78l-1 2q-99 -16 -140 20.5t-41 128.5v144q0 102 -75 102v62q75 0 75 102v137q0 92 42.5 130t138.5 20v-62q-57 11 -78 -9t-21 -82v-134q0 -29 -1 -43.5t-7 -36t-21.5 -34.5t-40.5 -20q26 -7 41.5 -20t21.5 -34.5t7 -36t1 -43.5v-141q0 -61 19.5 -79t79.5 -9v-64z
" />
    <glyph glyph-name="braceright.case" horiz-adv-x="335" 
d="M41 -14v1q60 -9 80 8.5t20 78.5v142q0 29 1 43.5t7 36t21.5 34.5t40.5 20q-21 6 -35 17t-21 21.5t-10.5 30t-4 30.5t-0.5 34v135q0 62 -21 82t-78 9v61q96 18 138.5 -20t42.5 -129v-138q0 -102 75 -102v-63q-75 0 -75 -102v-144q0 -92 -41 -128.5t-140 -20.5v63z" />
    <glyph glyph-name="bracketleft.case" horiz-adv-x="348" 
d="M100 790h208v-75h-124v-734h124v-76h-208v885z" />
    <glyph glyph-name="bracketright.case" horiz-adv-x="348" 
d="M248 -95h-208v76h124v734h-124v75h208v-885z" />
    <glyph glyph-name="parenleft.case" horiz-adv-x="345" 
d="M316 743q-88 -65 -135 -166.5t-48 -216.5q-1 -118 45.5 -219t137.5 -169l-44 -62q-109 71 -167 191t-58 255q0 133 58.5 252.5t168.5 192.5z" />
    <glyph glyph-name="parenright.case" horiz-adv-x="344" 
d="M70 803v-1q110 -72 168.5 -191.5t58.5 -251.5q0 -135 -58 -255t-167 -191l-43 63q91 68 137 168.5t45 218.5q-1 115 -48 216.5t-135 166.5z" />
    <glyph glyph-name="emdash.case" horiz-adv-x="708" 
d="M74 375h560v-77h-560v77z" />
    <glyph glyph-name="endash.case" horiz-adv-x="606" 
d="M74 373h458v-77h-458v77z" />
    <glyph glyph-name="hyphen.case" horiz-adv-x="500" 
d="M71 378h358v-79h-358v79z" />
    <glyph glyph-name="guillemotleft.case" horiz-adv-x="457" 
d="M181 557h88l-137 -220l137 -221h-88l-138 221zM180 337l139 220h87l-136 -220l136 -221h-87z" />
    <glyph glyph-name="guillemotright.case" horiz-adv-x="484" 
d="M152 122h-87l136 221l-136 220h87l138 -220zM428 343l-138 -221h-87l136 221l-136 220h87z" />
    <glyph glyph-name="guilsinglleft.case" horiz-adv-x="348" 
d="M55 344l138 220h88l-137 -220l137 -221h-88z" />
    <glyph glyph-name="guilsinglright.case" horiz-adv-x="348" 
d="M155 120h-88l137 221l-137 220h88l138 -220z" />
    <glyph glyph-name="florin.tf" 
d="M292 417l-1 -1h-144v72h144v39q0 85 44 132t123 47q59 0 111 -36l-33 -61q-42 25 -76 25q-87 0 -87 -107v-39h170v-72h-170v-418q0 -86 -40.5 -133t-118.5 -47q-52 0 -102 35l33 60q32 -24 67 -24q80 0 80 110v418z" />
    <glyph glyph-name="cent.tf" 
d="M345 -16h1q-96 14 -156.5 81.5t-60.5 170.5q0 99 60 168t157 84v65h77v-65q85 -13 145 -73l-51 -52q-55 53 -131 53q-75 0 -126 -49t-51 -131q0 -83 50.5 -131.5t126.5 -48.5q71 0 130 57l52 -59q-62 -60 -146 -71v-71h-77v72z" />
    <glyph glyph-name="dollar.tf" 
d="M397 -104h-80v91q-138 6 -236 94v139h79l4 -98q76 -54 182 -54q36 0 68.5 5.5t64 18.5t50.5 39.5t19 63.5q0 23 -9 41.5t-29 31.5t-37 21.5t-46.5 15.5t-44 9.5t-41.5 6.5q-46 7 -79 15t-69.5 23t-59 35t-37.5 52t-15 74q-1 92 68 139.5t168 53.5v93h81v-95
q113 -10 196 -77q0 -26 -0.5 -70t-0.5 -69h-77l-4 101q-66 41 -166 41q-73 0 -126 -30t-53 -89q0 -37 27 -61.5t62.5 -35t94.5 -20.5q53 -8 85.5 -15t74.5 -22t66 -35.5t41 -54.5t17 -79q-1 -95 -69 -145.5t-169 -60.5v-93z" />
    <glyph glyph-name="Euro.tf" 
d="M618 8l2 -3q-60 -20 -123 -20q-148 0 -233 69.5t-112 193.5h-65v69h56q-1 4 -1 27q0 21 1 31h-56v70h67q24 119 111 192t231 73q50 0 103 -16l-25 -77q-37 10 -78 10q-203 0 -252 -182h253l-17 -70h-253q-1 -9 -1 -29q0 -19 1 -26h238l-15 -69h-207q44 -179 253 -179
q50 0 97 18z" />
    <glyph glyph-name="sterling.tf" 
d="M78 0v81l2 -1q109 83 91 217h-92v70h76q-23 90 -23 126q0 103 68 159t178 56q103 0 166.5 -46.5t65.5 -147.5h-78q-4 118 -154 118q-76 0 -119.5 -37t-43.5 -100q0 -30 20 -126h240v-70h-224q21 -147 -74 -222h362l3 108h78v-185h-542z" />
    <glyph glyph-name="yen.tf" 
d="M267 620h-83l164 -257l168 257h-83v80h255v-80h-71l-172 -257h102v-67h-147l-8 -12v-45h158v-66h-158v-94h90v-79h-268v79h90v94h-155v66h155v45l-8 12h-147v67h103l-169 257h-71v80h255v-80z" />
    <glyph glyph-name="bar.case" horiz-adv-x="282" 
d="M182 756v-832h-82v832h82z" />
    <glyph glyph-name="commaaccentcomb.alt" horiz-adv-x="502" 
d="M250 698v-1q35 -9 35 -45q0 -33 -27 -46t-54 1t-27 47q0 4 6 22l18 53l20 59h55z" />
    <glyph glyph-name="_0004" horiz-adv-x="0" 
 />
    <glyph glyph-name="asterisk.alt" horiz-adv-x="380" 
d="M95 508l49 60l-77 18q-15 5 -15.5 22t10 30t24.5 8l76 -26l-4 69q0 25 31 25t33 -25l-4 -69l76 26q14 5 24.5 -8t10 -30t-15.5 -22l-77 -18l49 -60q13 -16 3 -32.5t-27 -17.5t-28 14l-43 63l-43 -63q-9 -17 -28 -14t-27 18t3 32z" />
    </font>
</defs>
</svg>
